<?xml version="1.0" encoding="UTF-8"?>
<svg id="_レイヤー_1" data-name="レイヤー 1" xmlns="http://www.w3.org/2000/svg" viewBox="0 0 443 107.16">
  <g>
    <path d="M22.24,34.77c-.41,0-.76-.15-1.04-.44-.09-.67-.16-1.32-.22-1.96v-2.31l-.22-1.57c-.09-.96-.16-1.84-.22-2.66l-.96-.04c-1.13,1.31-2.44,2.45-3.92,3.44-1.83.81-3.55,1.8-5.18,2.96l-.3.35c-.29.12-.62.16-1,.13-.38-.17-.81-.23-1.31-.17l-.48.04-.61.04c-.46-.12-.83-.15-1.09-.09l-.96.17-.91-.35-.39-.39c-.49-.12-.94-.3-1.35-.57l-.22-.61c-.12-.26-.16-.52-.13-.78.12-.38.36-.71.74-1,.41-.2.86-.3,1.35-.3.78.49,1.67.77,2.66.83h.48c2.81-.35,5.35-1.35,7.62-3l.22-.35h-1.7c-2.06.32-4.06.75-6.01,1.31-.52-.09-1.02-.22-1.48-.39-.09-.26-.12-.55-.09-.87.23-.32.41-.64.52-.96.72-.55,1.33-1.19,1.83-1.92l-.22-.39c.26-.23.41-.51.44-.83l1.31-.61.3-.39c1.6-.44,3.29-.7,5.09-.78,1.28-.12,2.5-.22,3.66-.3l.96.04.74-.17.17-.7-.3-.35c-.76.12-1.44.15-2.05.09l-.39-.04c-1.36.17-2.74.29-4.13.35l-.61-.04c-.9.15-1.8.28-2.7.39l-.39-.17-.61.13c-.41-.32-.61-.68-.61-1.09.17-.67.48-1.28.91-1.83.61-.38,1.25-.71,1.92-1-.26-.93-.46-1.8-.61-2.61l-.57-.04c-.64-.06-1.19.13-1.65.57-.58.41-1.19.77-1.83,1.09-1.33.58-2.8.97-4.4,1.18-.15-.2-.33-.28-.57-.22-.81,0-1.36-.2-1.65-.61-.03-.64-.06-1.25-.09-1.83.23-.26.36-.52.39-.78.23-.2.44-.39.61-.57.38.17.71.29,1,.35,2.35-.17,4.38-.96,6.09-2.35.61-.67,1.06-1.39,1.35-2.18l.87-.44.44.13c.52.15.86.38,1,.7-.15.73-.25,1.41-.3,2.05l.44.17h3.7c.9.12,1.76.33,2.57.65l.48.7-.61,1.18c-.41.26-.86.41-1.35.44l-1.57-.17c-.76,0-1.36.06-1.83.17.06.75-.1,1.45-.48,2.09l.57.09c.58-.15,1.2-.22,1.87-.22.75-.03,1.44-.09,2.05-.17.93.23,1.83.19,2.7-.13l.39-.35v-.48c.75-.9,1.54-1.73,2.35-2.48.58-.75.96-1.55,1.13-2.39-.26-.35-.45-.73-.57-1.13l.26-.39,1-1.04,1.04-.22.96.48c.15.58.26,1.18.35,1.78l-.35.96c.23.06.48.09.74.09.72-.03,1.38-.1,1.96-.22l1.65-.13c2.58.09,4.98.62,7.18,1.61.2.32.32.68.35,1.09l-.22.35c-.46.32-.91.67-1.35,1.04h-.74c-1.48-.38-3.02-.67-4.61-.87-.41.06-.83.12-1.26.17l.13.61c-.49.75-1.03,1.47-1.61,2.13,1.83.12,3.47.67,4.92,1.65.23.38.39.75.48,1.13l-.35.17-.39.35c-.09.99-.52,1.84-1.31,2.57l-.74.48-.44.3c-.23.35-.54.62-.91.83l-1.04.17c-2-.44-4.05-.73-6.14-.87l-.35.35v.61l.35.3c1.28.15,2.58.23,3.92.26,3.83.2,7.43.86,10.79,1.96l.17.48c-.2.41-.46.77-.78,1.09-.58.23-1.06.55-1.44.96,0,.9-.36,1.67-1.09,2.31-.26.06-.55.12-.87.17l-.3-.26v-.39c.2-.7.35-1.42.44-2.18l.09-.52c-1.42-.44-2.87-.75-4.35-.96-1.19-.26-2.41-.38-3.66-.35l-1.35.13-1.22-.13-.35.26-.13,1.04.26,2.09c.06,1.04.19,2.03.39,2.96v.3c-.2.73-.58,1.41-1.13,2.05ZM20.33,23.24l-.09-1.13c-.41-.12-.81-.16-1.22-.13l-.61.04-.7-.04c-1.22.09-2.45.22-3.7.39-1.22.03-2.25.22-3.09.57l-.61,1,.44.13c1.65-.35,3.37-.59,5.14-.74.55.12,1.13.16,1.74.13.9-.12,1.8-.19,2.7-.22ZM27.51,15.32c.17-.87.42-1.73.74-2.57-.41-.12-.84-.17-1.31-.17l-2.57-.09c-.87.49-1.74,1.03-2.61,1.61l.78.83,1-.09c1.25.23,2.57.39,3.96.48ZM30.42,21.15l.13-.65-.17-.65c-2.41-.46-4.86-.8-7.36-1l-.57.44-.13.57c2.7.32,5.4.75,8.1,1.31Z"/>
    <path d="M72.47,32.16c-.55,0-1.29-.04-2.22-.13-2.09-.17-3.26-.25-3.53-.22-1.97-.23-4.67-.89-8.1-1.96-.76-.96-1.1-2.06-1.04-3.31.2-.52.41-1.03.61-1.52l1-.96c.67-2.26,1.07-4.03,1.22-5.31-1.63-.32-3.28-.42-4.96-.3-2.58.35-5.06.91-7.44,1.7l-.61.52-.57.26-.44.83-1,.87-.78-.22-.3-.48-.39-.26c-.06-.49-.13-.96-.22-1.39l.17-1.04c.12-.49.39-.9.83-1.22.9-1.45,2.15-2.48,3.74-3.09.41.23.72.54.96.91,1.07-.12,2.34-.23,3.79-.35.9-.15,1.74-.26,2.52-.35,1.74-.09,3.47-.13,5.18-.13.23-.38.44-1.13.61-2.26-.38-.75-.58-1.57-.61-2.44-.12-.32-.17-.62-.17-.91l.57-.22c.15-.23.25-.49.3-.78.64-.52,1.41-.78,2.31-.78.41.23.9.55,1.48.96l.04.61c-.15.35-.22.71-.22,1.09l-.39,1.13.04.78c-.15,1.22-.32,2.16-.52,2.83,4.76.17,9.47,1.02,14.15,2.52l1.22.04c1.42-.38,3.58-1.07,6.49-2.09l-.26.96c-.15.46-.48.91-1,1.35-.32.15-.8.45-1.44.91-.46.52-.93.94-1.39,1.26-.46.38-.77.7-.91.96l-1.57,1.48c-.32.17-.68.07-1.09-.3-4.7-1.89-9.6-2.93-14.71-3.13-.64,2-1.16,4.22-1.57,6.66l.26.3,1.83.78c.55.23,4.09.75,10.62,1.57l1.65.7c-.12.35-.32.58-.61.7-.58.12-1.02.48-1.31,1.09l-.35.3-.39.7c-.44.2-.93.33-1.48.39Z"/>
    <path d="M107.68,33.43l-.7-.91c-.46-.64-.78-1.41-.96-2.31l-.04-2.87-.04-5.4-.3-.17c-1.02.09-2.25.25-3.7.48-1.45.23-2.58.52-3.39.87-.81.35-2.16.67-4.05.98-1.89.3-3.7.83-5.44,1.59l-.52-.09-.7-1.31c-.06-.93.55-1.88,1.83-2.85,1.28-.97,2.05-1.25,2.31-.85,1.25-.32,2.89-.62,4.92-.91,2.03-.29,5.05-.61,9.05-.96l.22-.65c-.03-.49-.04-1.32-.02-2.48.01-1.16.01-1.81,0-1.94-.02-.13-.11-.73-.28-1.81-.32-.38-.13-1.47.57-3.26l.57-.04.87-.13c.72.2,1.31.44,1.74.7.52.35.77,1.41.74,3.18l-.39.44c.09,2.18.06,4.19-.09,6.05,3.22.32,5.49.55,6.81.7,1.32.15,3.16.45,5.51.91l.87.09,2.48.65,1.09.39,2.92-.26,1.04-.26c.72-.12,1.65-.16,2.79-.13.06.52-.03,1.1-.26,1.74-.84.49-1.71,1.02-2.61,1.59-.9.57-2.32,1.23-4.27,1.98-1.13-.23-2.06-.55-2.79-.96-.73-.41-1.67-.78-2.83-1.13-1.16-.35-2.29-.63-3.39-.85-1.1-.22-2.17-.45-3.2-.7-1.03-.25-2.46-.52-4.29-.81-.17,3.51-.28,6.14-.3,7.88-.2,1.16-.78,2.44-1.74,3.83Z"/>
    <path d="M170.01,33.51c-4.82-2.44-9.34-4.02-13.58-4.74-.55-.12-.57-.07-.04.13-.35-.12-.7-.17-1.04-.17-1.36.12-2.73.13-4.09.04-1.36.09-2.71.2-4.05.35-2.03.12-3.9.33-5.61.65-1.22.2-2.32.55-3.31,1.04-.15.35-.39.61-.74.78l-.26.44c-.81.61-1.78.86-2.92.74l-.35-.48v-.57l.96-2c.32-.09.55-.28.7-.57l.35-.57c1.1-1.16,2.39-1.93,3.87-2.31.38-.41.83-.38,1.35.09l1-.09c1.57-.06,3.02-.07,4.35-.04,1.02-1.45,2.06-3.37,3.13-5.75l-1.04-.17c-1.36.12-2.7.28-4,.48-.49,0-.93-.2-1.31-.61l-.65-.52-.04-.39c.35-.44.74-1.02,1.18-1.74l.48-.22.44-.17c1.6-.49,3.28-.73,5.05-.7h1.09l.65.04c1.02-1.13,1.54-2.47,1.57-4l.48-.3c-.35-.23-.71-.38-1.09-.44l-1.78.17c-.26-.09-.54-.12-.83-.09l-.35.04-.35-.04c-.73.2-1.45.39-2.18.57-.32.17-.81.49-1.48.96-.38.17-.84.25-1.39.22-.32.12-.62.17-.91.17l-.65-.48c-.09-.29-.2-.57-.35-.83v-.44l.13-.39-.09-.3.48-.26c.29-.29.54-.64.74-1.04,2.18-1.16,4.28-1.78,6.31-1.87l1.83-.13,6.14.3c1.97.35,4.24,1,6.79,1.96v.44l.22.91-.3.57-.44.44c-.61.15-1.22.28-1.83.39-1.74-.26-3.51-.64-5.31-1.13l-.35.3c-.73,1.54-1.39,3.02-2,4.44,2.67.09,5.79.77,9.36,2.05l.04,1.48-.39,1.09c-.12.49-.35.74-.7.74l-.22.13c-.15.23-.36.25-.65.04l-.52.13-.22-.17-.57.48c-.15,1.02-.32,1.93-.52,2.74l.04.35-.22.74c2.38.32,5.6.96,9.66,1.92.52-.15,1.06-.23,1.61-.26,1.57-.09,3.03-.32,4.4-.7v.7c-.67.7-1.18,1.44-1.52,2.22-.52.32-1.18.68-1.96,1.09l-.39.48.04.44c-.49.55-1.1.96-1.83,1.22ZM157.69,26.24c.29-1.62.44-3.21.44-4.74-1.19-.64-1.96-.87-2.31-.7-.9-.15-1.89-.22-2.96-.22l-.48.44c-.87,2.18-1.67,3.84-2.39,5.01,1.65.12,3.58.09,5.79-.09-.03-.12.61-.01,1.92.3Z"/>
    <path d="M214.58,34.3c-.35-.12-.65-.32-.91-.61-3.63-.96-7.34-1.52-11.14-1.7l-1.83-.04c-.93-.12-1.81-.17-2.66-.17-.87-.03-1.76-.03-2.66,0-1.36.12-2.71.25-4.05.39-.49.23-.97.32-1.44.26-.38.29-.97.48-1.78.57-1.1-.03-2.07.07-2.92.3-.49.06-.89.26-1.18.61l-.83.22-1.26-.83-.17-.7c.12-.84.77-1.7,1.96-2.57.52-1.1.62-2.34.3-3.7.03-.87-.02-1.68-.13-2.44-.06-.81-.07-1.54-.04-2.18l-.26-7.05c-.44-1.04-.77-2.18-1-3.39l.09-.7c.41-.32.61-.65.61-1l1.09-.7.09-.35.48.04c3.54-.7,7.14-1.15,10.79-1.35l.35.09c2.2-.23,4.44-.38,6.7-.44h.91c4.61.12,8.92,1.18,12.93,3.18l.13.52-.13.39.13.44-.35.57-.35.13-.09.3.13.39-.52.3-.09.96c.15.52.25,1.04.3,1.57l-.09.3c.17,1.19.35,2.36.52,3.53l-.04.78v.65c.15.55.19,1.12.13,1.7l-.13.35c.06.55.1,1.1.13,1.65l-.04,1.09c.12.52.16,1.09.13,1.7-.2.32-.3.68-.3,1.09l-.13.78.13.44-.04.3c-.06.29.07.52.39.7l.44.57-.3.87-.3.17.13.74c-.17.23-.29.46-.35.7-.46.29-.96.48-1.48.57ZM212.84,29.38c.15-.23.22-.52.22-.87,0-.7-.03-1.38-.09-2.05.12-.38.19-.74.22-1.09.12-2.29.03-4.56-.26-6.79l.22-.48v-2.22c-.2-.64-.38-1.31-.52-2l.13-.39-.17-.61.17-.44c-2.64-.75-5.35-1.29-8.14-1.61l-.39.04-1.87-.22c-3.25.03-6.4.3-9.44.83h-.61l-2.79.22c-.84.2-1.52.38-2.05.52-.35.29-.57.59-.65.91.06.46.1.94.13,1.44-.09,1.07-.15,2.03-.17,2.87.09.67.12,1.36.09,2.09l-.09.48c.2,1.86.13,3.54-.22,5.05l.17.48c.15,1.22.2,2.38.17,3.48.35.09.71.13,1.09.13l2.05-.09c2.32-.49,4.76-.77,7.31-.83,1.54-.09,3.05-.12,4.53-.09,3.74.12,7.4.52,10.97,1.22ZM192.42,24.55l-1.22-.17c-.2-.26-.33-.57-.39-.91.03-.29.1-.54.22-.74l-.04-.3c.15-.38.33-.73.57-1.04.26-.23.55-.39.87-.48l.09-.35.44-.22c.17-.23.26-.54.26-.91v-1.18l-.13-.22c-.32,0-.59-.13-.83-.39l-.13-.61c.09-.55.2-1.02.35-1.39l.3-.7.39-.04.09-.39.39.04.48-.65.48-.09c.87.23,1.81.33,2.83.3,1.48-.2,2.83-.35,4.05-.44,2.23-.06,4.25.41,6.05,1.39l.13.61-.13.57.13.61c-.2.38-.32.73-.35,1.04l.17,2.31c-.09.49-.02.87.22,1.13l.87.39.09.48.04.57-.35.35c-.15.26-.3.55-.48.87l-.65.09-.44-.09c-.32-.17-.62-.32-.91-.44-1.22-.12-2.44-.25-3.66-.39-.61.12-.9.17-.87.17-2.29.15-4.59.52-6.88,1.13l-.83-.09c-.41.12-.81.17-1.22.17ZM205.13,20.45c.06-.23.12-.52.17-.87.06-.75-.12-1.42-.52-2-.93-.17-1.89-.28-2.87-.3l-.39.09-.52-.09c.23.15.07.2-.48.17l-.39-.09c-1.31.29-2.81.38-4.53.26l-.17.44.09,1.04c-.2.38-.3.75-.3,1.13.15.15.35.17.61.09,2.29-.15,4.41-.2,6.35-.17.93.12,1.92.22,2.96.3Z"/>
    <path d="M224.72,19.15c-.99-.2-1.89-.52-2.7-.96l-.48-.39-.52-.3-.13-.74.22-.52.17-1.65.35-.09.13-.35c.93.17,1.8.41,2.61.7.84-.46,1.73-.81,2.66-1.04,1.13-1.1,2.15-2.25,3.05-3.44.23-.64.52-1.25.87-1.83l1-.39.35.17c.55.58.86,1.28.91,2.09l.22.3c.9-.2,1.89-.28,2.96-.22,1.8-.06,3.38.38,4.74,1.31.29.49.49.99.61,1.48l-.78.61-.96.09-.39-.13-.87.13-.83-.13c-.73.12-1.45.2-2.18.26.09,1.02-.03,1.94-.35,2.79l.09.48c-.26.44-.48.91-.65,1.44-.2.26-.49.35-.87.26l-.44-.48c-.15-1.42-.29-2.83-.44-4.22h-.65c-.44.15-.86.28-1.26.39l-.78,1.35c-.7.61-1.33,1.23-1.92,1.87-1.28.35-2.52.74-3.74,1.18ZM225.33,33.56l-.74-.39c-.15-.73-.17-1.47-.09-2.22.17-.73.46-1.38.87-1.96,2.23-1.07,4.6-1.68,7.09-1.83.29-1.07.39-2.22.3-3.44l-1-.17c-1.54.15-3.06.44-4.57.87-.29-.12-.57-.26-.83-.44l-.3-.91c.2-.23.26-.49.17-.78l.39-.7c.03-.26.1-.52.22-.78l.52.09.39-.44c1.02-.06,1.92-.28,2.7-.65.17.17.51.24,1,.2.49-.04,1.15-.11,1.96-.2h.83c2.09,0,3.98.44,5.66,1.31l.17.52c-.15.55-.39,1.07-.74,1.57-.58.35-1.29.49-2.13.44-.52-.03-1.03-.1-1.52-.22h-1.13c-.2.38-.26.84-.17,1.39l.04,1.18.13.52.52.09c1.45,0,2.73.22,3.83.65l.04,1c-.55.78-1.26,1.39-2.13,1.83-4,.73-7.83,1.89-11.49,3.48ZM260.41,36.25c-4.29-.78-8.37-2.22-12.23-4.31l-.87-.61c-.32-.49-.48-1.04-.48-1.65.26-.49.48-1.02.65-1.57-.61-.03-1.13-.29-1.57-.78l-.78-1.09c-.87,2.18-1.93,4.19-3.18,6.05-.38.64-.78,1.22-1.22,1.74-.81.23-1.6.49-2.35.78l-.57-.04c-.38.26-.77.39-1.18.39l-1.13-.39c-.29-.73-.41-1.51-.35-2.35-.03-.35.09-.61.35-.78l.3-.17.3-.65.35-.04c.23.15.49.22.78.22.26-.12.57-.17.91-.17l.39.04c.52-.12,1.02-.33,1.48-.65,1.51-1.94,2.51-4.11,3-6.49-.32-.46-.48-.99-.48-1.57,0-.87.28-1.64.83-2.31.9-.2,1.84-.33,2.83-.39h.57c1.83-.15,3.44.19,4.83,1l.09.35-.09.39c-.84,2.55-1.6,5.16-2.26,7.83,3.28,1.04,6.64,1.81,10.1,2.31h.78l3.22-.7.35.22.09.44-.48,1.09c-.49.17-.91.46-1.26.87l-.04.48-.7.83.17.61c-.38.44-.77.8-1.18,1.09ZM251.01,18.54c-.26-.29-.39-.59-.39-.91l.13-1.09c-.06-.64-.19-1.26-.39-1.87l-2.52-.26c-.67.12-1.31.28-1.92.48-.35.35-.62.75-.83,1.22-.58.64-1.26,1-2.05,1.09l-1.09-.7c-.23-.44-.38-.89-.44-1.35l.35-1.04c.64-.52,1.23-1.02,1.78-1.48l.39-.78c.75-.41,1.32-1.02,1.7-1.83.38-.52.57-1.12.57-1.78-.17-.17-.25-.41-.22-.7.38-.67.97-1.12,1.78-1.35.58.03,1.07.22,1.48.57.2.64.29,1.32.26,2.05-.35.44-.54.96-.57,1.57.38.12.78.17,1.22.17,3.63-.17,6.91.51,9.84,2.05.35.35.52.78.52,1.31l-.13.44-.04.78c-.46.29-.96.45-1.48.48-1.31-.32-2.68-.57-4.13-.74-.7-.06-1.35-.1-1.96-.13l-.3.57.13.74-.13,1c0,.49-.16.89-.48,1.18-.35.23-.71.35-1.09.35ZM248.18,25.72c.26-.61.44-1.23.52-1.87l-.39-.13c-1.07.12-2.07.3-3,.57-.15.29-.2.61-.17.96.46-.15.89-.22,1.26-.22.61.2,1.2.44,1.78.7Z"/>
    <path d="M267.59,34.51l-.35-.13c-.12-.2-.26-.39-.44-.57l-.13-.83c.84-1.57,1.42-3.24,1.74-5.01-.2-.44-.45-.86-.74-1.26.2-.17.29-.38.26-.61l.26-.39.3-.39.39-.13.7-.35c.38.2.81.38,1.31.52l.26.57.26,1.22-.26,1,.09.48c-.09,1.57-.67,2.96-1.74,4.18l-.35.35c-.2.32-.45.59-.74.83l-.39.22-.44.3ZM283.57,32.99l-.39-.17-.04-.61c.67-2.09,1.13-4.24,1.39-6.44-.12-.15-.29-.2-.52-.17-1.89-.26-3.69-.58-5.4-.96-1.36-.06-2.7.01-4,.22-.44.09-.89.15-1.35.17l-.48.04c-.52-.35-.76-.75-.7-1.22.35-3.63.26-7.23-.26-10.79l-.74-.48c-.09-.41-.2-.77-.35-1.09l-.26-1.04c.26-.23.42-.49.48-.78,2.99-.61,6.03-.93,9.14-.96l1.18.22.57-.09c2.23.2,4.32.68,6.27,1.44.26.29.45.61.57.96l-.35.39c0,.46-.17.86-.52,1.18l-.35.13-.78.35c-.41-.12-.81-.22-1.22-.3l-.48.09c-.58-.17-1.18-.29-1.78-.35l-.78-.13-.52.04-.44-.13-.3.17-.13.44.17.57c1.6.15,3.03.51,4.31,1.09.17.17.26.39.26.65-.17.17-.28.39-.3.65l-.48.26c-.06.2-.25.32-.57.35-.2.29-.46.45-.78.48h-1.35l-.39-.09-.48.22-.17.96c1.8.26,3.47.73,5.01,1.39l.44.57c-.09.46-.33.86-.74,1.18l-.65.17h-.52c-1.04-.41-2.16-.68-3.35-.83-.23.44-.42.89-.57,1.35,2,.35,3.89.87,5.66,1.57l.09.3-.04.3c.12.26.16.57.13.91l-.35.91c-.15,1.04-.3,2.05-.48,3-.2,1.28-.65,2.47-1.35,3.57l-.91.35ZM273.6,32.47c-.29,0-.54-.07-.74-.22-.49-.52-.67-1.15-.52-1.87.35-.9.54-1.87.57-2.92l-.26-.57v-.57c.29-.23.55-.32.78-.26.2-.2.46-.3.78-.3l.78.35.22.74.09.39c-.12.2-.16.44-.13.7.03,1.62-.2,3.06-.7,4.31l-.87.22ZM278.69,21.93c.12-.38.15-.77.09-1.18l-.44-.13c-1.04.17-2.06.36-3.05.57-.17.2-.42.32-.74.35-.26.15-.38.3-.35.48.29.2.62.29,1,.26l.44-.13c1.1-.06,2.12-.13,3.05-.22ZM278.6,13.53c.17-.2.23-.42.17-.65l-.22-.3-.52-.09c-1.1.2-2.18.44-3.22.7l-.17.7.3.13c1.16-.2,2.38-.36,3.66-.48ZM278.56,18.54l.17-.3-.17-.91-.52-.09c-1.1.26-2.16.59-3.18,1l-.09.52.7.09c1.02-.12,2.05-.22,3.09-.3ZM278.08,31.25l-.44-.35c-.73-.96-1.07-1.97-1.04-3.05l.09-.3c-.32-.44-.55-.91-.7-1.44.38-.29.8-.57,1.26-.83h.44c.67.73,1.03,1.57,1.09,2.52l-.04.35.13,2.48-.78.61ZM281.52,30.03l-1.09-.91c-.2-.32-.28-.71-.22-1.18.12-.46.32-.9.61-1.31l.52-.04.83.48c.29.29.44.65.44,1.09l-.04.48-.22.96-.83.44ZM288.27,27.51l-.44-.22c-.15-.67-.38-1.31-.7-1.92.46-.15.77-.42.91-.83l.35-.44c.26-2.06.78-4.02,1.57-5.88.32-.32.71-.54,1.18-.65.41.15.87.17,1.39.09l1.18-.04h1c2.29.03,4.42.39,6.4,1.09l.83,1.22v.52l-.44.83-.39.13-.04.57c.26.58.39,1.23.39,1.96,0,.46-.2.87-.61,1.22-.26.12-.52.19-.78.22l-.09.3-.39.09-.09.3c-.9.38-1.92.59-3.05.65h-.39c-.32.09-.65.1-1,.04h-.57c-.64-.03-1.23-.07-1.78-.13-1.31-.12-2.44.12-3.39.7l-.57.17h-.48ZM295.45,33.99c-.76,0-1.52-.06-2.31-.17-.84-.12-1.61-.29-2.31-.52l.17-.78c3.71-.41,7.3-1.23,10.75-2.48,1.77-3.89,2.83-7.89,3.18-12.01-2.03-.78-4.15-1.35-6.35-1.7l-1.48.09c-.96-.23-1.96-.41-3-.52l-.39.04c-.32-.12-.64-.19-.96-.22l-.78.39c-.49.41-1.02.8-1.57,1.18-.52.15-1.07.25-1.65.3-.23-.2-.48-.36-.74-.48l-.13-.57c1.6-1.86,2.71-3.9,3.35-6.14-.35-.49-.61-1.03-.78-1.61l.17-.91c.78-.41,1.67-.61,2.66-.61l.65.3c.52,1.19.8,2.5.83,3.92l-.09.44c.41.17.87.25,1.39.22l.52-.13c4.27.29,8.24,1.23,11.93,2.83.2.2.28.46.22.78l-.04.26.17.44-.17.26c.26.26.42.52.48.78-.46.35-.89.74-1.26,1.18l-.44.04-.26.61.09.44-.17.57.04.7c-.58,4.24-1.89,8.28-3.92,12.14-.35,0-.62.09-.83.26-.44-.12-.87-.2-1.31-.26-.67.23-1.36.38-2.09.44-1.33.12-2.52.29-3.57.52ZM298.58,24.2l.04-.61-.44-2.35c-.93-.15-1.83-.3-2.7-.48h-1.78c-.64.12-1.29.17-1.96.17-.35.32-.54.73-.57,1.22l.04.3c-.06.41-.15.84-.26,1.31l.57.13c1.22-.03,2.45-.04,3.7-.04,1.13.06,2.25.17,3.35.35Z"/>
    <path d="M344.28,33.77c-5.14-2.73-9.29-5.5-12.45-8.31-.9.78-1.99,1.68-3.26,2.7-.17.23-.58.49-1.22.78l-.3.26c-2.44,1.45-4.66,2.61-6.66,3.48h-.52c-.52.12-.89.3-1.09.57l-.96-.22-.3.04c-.99-.9-2.07-1.6-3.26-2.09-.49-.73-.83-1.09-1-1.09l-.44-.78-.39-1.04c.38-.09.62-.38.74-.87.2-.15.42-.09.65.17,2.06,1.22,4.32,1.58,6.79,1.09,3.02-.84,5.93-2.51,8.75-5.01-2.41-1.89-4.11-3-5.09-3.35-1.33-.35-1.86-1.15-1.57-2.39l.52-.09c3.05.64,5.83,1.83,8.36,3.57,1.89-1.54,3.08-3.6,3.57-6.18.35.03.72.06,1.13.09l.7.35.22,1.92c-.38,1.57-1.39,3.31-3.05,5.22,3.05,2.47,6.37,4.45,9.97,5.96.75.12,1.62.15,2.61.09l6.18-.74,1.83-.3-.52,1c-.23.64-1.1,1.44-2.61,2.39-.99.64-2.05,1.23-3.2,1.78-1.15.55-2.52.89-4.11,1ZM319.6,15.88l-.22-.13-.39.04c-.23,0-.39-.15-.46-.44-.07-.29-.11-.62-.11-1,.15-1.19.49-2.12,1.04-2.79,1.13-.7,2.02-1.32,2.66-1.87l.78.44.39-.09c2.87-.46,4.79-.71,5.75-.74l-.13-1,.35-1.04c0-.26.1-.52.3-.78l1.04-.61c.67.15,1.26.42,1.78.83.58,1.02.84,1.92.78,2.7l.65.26c.72-.12,1.96-.06,3.7.17,1.1-.23,3.05.33,5.83,1.7.15.23.22.51.22.83l-.3.39c-.41.41-.96.83-1.65,1.26-.58.7-1.32.62-2.22-.22-1.07-.23-3.03-.41-5.88-.52-2.06-.23-4-.22-5.83.04-2.55.23-4.8.64-6.75,1.22l-.35.96c-.41.06-.74.19-1,.39Z"/>
    <path d="M364.09,35.04l-.39-.26c-.35-.81-.49-1.7-.44-2.66l.17-1.57-.09-1.13.26-4.4c-.12-.61-.16-1.26-.13-1.96l.17-4.7-.13-.39-.39-.04c-.55.26-1.16.42-1.83.48l-1.74.09c-.52.15-1.02.17-1.48.09l-.39-.17-.39-.65-.87-.7v-.52c.2-.87.45-1.7.74-2.48l.57-.44.39.3.35-.61.35.22c.26.06.51.16.74.3l.3.35,1,.04c2.12-.35,3.92-1.45,5.4-3.31l.74-.83.78-.7c.93-.81,1.49-1.8,1.7-2.96l1.35-.13c.38.32.74.67,1.09,1.04l.04.39-.09.57-.35.17-.48,1.13-.26.83-.39.17c-.09.44-.28.84-.57,1.22-.49.32-.86.73-1.09,1.22-.67.9-1.35,1.77-2.05,2.61-.35.2-.62.48-.83.83l-.39.17c.61.73.97,1.41,1.09,2.05-.2.46-.29.96-.26,1.48-.03,1.92-.03,3.64,0,5.18.12.78.17,1.61.17,2.48-.03.75-.03,1.51,0,2.26-.17.46-.26.97-.26,1.52.12.26.15.57.09.91,0,.9-.39,1.65-1.18,2.26l-1.04.22ZM384.5,33.12c-3.48-.67-6.95-1.36-10.4-2.09-.67-1.28-1.02-2.7-1.04-4.27l.13-.35c.17-1.74.26-3.48.26-5.22.03-1.54-.06-2.73-.26-3.57.12-.23.15-.48.09-.74.06-1.89.09-3.79.09-5.7-.23-.38-.51-.71-.83-1l.39-.57.3-.26c.12-.26.23-.55.35-.87.23-.15.48-.23.74-.26.78.26,1.55.57,2.31.91.12.29.17.62.17,1-.15,1.6-.29,3.16-.44,4.7l.39.3c2.76-.87,5.32-2.13,7.7-3.79.09-.35.26-.65.52-.91.61-.26,1.23-.44,1.87-.52.32.12.62.25.91.39.67.41,1.23.96,1.7,1.65v.83l-.52,1c-.99.32-1.99.64-3,.96-3.08,1.36-6.17,2.64-9.27,3.83-.15,2.26-.16,4.35-.04,6.27-.17.44-.3.9-.39,1.39,1.92.81,3.98,1.31,6.18,1.48,2.87.44,5.75.3,8.62-.39l.74-.26c.67-.09,1.33-.32,2-.7,1.02-1.13,1.84-2.26,2.48-3.39l.74-.7.17.35c-.2,1.48-.54,2.93-1,4.35.09.49.16.97.22,1.44l-.83.61-.22.52c-.35.52-.54,1.19-.57,2-.44.23-.99.36-1.65.39l-.22.48c-2.23.58-4.57.81-7.01.7l-.74-.04-.65.04Z"/>
    <path d="M403.35,27.42c-.29-.23-.62-.38-1-.44-.76-1.02-1.03-1.96-.83-2.83.2-.87.77-1.33,1.7-1.39.52-.38,1.03-.32,1.52.17.15.32.39.54.74.65l.7-.48c1.62-1.42,3.08-2.95,4.35-4.57-1.04-.35-1.97-.9-2.79-1.65-.35-.32-.52-.68-.52-1.09l.39-.44,1.18-.09c1.13.29,2.2.74,3.22,1.35.58-.49.99-1.06,1.22-1.7-.81-.35-1.54-.84-2.18-1.48l-.44-.44c-1.6,1.07-3.26,1.78-5.01,2.13-.49-.26-1-.51-1.52-.74l-.09-.57c.7-.67,1.46-1.26,2.31-1.78.41.06.77-.06,1.09-.35l.65-.65c.9-.7,1.83-1.32,2.79-1.87.61-.67,1.28-1.28,2-1.83.44-.44.93-1.09,1.48-1.96.46-.26.96-.42,1.48-.48l.7.39.26,1.65c1.94.06,3.74.41,5.4,1.04.26.26.39.55.39.87l-.39.74c-.46.12-.89.32-1.26.61l-.17.3c-.49.32-.9.7-1.22,1.13l-.13.3c-1.16,1.39-2.23,2.84-3.22,4.35-.17.23-.26.51-.26.83.41-.29.67-.59.78-.91l.35-.09.57.04c.32-.06.67-.12,1.04-.17,2.2.15,4.44.19,6.7.13.93.03,1.84.12,2.74.26-1.16-1.45-2.5-2.58-4-3.39-1.16-.44-2.25-1.06-3.26-1.87l.04-.52,1.48-.22.35.04.04-.35.44-.09.26.22c.55-.06,1.04.04,1.48.3l.35.48c.96.46,1.93.9,2.92,1.31,1.07-.67,1.96-1.44,2.66-2.31l-.26-.3h-.7c-.81,0-1.51.15-2.09.44-.49-.03-.93-.22-1.31-.57l-.17-.87c0-.64.19-1.16.57-1.57.9-.23,1.84-.29,2.83-.17.32.03.67.06,1.04.09,1.42.12,2.7.44,3.83.96.12.46.19.93.22,1.39l-.39.39c-.44-.03-.78.07-1.04.3-.61.96-1.35,1.83-2.22,2.61l-.3.3-.83.52c3.63,3.51,7.97,5.53,13.01,6.05-.17.23-.28.58-.3,1.04l-.87.7c-1.51.41-3.09.89-4.74,1.44l-.35.09c-.29-.17-.62-.26-1-.26-1.86-1.74-3.82-3.41-5.88-5.01-.35.41-.54.84-.57,1.31-.76.44-1.63.64-2.61.61-2-.09-3.99-.07-5.96.04-1.71.2-3.31.45-4.79.74l-.7-.61-.09-.52.17-.78-.26-.3c-2.23,3.71-5.22,6.79-8.97,9.23l-1.22-.22-1.52.35ZM410.14,33.29c-.03-.23.06-.42.26-.57.64-.29,1.23-.67,1.78-1.13.99-1.04,1.8-2.13,2.44-3.26l-.22-.39c.17-.35.44-.7.78-1.04l.7-.7,1.18-.04h.52l.39.17c.26.29.41.65.44,1.09.12.87-.19,1.6-.91,2.18-.32.17-.57.42-.74.74l-.39.52c-.87,1.07-1.92,2.06-3.13,2.96-.55.41-1.12.7-1.7.87-.99.06-1.45-.41-1.39-1.39ZM421.84,35.56c-.2-.17-.45-.28-.74-.3-.03-2.41-.04-4.85-.04-7.31.12-1.25-.16-2.29-.83-3.13h-.39c-2.21.2-4.28.68-6.22,1.44l-.7-.26c-.26-.29-.39-.62-.39-1l.3-.57c0-.58.16-1.07.48-1.48l.26-.3.26-.44c3.19-.78,6.53-1.19,10.01-1.22h.44c3.1.06,6.06.64,8.88,1.74.26.44.38.96.35,1.57l-.35.13-1.13.87-.61.04c-1.63-.35-3.25-.62-4.87-.83l-.83.09-2-.13-.13.39.3,1.35c0,.78.04,1.45.13,2-.03,1.13-.03,2.25,0,3.35,0,1.1-.2,2.15-.61,3.13l-.48.26c-.23.23-.59.44-1.09.61ZM415.01,12.88c.84-1.07,1.71-2.16,2.61-3.26-.78-.12-1.58-.2-2.39-.26-.9.61-1.73,1.33-2.48,2.18.61.41,1.23.81,1.87,1.22l.39.13ZM425.89,26.85l-.17-.44c.2-.15.42-.26.65-.35.41.15.81.17,1.22.09,1.02.52,1.96,1.12,2.83,1.78l1.18,1.04.22.26c.9.61,1.46,1.28,1.7,2.02.23.74.19,1.23-.13,1.46l-.44-.09h-.44c-.55.06-1.35-.41-2.39-1.39s-2.45-2.45-4.22-4.4Z"/>
  </g>
  <path d="M79.95,101.78l-.87-.75c-1.04-.08-2.05-.35-3.02-.81l-.52-1.1c.77-1.04,1.62-2.05,2.55-3.02l.75-.12.81.12.64-.06c.89.08,1.74.27,2.55.58.5-.08.93-.31,1.28-.7,1.86-2.44,2.8-5.2,2.84-8.3l-.52-.17-.7.17h-.87l-.64-.64-.23-.64.17-.46c.04-.5.06-.91.06-1.22.35-.19.64-.44.87-.75.43-.15.77-.31,1.04-.46l.58-.7,1.45-.64,1.28.12c.7.15,1.31.19,1.86.12,3.83-.54,7.76-.93,11.78-1.16h1.04c2.09-.08,4.08-.17,5.98-.29l.64.06h3.31c5.26.35,10.33,1.45,15.2,3.31.39.31.62.72.7,1.22-.23.35-.44.7-.64,1.04l-.58.46.46,2.38.29,2.09-.17.52.17,1.22c.04.58.08,1.1.12,1.57.04.7.08,1.37.12,2.03-.27,1.08-.66,2.13-1.16,3.13-.43.39-.95.58-1.57.58-.35-.23-.75-.41-1.22-.52-.27-.74-.37-1.55-.29-2.44.46-3.64.27-7.23-.58-10.79-3.02-.77-6.13-1.35-9.34-1.74l-4.24-.23-.58.17c-.77-.19-1.64-.27-2.61-.23-2.28.23-4.58.31-6.91.23-1.01,0-1.88.1-2.61.29-1.35.08-2.53.21-3.54.41l-.93-.06c-1.51.08-2.94.44-4.29,1.1.08,1.2.04,2.4-.12,3.6-.35,3.17-1.41,6.15-3.19,8.94-.54.35-1.01.74-1.39,1.16l-1.22.23-.52-.06c-.5.31-1.01.52-1.51.64l-.58.35-1.39.23ZM83.9,74.27l-.87-.12-.7-.35-.35-1.97c.31-.62.64-1.26.99-1.92l.46-.23.23-.64c1.51-.7,2.98-1.32,4.41-1.86l.7-.12c.31.27.72.37,1.22.29,4.26-.81,8.63-1.33,13.12-1.57l.06-.58-.46-.81c.27-.46.58-.91.93-1.33.81-.62,1.76-.93,2.84-.93l1.22.64c.31.46.46,1.01.46,1.62-.23.31-.33.64-.29.99,7.81.5,15.24,1.9,22.28,4.18l.23.7-.58.87c-.66.46-1.39.75-2.21.87-.54.12-1.01.15-1.39.12h-.7c-3.37-.74-6.83-1.26-10.39-1.57-1.39-.12-2.73-.23-4-.35l-1.51-.06c-.77-.04-1.41-.1-1.92-.17l-4.93.12c-1.32.19-2.67.35-4.06.46-2.52.15-4.82.44-6.91.87-1.62.27-3.08.74-4.35,1.39-1.16.77-2.34,1.26-3.54,1.45ZM93.53,81.06l-.99-.41v-.58l-.12-.46c.77-.89,1.22-1.9,1.33-3.02l-.93-.58c-.15-.27-.21-.58-.17-.93l.41-1.1.46-.23.29-.64.52-.17c.19-.35.29-.68.29-.99,1.01,0,1.97-.12,2.9-.35l3.08-.23c.89-.08,1.72-.12,2.5-.12,1.28-.15,2.51-.23,3.71-.23.85.15,1.72.17,2.61.06,3.6.15,7.04.79,10.33,1.92l.81.99c-.35.31-.56.62-.64.93l-.41.35c-.23,1.12-.54,2.19-.93,3.19l.23.52v.64c-.12.27-.85.5-2.21.7l-2.61-.35c-.89,0-1.66-.08-2.32-.23l-.7.06c-.74-.27-1.59-.37-2.55-.29-1.51,0-3.02-.02-4.53-.06-.97.08-1.92.17-2.84.29-.85.15-1.59.31-2.21.46l-1.1-.12h-.52c-1.24.31-2.48.64-3.71.99ZM94.93,98.47l-1.33-1.22c-.12-.43-.27-.83-.46-1.22.27-.23.43-.5.46-.81.5-.15.89-.43,1.16-.81l.87-.12c.31-.89.43-1.84.35-2.84l-.64-.46-1.51.29c-.31-.27-.44-.58-.41-.93l.12-.7.93-.52c.19-.5.48-.95.87-1.33.43-.35.89-.62,1.39-.81l.35-.29,1.1.12c2.55-.31,5.18-.56,7.89-.75l.58.06.46-.06c4.72.19,9.21,1.03,13.46,2.5.35.31.48.68.41,1.1l-.41.23-.17.46c.39.89.58,1.86.58,2.9l-.41,1.57c.54.46.79,1.1.75,1.92l-1.28,1.04c-.85.27-1.78.41-2.79.41h-.75l-.52-.12c-1.47-.27-2.88-.41-4.24-.41l-1.16-.12-.58.12-.58-.12-1.33.17c-.62-.12-1.28-.17-1.97-.17-1.16.31-2.42.44-3.77.41l-.75-.06-3.83.35c-1.08-.04-2.03.04-2.84.23ZM116.28,77.64l.06-.46-.35-1.8c-1.47-.43-3.02-.66-4.64-.7-1.82-.08-3.62-.1-5.4-.06-1.24.19-2.53.33-3.89.41l-.75.06-2.67.29c-.66.04-1.22.19-1.68.46-.23.54-.35,1.1-.35,1.68l.7.23c2.48-.43,5.05-.7,7.72-.81h4.47l6.79.7ZM117.79,94.29l-.17-2.15-.52-1.33c-1.7-.46-3.5-.75-5.4-.87-1.55-.31-3.08-.46-4.58-.46h-.99c-2.09.15-4.2.35-6.33.58l-.93-.06-.46.29c.15,1.16.12,2.34-.12,3.54.31.12.68.15,1.1.12,1.08-.04,2.13-.15,3.13-.35,1.97-.12,3.87-.21,5.69-.29l.81.17,1.22-.06c2.55.12,5.07.41,7.54.87Z"/>
  <path d="M138.05,97.37c-.54-.66-1.01-1.37-1.39-2.15l.12-.58-.12-.64c.31-.43.41-.93.29-1.51.39-.81.81-1.53,1.28-2.15,2.55-1.7,5.36-2.71,8.41-3.02,1.62-.15,3.15-.37,4.58-.64,2.28-.31,4.56-.48,6.85-.52l.52.06,4.93-.12c6.27-.08,12.26,1.04,17.99,3.37,2.98-.19,6.25-.95,9.81-2.26l-.35.58.12.81-1.68,1.22c-.04.39-.25.72-.64.99l-.75.46-.58.58c-1.16.54-2.28,1.18-3.37,1.92l-.29.7-.52.06-.46.23c-.62.62-1.3.97-2.03,1.04h-.58c-6.5-3.79-13.62-5.71-21.36-5.75-1.59,0-3.1.15-4.53.46-4.57.23-8.71,1.33-12.42,3.31-.66.74-1.12,1.55-1.39,2.44l-.52.46-1.92.64ZM149.3,72.94c-.46-.19-.91-.37-1.33-.52-.62-.7-.89-1.55-.81-2.55.35-.46.62-.91.81-1.33,1.9-1.04,3.91-1.8,6.04-2.26.5.27,1.06.39,1.68.35,1.97-.27,3.95-.5,5.92-.7l2.03.06.81-.06c4.68-.19,9.21.74,13.58,2.79-.19.31-.33.68-.41,1.1l-.23.7-.93,1.1-1.16.17c-3.02-.35-6.04-.66-9.05-.93l-.52.17c-1.08-.27-2.15-.27-3.19,0-4.06,0-7.8.64-11.2,1.92l-.64-.23-.75.06-.64.17ZM150.52,83.56c-.7-.12-1.32-.43-1.86-.93-.46-.35-.85-.75-1.16-1.22v-.99c.12-1.04.37-2.03.75-2.96,1.66-.54,3.39-.89,5.16-1.04.66-.08,1.31-.06,1.97.06,2.75-.12,5.44-.31,8.07-.58,4.49-.04,8.98.85,13.46,2.67.35.54,0,1.18-1.04,1.92l-.64.06.12.7-1.04.81c-.89.04-1.7-.04-2.44-.23-1.55-.43-3.44-.74-5.69-.93l-.7.12-2.26-.17c-1.7.19-3.42.37-5.16.52l-.52-.12-2.21.06c-1.35.15-2.59.75-3.71,1.8-.15.23-.39.31-.7.23l-.41.23Z"/>
  <path d="M209.54,102.24l-.41-.23c-.7-1.08-1.12-2.24-1.28-3.48.08-1.2.21-2.42.41-3.66.23-1.97.41-4.28.52-6.91l-.75-.29c-.62.23-1.16.6-1.62,1.1-1.04.46-2.07,1.03-3.08,1.68l-.93,1.04-.12.46-1.04.17-.46-.12c-.35.19-.75.29-1.22.29l-.7-.29c-.46-1.01-.81-2.05-1.04-3.13.15-.62.25-1.24.29-1.86l-.12-.46.17-.52c3.56-1.66,7.25-2.96,11.08-3.89.23-.81.35-1.86.35-3.13-.08-1.32-.1-2.63-.06-3.95l-.23-.41-1.16-.06-1.51.06c-1.08,0-1.99-.12-2.73-.35-.77,1.55-1.88,2.88-3.31,4-1.32.19-2.59.43-3.83.7-.35-.27-.6-.6-.75-.99l-.17-.87.64-.35c.23-.66.6-1.28,1.1-1.86.66-.35,1.26-.81,1.8-1.39l.41-.46c1.2-1.62,1.8-3.73,1.8-6.33l.46-1.1,1.16-.7.7.06,1.22.87.06,1.1c.43,1.08.66,1.86.7,2.32.62.19,1.31.27,2.09.23l2.03-.23c.04-1.7.14-4.1.29-7.2l1.22-.99c.73.89,1.14,2.36,1.22,4.41l.06,1.57v1.97c1.82,0,3.46.52,4.93,1.57l.23.75-.17.52.06.29c3.87-1.16,7.89-1.95,12.07-2.38l.23-1.22c-.35-.27-.77-.35-1.28-.23-1.9.19-3.79.52-5.69.99l-.41-.23c-.15-.46-.23-.97-.23-1.51.08-1.04.48-1.97,1.22-2.79.43,0,.85-.14,1.28-.41,1.66-.43,3.33-.7,4.99-.81,0-.66.17-1.24.52-1.74.35-.39.77-.66,1.28-.81.54.7.91,1.47,1.1,2.32,3.75.04,7.23.89,10.45,2.55.31.58.52,1.16.64,1.74l-.23.46c-1.62.58-3.29.68-4.99.29-1.01-.15-2.05-.31-3.13-.46l-.81-.06-1.68.29c-.35.46-.52,1.01-.52,1.62l.52.29c3.64-.23,7.25.02,10.85.75,1.86.31,3.56.81,5.11,1.51.19.39.27.81.23,1.28-.23.31-.52.54-.87.7l-.87.06-.64.12c-1.62-.15-3.25-.37-4.87-.64l-.7.17c-.85-.27-1.72-.43-2.61-.46-3.29-.19-6.58-.29-9.87-.29-4.02.04-7.74,1.06-11.14,3.08-.58-.04-1.03-.27-1.33-.7l-.06-.64c.19-.62.44-1.22.75-1.8-1.39.66-2.86,1.08-4.41,1.28-.27.54-.41,1.14-.41,1.8-.19,1.12-.29,2.15-.29,3.08s.04,1.62.12,2.09l1.22.06.93-.12c.5.31.89.72,1.16,1.22l.06.64c-.74,1.39-1.86,2.36-3.37,2.9-.27.35-.39.77-.35,1.28-.23,2.55-.29,4.72-.17,6.5-.19.5-.27,1.08-.23,1.74l.12.52-.17.58.17.75c-.39,1.12-.48,2.26-.29,3.42-.27.31-.46.66-.58,1.04l-1.1.17ZM224.81,100.5c-.5-.12-.95-.35-1.33-.7l.06-1.04c4.68-1.82,8.92-4.39,12.71-7.72.89-.77,1.31-1.74,1.28-2.9l-.23-2.21-.41-4.7c-.85,0-1.59-.04-2.21-.12-2.52.19-5.01.21-7.49.06-1.24.15-2.46.37-3.66.64-1.16.08-2.17.29-3.02.64-.62.77-1.28,1.18-1.97,1.22-.31-.08-.52-.27-.64-.58-.23-.66-.33-1.37-.29-2.15.15-1.08.48-2.09.99-3.02,2.63-.81,5.36-1.37,8.18-1.68,3.44.04,6.89.12,10.33.23l.75-1.28,1.16.12.87,1.62c3.13.62,6.75,1.59,10.85,2.9l-1.74,1.57c0,.46-.21.85-.64,1.16h-.99c-.66.08-1.32.21-1.97.41l-1.33-.17c-1.35-.39-2.52-.72-3.48-.99.08,4.02-.02,6.46-.29,7.31l.17.46c.15,1.78-.74,3.31-2.67,4.58-4.22,2.71-8.55,4.82-13,6.33ZM230.38,92.09c-.74-.12-1.41-.43-2.03-.93-.77-1.55-1.41-3.15-1.92-4.82.19-.74.23-1.49.12-2.26l.81-.64c.97.19,1.82.58,2.55,1.16.89.97,1.47,2.05,1.74,3.25-.15,1.55-.58,2.96-1.28,4.24Z"/>
  <path d="M267.92,100.56l-.81-.7c-.15-.54-.25-1.08-.29-1.62.08-.46.27-.83.58-1.1,3.21-3.17,5.96-6.6,8.24-10.27.54-.77.89-1.55,1.04-2.32-1.16-.31-2.4-.58-3.71-.81l-.64.52c-.7,1.01-1.51,2.01-2.44,3.02-2.21,1.74-4.49,3.39-6.85,4.93-.46.35-.95.62-1.45.81-.31-.35-.68-.52-1.1-.52-1.59-.89-3.15-1.72-4.7-2.5-.31-.89-.66-1.74-1.04-2.55l.35-1.22.23-1.28c.73-.23,1.43-.43,2.09-.58,1.55,1.08,3.23,1.84,5.05,2.26,2.75-1.47,5.15-3.37,7.2-5.69.23-.74.54-1.47.93-2.21.23-.39.54-.5.93-.35.43-.27.77-.6,1.04-.99l.12-.29-.41-.12-2.55.35-1.57-.06c-1.24-.08-2.28.25-3.13.99l-.81.46c-1.01-.89-1.51-1.92-1.51-3.08.15-.7.43-1.37.81-2.03l.58-.23c.23-.89.35-1.82.35-2.79-.23-.46-.43-1.03-.58-1.68l.17-.58-.12-.7c.23-.93.56-1.82.99-2.67,2.01-.81,4.22-1.18,6.62-1.1l.7.06,1.51-.12c1.55-.23,3.06-.35,4.53-.35l.52.12.7-.06c2.17.12,4.12.74,5.86,1.86.39.58.62,1.24.7,1.97l-.64,1.04-.81.58v.46l.23,1.68c0,1.51-.48,2.84-1.45,4l.17.41-.64.81c-.93.43-1.9.74-2.9.93h-.52c-1.16-.19-2.34-.31-3.54-.35l-.7,1.28c2.36.39,4.53,1.16,6.5,2.32.23.35.33.79.29,1.33l-.23.29.29.7-.46.35.12.87-.41.46h-.52c-.46.27-.85.6-1.16.99-2.4,5.07-5.61,9.75-9.63,14.04-.7.39-1.39.72-2.09.99ZM281.21,72.65l.23-2.96c-1.97-.66-4.04-1.01-6.21-1.04-.97.27-1.95.46-2.96.58l-3.19-.06-1.45.35c-.19.85-.33,1.74-.41,2.67l.29.35.93.12c1.12-.15,2.28-.27,3.48-.35l.75.12c1.62-.19,3.31-.27,5.05-.23,1.2.08,2.36.23,3.48.46ZM285.86,83.73l-.58-.17-.29-.64-.46-2.09c.43-.89.73-1.82.93-2.79l.75-.17.35-.58.93-.17.52-.64c.46.43.85.79,1.16,1.1l.46.23c1.28-1.08,2.79-1.66,4.53-1.74l.52.23c.04.81-.08,1.39-.35,1.74l-.58.29-.06.52-.75.29-1.68,1.62-.29,1.04c-.39,0-.7.08-.93.23l-.46.81c-.97.66-2.05.95-3.25.87h-.46ZM291.78,101.02c-.27-.19-.58-.27-.93-.23l-.81-.52c0-.93.33-1.62.99-2.09,3.37-1.39,6.52-3.13,9.46-5.22,1.31-2.63,1.99-5.47,2.03-8.53-.27-4.22-.29-8.43-.06-12.65,0-.31-.12-.56-.35-.75-.35-.23-.64-.52-.87-.87l-.46-.52c.31-.62.41-1.14.29-1.57-.54-.62-.85-1.35-.93-2.21l.35-1.39c.7-.04,1.33-.17,1.92-.41l1.04.23.46-.06.58.29c.46,1.51.85,3.02,1.16,4.53.12,1.39.15,2.77.12,4.12.31,5.8.37,11.63.17,17.47-.43.81-.64,1.7-.64,2.67-.39,1.47-.83,2.84-1.33,4.12-.97.62-1.97.83-3.02.64l-1.39.41c-2.75.74-5.34,1.59-7.78,2.55Z"/>
  <path d="M317.25,98.88l-.52-.17-.75.06-1.22-.58-.52-1.22c0-1.01.15-1.88.46-2.61h.75c.7-.46,1.45-.77,2.26-.93l.52-.46.52.06,3.19-1.1c.15-.7.23-1.43.23-2.21v-6.04l-.64-.29c-1.7.19-3.37.54-4.99,1.04-.39-.46-.75-.97-1.1-1.51l-.41-1.39.23-1.62.46-1.1c.35.12.66-.02.93-.41.43.15.83.19,1.22.12l.93-.64.64.06.75-.17c.5.31,1.1.41,1.8.29l.23-3.42v-1.16c-.5-.54-.77-1.18-.81-1.92-.43-.35-.89-.48-1.39-.41-1.16.04-2.21.31-3.13.81-.5-.15-.99-.39-1.45-.7-.31-.89-.66-1.76-1.04-2.61l.06-.64.7-.75.12-.99c1.93-.85,4-1.3,6.21-1.33l2.03.46c2.86-.23,5.32.35,7.37,1.74.43.5.72,1.04.87,1.62.08.66-.14,1.22-.64,1.68-.31.15-.64.19-.99.12l-.75-.17-1.45.41-.46-.12c-.46.04-.87.19-1.22.46-.35.77-.39,1.57-.12,2.38-.27.46-.41.97-.41,1.51v1.92l.23.99c1.47.23,2.73.91,3.77,2.03l.29.7c0,.58-.27.95-.81,1.1l-.52.29c-1.08.23-1.99.54-2.73.93-.19,2.01-.37,4.06-.52,6.15l.23,1.8.64.06,1.33-.12,1.1.52c.19.31.27.66.23,1.04l-.93.81c-.74.27-1.45.58-2.15.93-.58.54-1.2.99-1.86,1.33l-.99.23c-1.01.15-1.84.48-2.5.99l-.41.93c-.89.58-1.86.99-2.9,1.22ZM332.98,101.84c-.35-.74-.54-1.51-.58-2.32,6.31-7.85,9.17-16.79,8.59-26.81l-.06-.52.23-1.45c-.27-2.28-.1-4.55.52-6.79l1.1-1.28c.97.27,1.88.48,2.73.64.27.39.41.83.41,1.33-.77,2.36-1.18,4.89-1.22,7.6-.08,5.42-.31,10.83-.7,16.25-.35.58-.62,1.18-.81,1.8l-.41.23c-.19.77-.5,1.51-.93,2.21-.62.5-1.2,1.08-1.74,1.74l-.46.7c-1.82,2.48-4.04,4.7-6.67,6.67ZM335.01,81.29c-.5-.12-.97-.31-1.39-.58-.31-.62-.52-1.28-.64-1.97-.04-.74-.04-1.41,0-2.03l.29-1.92-.46-.75.12-.75-.12-.58c.27-.46.41-.99.41-1.57.19-.74.54-1.28,1.04-1.62.66-.5,1.39-.79,2.21-.87l.46.12.52-.06.35.99c.27,1.16.46,2.24.58,3.25-.23,1.24-.48,2.48-.75,3.71l.06.58c0,1.16-.35,2.21-1.04,3.13-.46.5-1.01.81-1.62.93ZM345.98,97.6c-.5-.12-.85-.41-1.04-.87l-.41-1.1c.31-.77.5-1.59.58-2.44l.81-.58.35-.41c1.16-.19,2.24-.54,3.25-1.04l.35-.46c1.35.39,2.71.56,4.06.52.19-.7.29-1.45.29-2.26-.08-1.32-.08-2.63,0-3.95-1.47-.46-2.96-.56-4.47-.29-.5-.19-.95-.52-1.33-.99v-.99c.04-.7.12-1.28.23-1.74l.64-1.28,3.83-.58.58.06.58-.23.12-1.74-.46-1.33c.12-.58.19-1.16.23-1.74l-.75-.17-2.9.23c-.39-.15-.79-.29-1.22-.41-.43-.62-.74-1.3-.93-2.03v-.87c.27-1.01.58-2.01.93-3.02,2.24-.46,4.56-.7,6.96-.7,3.6.19,6.85,1.28,9.75,3.25.62.54.91,1.22.87,2.03l-.41.75-.81.52-.41,1.16-2.15.12c-1.66-.58-3.4-.99-5.22-1.22-.31.39-.43.83-.35,1.33.19,1.2.25,2.4.17,3.6,2.63-.15,4.93.5,6.91,1.97.58.7.87,1.51.87,2.44l-.52.23-.46-.12-.52.75-.99.35c-.81-.23-1.68-.31-2.61-.23-.93,0-1.76.14-2.5.41-.15,1.39-.33,2.77-.52,4.12.08.74.04,1.47-.12,2.21l.41.35c3.52,0,6.75.93,9.69,2.79l.12.87-.12.75c-.43.19-.83.37-1.22.52l-.7.7-.75.41c-2.48-.66-5.11-.99-7.89-.99-.5.23-1.03.31-1.57.23l-3.08-.06c-2.09.35-4.14.74-6.15,1.16Z"/>
</svg>