<?xml version="1.0" encoding="UTF-8"?>
<svg id="_レイヤー_1" data-name="レイヤー 1" xmlns="http://www.w3.org/2000/svg" viewBox="0 0 443 246.33">
  <path d="M42.32,14.3l.82.58c.05,1.15-.49,2.39-1.65,3.71,3.08,2.04,10.34,8.11,21.78,18.23,11.16,6.6,17.35,11.17,18.56,13.69-1.32.88-5.01,1.29-11.05,1.24-4.12-.82-7.01-1.81-8.66-2.97-4.35-4.01-7.34-7.15-8.99-9.4-1.65-2.25-3.26-4.43-4.83-6.52-1.57-2.09-4.66-5.5-9.28-10.23-2.97,5.06-7.26,10.72-12.87,16.99,4.84-.99,8.32-1.73,10.44-2.23,2.12-.49,5.9-.93,11.34-1.32.77,0,1.68.34,2.72,1.03,1.04.69,1.65,1.35,1.81,1.98.16.63-.08,1.25-.74,1.86-1.81.11-3.19.15-4.12.12-.94-.03-4.12.18-9.57.62,2.14,1.32,3.6,2.12,4.37,2.39.77.28.99,2.45.66,6.52,6.1-.6,10.2-1.02,12.29-1.24,1.59-.22,3.13.41,4.62,1.9,1.04,1.27,1.43,2.23,1.15,2.89-.61,1.48-2.72,1.95-6.35,1.4-5.23-.27-9.05-.22-11.47.16-.06,5.72.03,12.7.25,20.95-.06,2.09-.48,3.93-1.28,5.53-.8,1.59-2.13,2.78-4,3.55-1.65.05-2.47-.41-2.47-1.4l-.74-4.21c-1.93-.99-4.12-2.28-6.6-3.88-.44-.38-.8-.63-1.07-.74,2.09.16,4.78.41,8.08.74.6-4.84.82-11.49.66-19.96-4.95.77-7.96,1.36-9.03,1.77s-2.3.81-3.67,1.2c-3.41-1.15-5.4-1.92-5.98-2.31-.58-.38-.54-.8.12-1.24,7.09-1.76,13.2-3.02,18.31-3.79.22-5.06-.22-8.22-1.32-9.49-1.81.49-4.43,1.24-7.84,2.23-1.15-.55-2.09-1.4-2.8-2.56-1.27,1.93-3.75,4.43-7.47,7.51-3.71,3.08-6.72,5.24-9.03,6.48S2.64,58.05,0,58.27c2.31-1.59,6.45-5.62,12.42-12.09,5.97-6.46,10.74-12.36,14.31-17.7,3.57-5.33,5.97-9.16,7.18-11.47-1.71-2.36-2.21-3.78-1.53-4.25.69-.47,1.61-.8,2.76-.99,1.15-.19,3.55.65,7.18,2.52ZM26.48,61.16c1.92,1.05,3.24,1.93,3.96,2.64.71.72,1.14,1.8,1.28,3.26.14,1.46-.89,2.16-3.09,2.1-6.66,4.07-11,6.68-13.03,7.84-2.04,1.15-4.21,1.73-6.52,1.73,9.18-7.09,13.83-11.58,13.94-13.45-1.38-2.31-1.55-3.59-.54-3.84,1.02-.25,2.35-.34,4-.29ZM26.98,75.43c0-.16.14-.14.41.08-.11-.05-.25-.08-.41-.08ZM60.64,66.27c5.17,5.06,7.42,8.35,6.76,9.86-.66,1.51-1.32,2.46-1.98,2.85-1.32.11-2.34-.41-3.05-1.57-5.67-7.31-10.45-12.76-14.35-16.33l2.06-.16c2.58.28,6.1,2.06,10.56,5.36Z"/>
  <path d="M134.23,78.4c-1.15-.38-2.14-2.03-2.97-4.95l-.08-1.73c-2.53-1.1-5.64-1.21-9.32-.33-3.69.88-5.8,1.6-6.35,2.14-.06,2.31-.52,3.66-1.4,4.04-2.2.82-4.12-1.32-5.77-6.43-1.15-4.18-1.9-7.2-2.23-9.07-.33-1.87-1.35-8.33-3.05-19.39-.33-1.26-.8-2.2-1.4-2.8-.61-.6-1.13-1.37-1.57-2.31l1.07-.91,2.56.08.99-.74c5.88-6.76,9.93-11.55,12.13-14.35.38-1.48.54-2.53.45-3.13-.08-.6-.29-1.29-.62-2.06l2.39-.33,1.57.16c1.1.55,1.91.96,2.43,1.24.52.28,1.47,1.35,2.85,3.22.33.66.52,1.38.58,2.14.05.77-.22,1.43-.82,1.98-.61.55-1.57,1.02-2.89,1.4-.33.11-2.47,1.79-6.43,5.03-3.96,3.25-6.09,4.95-6.39,5.11-.3.16-.67.52-1.11,1.07l1.15.82c1.21.72,1.73,2.67,1.57,5.86.44,2.8.71,5.25.82,7.34,1.04-.11,2.89-.58,5.53-1.4s5.88-1.54,9.73-2.14c1.04-.44,2.64.16,4.78,1.81l.08,1.57c0,.82-1.07,1.39-3.22,1.69-2.14.3-5.09.81-8.83,1.53l-5.53,1.48c-1.54-.44-2.39-.82-2.56-1.15.77,4.78,1.62,9.4,2.56,13.86.93-.33,2.63-.81,5.07-1.44,2.45-.63,4.33-1.02,5.65-1.15,1.32-.14,2.23-.34,2.72-.62.49-.27,1.21-.16,2.14.33l1.73,1.15c1.15-14.02,1.77-22.04,1.86-24.05.08-2.01-.15-3.78-.7-5.32l-.82-.33c-7.37.82-11.43,1.46-12.17,1.9-.74.44-2.16.85-4.25,1.24-1.98-1.26-3.44-2.42-4.37-3.46,8.36-2.58,13.71-3.93,16.05-4.04,2.34-.11,3.95-.3,4.83-.58,1.15-.71,2.31-1.24,3.46-1.57,3.3,1.48,5.24,2.52,5.82,3.09s1.37,1.57,2.39,2.97c1.02,1.4.84,2.63-.54,3.67-.33,1.93-.89,6.27-1.69,13.03-.8,6.76-1.51,11.84-2.14,15.22-.63,3.38-1.29,5.68-1.98,6.89-.69,1.21-1.94,2.12-3.75,2.72Z"/>
  <path d="M179.77,71.14c-.55-7.15-.58-13.91-.08-20.29.49-6.38,1.1-11.47,1.81-15.26.22-2.03.14-3.97-.25-5.82-.39-1.84-.52-3.2-.41-4.08,3.08,1.21,5.28,3.03,6.6,5.44,1.32,2.42,1.46,4.68.41,6.76-.77,3.74-1.28,6.37-1.53,7.88-.25,1.51-.34,5.93-.29,13.24.38-1.54,1.37-3.16,2.97-4.87-.72,3.19-1.54,6.71-2.47,10.56.22,3.13.44,5.75.66,7.84.6,2.42.47,4.7-.41,6.85-1.48.11-3.03-.6-4.62-2.14-.94-2.53-1.73-4.56-2.39-6.1ZM202.7,35.34c5.88-4.01,11.19-5.99,15.92-5.94,4.34-.11,7.48.88,9.4,2.97-.55,3.03-2.26,4.24-5.11,3.63-2.31,1.38-5.06,2.78-8.25,4.21l4.37-4.45c-1.81-.38-4.91.1-9.28,1.44-4.37,1.35-7.09,2.38-8.17,3.09-1.07.72-2.57,1.43-4.5,2.14,1.87-3.3,3.74-5.66,5.61-7.09ZM214.99,64.79c5,2.04,8.19,2.98,9.57,2.85,1.37-.14,2.8.89,4.29,3.09,2.36,2.31,3.16,3.78,2.39,4.41-.77.63-2.5.65-5.2.04-2.8-.71-5.65-1.54-8.54-2.47-2.89-.93-6.28-3.08-10.19-6.43-2.31-1.76-3.27-4.15-2.89-7.18,1.65.55,2.61,1.07,2.89,1.57.27.49,2.83,1.87,7.67,4.12Z"/>
  <path d="M250.96,41.28c-4.02.99-6.22.49-6.6-1.48l2.47-1.73c8.36-3.52,17.74-6.41,28.13-8.66,1.26-.55,2.94-.66,5.03-.33.77.06,1.65.72,2.64,1.98.33,2.47-.47,3.82-2.39,4.04-2.97-.82-4.92-1.13-5.86-.91-.94.22-3.11.67-6.52,1.36-3.41.69-6.49,1.48-9.24,2.39-2.75.91-5.31,2.02-7.67,3.34ZM262.43,79.14c-1.65-6.65-2.61-10.64-2.89-11.96-.28-1.32-.8-2.36-1.57-3.13-2.7-1.15-3.22-2.39-1.57-3.71l2.64-1.57c1.21.44,1.95.72,2.23.82.27.11,1.04.82,2.31,2.14,1.1,3.69,2.09,7.51,2.97,11.47l5.77-1.48c.33-1.32.56-3.44.7-6.35.14-2.91.11-4.5-.08-4.74-.19-.25-1-.26-2.43-.04-1.43.22-3.25.58-5.44,1.07l-2.14-.82c.99-1.37,2.24-2.43,3.75-3.18,1.51-.74,4.17-1.53,7.96-2.35l1.9.66,2.64,1.32c1.26,1.27,1.81,2.24,1.65,2.93-.16.69-.44,1.39-.82,2.1-.49,1.48-.87,3.04-1.11,4.66-.25,1.62-.76,3.12-1.53,4.5,1.65-.05,2.35.65,2.1,2.1-.25,1.46-1.03,2.35-2.35,2.68-2.37.06-4.08.12-5.16.21s-2.65.51-4.74,1.28c.11,2.75-.07,4.29-.54,4.62-.47.33-1.14.33-2.02,0-.88-.33-1.62-1.4-2.23-3.22ZM261.44,45.98c-2.53.39-4.18-.22-4.95-1.81,2.36-1.37,4.85-2.52,7.47-3.42,2.61-.91,6.42-1.88,11.43-2.93.99.22,1.81.56,2.47,1.03.66.47,1.18,1.14,1.57,2.02.05,1.81-1.27,2.56-3.96,2.23-1.15-.05-3.45.32-6.89,1.11-3.44.8-5.82,1.39-7.14,1.77ZM256.74,52.09c1.76-1.37,4.41-2.6,7.96-3.67s7.36-1.69,11.43-1.86c.71.11,1.7.82,2.97,2.14.05,2.7-1.43,3.49-4.45,2.39-3.96.49-6.89,1.02-8.79,1.57-1.9.55-3.22,1.02-3.96,1.4-.74.39-2.46-.27-5.16-1.98ZM271.09,26.51c-1.71-1.37-2.92-2.71-3.63-4-.72-1.29-1.22-2.09-1.53-2.39-.3-.3-1.36-1.06-3.18-2.27-1.87-.82-2.53-1.84-1.98-3.05,1.04-.38,1.95-.59,2.72-.62.77-.03,1.51-.05,2.23-.08.71-.03,1.91.14,3.59.49,1.68.36,3.12,1.55,4.33,3.59.22,1.71.27,2.83.16,3.38-.11.55-.29,1.51-.54,2.89-.25,1.38-.98,2.06-2.19,2.06ZM295.92,78.24c-1.71-.16-4.18-.82-7.42-1.98l-1.32-1.24c-.39-1.32-.69-3-.91-5.03-.22-2.03-.33-7.78-.33-17.24.16-1.54-.25-2.53-1.24-2.97l-.74-1.15c.55-1.81,1.76-2.69,3.63-2.64,3.79-1.48,7.19-2.49,10.19-3.01,3-.52,5.16-.67,6.48-.45.99-3.52,1.59-5.99,1.81-7.42.22-1.43.27-2.67.16-3.71-7.15.55-11.85,1.17-14.11,1.86-2.26.69-4.26.29-6.02-1.2l.25-1.65c3.52-1.37,5.94-2.24,7.26-2.6,1.32-.36,2.68-.71,4.08-1.07,1.4-.36,4.06-.92,7.96-1.69,1.37-.49,2.42-.55,3.13-.16l2.06.58,4.04,2.31c.22.72.49,1.87.82,3.46-.49,1.15-1.05,1.9-1.65,2.23-.33.55-.98,2.14-1.94,4.78-.96,2.64-1.64,4.32-2.02,5.03l1.9.58.33,1.9c-.72,1.1-1.65,1.81-2.8,2.14l-2.89.33c-2.37-.33-4.58-.4-6.64-.21-2.06.19-4.83.76-8.29,1.69.38.28.48.84.29,1.69-.19.85-.21,1.58-.04,2.19-.61,11.83-.06,17.9,1.65,18.23,2.36.44,5.76.58,10.19.41,4.43-.16,8.07-.74,10.93-1.73.16-.55.77-4.15,1.81-10.81l1.15,3.22c.6,3.3,1.06,5.28,1.36,5.94.3.66,1,1.11,2.1,1.36,1.1.25,1.87.56,2.31.95l.16,1.48-.91,2.23-1.57.74c-.88.77-2.8,1.57-5.77,2.39s-9.46.91-19.47.25Z"/>
  <path d="M362.01,19.58l-.99-1.4c1.26-.88,2.67-1.37,4.21-1.48,1.54.06,2.97,1.05,4.29,2.97,3.3,1.71,4.18,3.82,2.64,6.35-.22,2.75-.33,4.87-.33,6.35,4.45-.38,7.29-.59,8.5-.62,1.21-.03,2.45.29,3.71.95,1.26.66,2.5,1.32,3.71,1.98,1.21.66,1.87,1.76,1.98,3.3-.82.94-1.97,1.14-3.42.62-1.46-.52-3.81-.89-7.05-1.11-3.91-.22-6.38-.14-7.42.25-.22,4.07-.43,7.78-.62,11.14-.19,3.36-.16,5.43.08,6.23.25.8.26,2.82.04,6.06-.61,1.71-1.29,2.7-2.06,2.97-1.15,7.98-2.63,13.12-4.41,15.43-1.79,2.31-3.12,3.56-4,3.75-.88.19-2.2,1.2-3.96,3.01,2.91-5.89,4.76-13.09,5.53-21.61-3.36-.82-5.89-2.25-7.59-4.29-1.81-1.48-2.86-3.08-3.13-4.78.11-1.37.96-2.69,2.56-3.96,1.59-1.26,3.33-2.75,5.2-4.45,2.53-1.87,4.59-1.46,6.19,1.24-.22-3.41-.39-6.87-.49-10.39-5.72.82-9.54,1.55-11.47,2.19-1.93.63-4.11,1.4-6.56,2.31-2.45.91-3.91,1.71-4.37,2.39-.47.69-2.16.95-5.07.78-2.92-.16-4.78-.74-5.61-1.73l4.7-2.06c7.64-4.34,17.16-7.23,28.54-8.66-.28-5.06-.49-8.28-.66-9.65-.33-1.26-1.21-2.61-2.64-4.04ZM359.28,54.48c-1.21.66-1.43,1.27-.66,1.81.88,1.43,2.53,2.64,4.95,3.63.77-5.22.88-7.93.33-8.13-.55-.19-1.14-.16-1.77.08-.63.25-1.58,1.11-2.85,2.6Z"/>
  <path d="M408.87,61.57c1.54-.44,3.6-.19,6.19.74,2.58.94,4.87,2.34,6.85,4.21,1.98,1.87,3.73,3.95,5.24,6.23,1.51,2.28,2.1,4.36,1.77,6.23-.33,1.87-.69,3.06-1.07,3.59-.39.52-1.51.96-3.38,1.32-1.87.36-3.22-.29-4.04-1.94s-1.42-3.53-1.77-5.65c-.36-2.12-1.03-3.96-2.02-5.53s-2.12-3.05-3.38-4.45c-1.27-1.4-2.23-2.27-2.89-2.6s-1.15-1.04-1.48-2.14Z"/>
  <path d="M35.89,213.12l-1.07-1.98c.33-.66.69-1.31,1.07-1.94.38-.63.81-1.26,1.28-1.9.47-.63.96-1.24,1.48-1.81.52-.58.98-1.17,1.36-1.77l1.32-1.48c.44-.66.85-1.36,1.24-2.1.38-.74.74-1.48,1.07-2.23s.66-1.47.99-2.19c.33-.71.58-1.4.74-2.06l-2.39-3.22h-1.07l-.82-.08c-.49.22-.94.33-1.32.33s-1.07-.05-2.06-.16l-1.57.16-1.9.08c-.88-.05-1.46-.11-1.73-.16-.28-.05-.54-.08-.78-.08s-.92-.19-2.02-.58l-1.98-2.23-.33-.99.25-3.13v-1.73l-.25-1.9-.58-.08c-.55.11-.91.24-1.07.37-.16.14-1.03.37-2.6.7s-2.47.52-2.72.58c-.25.06-.56.08-.95.08l.82.25,2.14.82,1.32,1.65-.58,1.24-.74.25-.74.82-.49.66-1.48,1.07-.41.49-.41.66-3.79,4.29-.99.91-.41.41-.25.66-.66.58-1.57,1.07-.66.41-.74.58-1.9.74c-.11-.93-.01-1.61.29-2.02.3-.41.6-.82.91-1.24.3-.41.59-.81.87-1.2.27-.38.52-.77.74-1.15l2.23-2.89c.27-.49.56-.98.87-1.44.3-.47.58-.92.82-1.36.25-.44.45-.88.62-1.32.16-.44.3-.91.41-1.4v-.74l-.33-.49-.91-.66c-.39.22-.76.34-1.11.37-.36.03-.73.24-1.11.62l-.91.16-.66,1.07c-.55.22-1.02.44-1.4.66-.72.11-1.22.11-1.53,0-.3-.11-.61-.25-.91-.41-.3-.16-.59-.33-.87-.49-.28-.16-1.05-1.1-2.31-2.8l.74-1.24,1.81-.25c.6-.05,1.04-.08,1.32-.08s.73-.07,1.36-.21c.63-.14,1.46-.33,2.47-.58,1.02-.25,2.02-.49,3.01-.74s2.72-.7,5.2-1.36,3.86-1.06,4.17-1.2c.3-.14.67-.45,1.11-.95l-.16-1.48-.08-.66-1.48.25c-3.3.22-5.42.55-6.35.99l-1.57-.25c-.55-.11-1-.22-1.36-.33-.36-.11-.73-.21-1.11-.29-.39-.08-.74-.26-1.07-.54-.33-.27-1.05-1.13-2.14-2.56.55-.38.99-.74,1.32-1.07l1.73-.33.99-.08h.74l1.15.33c.49.06.99.08,1.48.08.6-.16,1.9-.45,3.88-.87s3.22-.65,3.71-.7v-1.57l-.16-.91-.33-2.47c-.06-.38-.16-.67-.33-.87-.16-.19-.41-.48-.74-.87l-.66-.49-.66-.41-.58-.66-.74-1.48.82-.66c.99-.33,1.61-.51,1.86-.54.25-.03.56-.07.95-.12.38-.05.93-.03,1.65.08l.74-.25h.82c.44.16.87.28,1.28.33.41.06.81.15,1.2.29.38.14.78.33,1.2.58s1.03.98,1.86,2.19c-.28.49-.45.85-.54,1.07-.08.22-.26,1.62-.54,4.21l.41.08,1.15-.25,2.56-.49c.49.22.95.33,1.36.33s1.42.28,3.01.82l.49,1.98c-.28.77-.66,1.32-1.15,1.65l-2.06.49-.99-.16-1.07.33c-.55.22-1.95.8-4.21,1.73l-.66.41-.08.49v1.48h.58c1.26-.27,2.09-.47,2.47-.58.38-.11.78-.21,1.2-.29s1.42-.07,3.01.04l.82-.16c.82.16,1.4.39,1.73.66.33.28.69,1.02,1.07,2.23-.49.39-.92.66-1.28.82-.36.16-.84.3-1.44.41l-.91-.08c-.66.16-1.18.3-1.57.41-.39.11-.82.19-1.32.25l-.99.08-1.07.58h-.66l.82,1.9c-.39,1.6-.56,2.52-.54,2.76.03.25.04.49.04.74s.19.73.58,1.44h.66c.88-.16,1.62-.26,2.23-.29.6-.03,1.2-.09,1.77-.21.58-.11,1.21-.18,1.9-.21.69-.03,1.33-.12,1.94-.29l1.24.08,1.32.49,2.06.91.49.66.25.49.82.58c.05-.27.1-.52.12-.74.03-.22.18-.6.45-1.15.22-.71.38-1.37.49-1.98.11-.6.23-1.2.37-1.77.14-.58.26-1.14.37-1.69.11-.55.16-.93.16-1.15l-3.79,1.24-.66,1.07-1.32.33-.74-.16-1.32-.82-.66-.49c-.28-.66-.47-1.2-.58-1.61-.11-.41.05-1,.49-1.77.77-.27,1.47-.52,2.1-.74.63-.22,1.31-.47,2.02-.74.71-.27,1.4-.54,2.06-.78s1.37-.48,2.14-.7l1.15-.49.16-.49.58-5.53-.08-.74.08-1.4v-.66c-.28-.33-.55-.69-.82-1.07-.28-.38-.48-.84-.62-1.36-.14-.52-.25-1.02-.33-1.48-.08-.47-.15-.98-.21-1.53l.49-.99,1.48-.16c.82.16,1.37.3,1.65.41.27.11.54.23.78.37.25.14.51.4.78.78.77.28,1.32.43,1.65.45.33.03.63.15.91.37.27.22.54.39.78.49.25.11.47.3.66.58.19.28.33.55.41.82.08.28.14.55.16.82.03.28-.15,1.24-.54,2.89l-.58,2.56v1.57l.16.66,3.13-.66.33-.74,1.32-.41h.82l1.24.41,1.24.66.99,1.32c.44.82.7,1.4.78,1.73s.21.63.37.91c.16.28.05.8-.33,1.57l-.58,1.15c-.55.66-.94,1.11-1.15,1.36-.22.25-.34.49-.37.74-.03.25-.04.55-.04.91s-.06.66-.16.91c-.11.25-.19.54-.25.87-.06.33-.11.72-.16,1.15l-.99,10.23v.91l-.08,6.19-.16.82.49,1.9.74.08c.49.06.89.08,1.2.08s.73.06,1.28.16l.91-.16,5.69-.25.08-1.73.99-6.35.99,2.97.16,1.48c.05.44.12.88.21,1.32.08.44.29.88.62,1.32l1.15,1.15,1.73,2.06v1.15l-1.07.82-1.4.99c-.33.33-.59.61-.78.82-.19.22-.41.33-.66.33s-.48.03-.7.08c-.22.06-.91.16-2.06.33-.61.06-1.03.08-1.28.08h-.74c-.25,0-.49.01-.74.04-.25.03-.92.01-2.02-.04-.55.06-1.03.12-1.44.21s-1.17.01-2.27-.21c-.44.06-.85.04-1.24-.04-.39-.08-.76-.25-1.11-.49-.36-.25-.67-.48-.95-.7-.28-.22-.77-.63-1.48-1.24l-.41-.66c-.55-.6-.95-1.18-1.2-1.73-.25-.55-.43-1.13-.54-1.73-.11-.6-.18-1.17-.21-1.69-.03-.52-.07-1.08-.12-1.69v-1.98l.08-1.65c1.32-12.15,2.05-18.6,2.19-19.35.14-.74.21-1.39.21-1.94-.49.11-.87.18-1.11.21-.25.03-.49.1-.74.21-.25.11-.49.26-.74.45-.25.19-.56.37-.95.54-2.26,9.13-3.46,14.01-3.63,14.64-.16.63-.39,1.2-.66,1.69.38.49.74,1.02,1.07,1.57.33.55.63,1.14.91,1.77.27.63.58,1.25.91,1.86.33.61.6,1.27.82,1.98l-.33,1.57-1.48.49-.74-.16-.33.74-2.31-1.15-1.15-.66-.82-.66-.49.33-4.7,6.27-.99.49-.91,1.24-.58.33-1.24,1.32-.82.58-1.32.33c-.66.44-1.1.76-1.32.95-.22.19-.4.29-.54.29s-.21.28-.21.82ZM9.07,217.91l-1.24-.82-1.48-.91c-.49-.71-.81-1.32-.95-1.81-.14-.49-.07-1.1.21-1.81l-.08-.82c.55-.33.98-.52,1.28-.58.3-.05,1.09-.03,2.35.08l.74.08c.49,0,.95-.03,1.36-.08.41-.05.85-.15,1.32-.29.47-.14.91-.32,1.32-.54.41-.22.85-.41,1.32-.58.47-.16,1.62-.69,3.46-1.57,1.84-.88,3.07-1.44,3.67-1.69.6-.25,1.13-.56,1.57-.95.11-.88.19-1.44.25-1.69.05-.25.08-.55.08-.91s-.03-.87-.08-1.53l-.74-.08c-.44.22-.95.4-1.53.54-.58.14-1.14.26-1.69.37-.55.11-1.09.32-1.61.62-.52.3-1.03.48-1.53.54v.66c-.44.39-.81.65-1.11.78-.3.14-.76.29-1.36.45l-2.14-1.15-1.4-1.57-1.15-2.06c.93-.71,1.61-1.08,2.02-1.11.41-.03.77-.08,1.07-.16.3-.08.77-.23,1.4-.45.63-.22,1.35-.42,2.14-.62.8-.19,1.62-.44,2.47-.74.85-.3,1.72-.56,2.6-.78.88-.22,1.65-.49,2.31-.82l.08-1.73c-.39-1.04-.67-1.7-.87-1.98-.19-.27-.39-.56-.58-.87-.19-.3-.25-.63-.16-.99.08-.36.32-.6.7-.74.38-.14.88-.29,1.48-.45.49.11,1.03.18,1.61.21.58.03,1.13.07,1.65.12.52.06,1,.18,1.44.37.44.19.93.45,1.48.78.22.72.3,1.57.25,2.56l.41.33c.77-.22,1.32-.33,1.65-.33s.65-.01.95-.04c.3-.03,1.33.21,3.09.7l.25,1.65-1.81,1.32-.41.66-.66.25-3.46,1.32-.58.25-.41.82-.08.66-.08,1.81-.08.66c.22,0,.51-.07.87-.21.36-.14.73-.26,1.11-.37.38-.11.78-.22,1.2-.33.41-.11,1.14-.03,2.19.25l.08,1.07-.66.82c-.55.33-.89.62-1.03.87-.14.25-.34.39-.62.41-.28.03-.55.29-.82.78l-.99.33-.82.82c-1.27.72-2.54,1.44-3.84,2.19-1.29.74-5.24,2.52-11.84,5.32l-.82.99-.66.82-1.4.58h-2.06l-.58.33ZM6.68,234.57l-.58-.82c.11-.55.22-.98.33-1.28.11-.3.23-.58.37-.82.14-.25.92-1.31,2.35-3.18l.82-1.32,1.65-2.47,1.48-2.39-.91-1.57.49-1.24,2.23-.49.82-.41c1.1.33,1.88.54,2.35.62.47.08.87.26,1.2.54.33.28.59.48.78.62.19.14.38.3.58.49.19.19.34.4.45.62.11.22.25.72.41,1.48l-.82.16-.66.82-1.24.58-.74.99-.74.33-.58,1.15-7.09,7.01h-.82l-.91.58h-1.24ZM33.99,231.69l-.58-1.15-1.15-.33c-1.81-3.79-2.86-6.1-3.13-6.93-.28-.82-.61-1.64-.99-2.43-.39-.8-.77-1.66-1.15-2.6l.58-.99c1.15,0,2.05.11,2.68.33.63.22,1.26.48,1.9.78.63.3,1.25.63,1.86.99.6.36,1.15.81,1.65,1.36l1.07,2.06.49.49c.27.94.49,1.56.66,1.86.16.3.26.62.29.95.03.33.04.74.04,1.24l.25,1.24c-.22.49-.43.87-.62,1.11-.19.25-.33.51-.41.78-.08.27-.3.52-.66.74-.36.22-.67.36-.95.41-.28.05-.55.08-.82.08h-.99ZM51.48,228.72c-3.41-4.34-5.29-6.94-5.65-7.8-.36-.85-.82-1.62-1.4-2.31-.58-.69-.95-1.58-1.11-2.68l.66-.74,1.24-.16c.6.28,1.21.45,1.81.54.6.08,1.2.25,1.77.49s1.14.52,1.69.82c.55.3,1.1.67,1.65,1.11l.66.41c.16.49.36.94.58,1.32.22.39.44.78.66,1.2.22.41.41.87.58,1.36s.36,1.13.58,1.9l.25,1.32-.41,1.65-.99.74c-.55.33-.98.54-1.28.62-.3.08-.73.15-1.28.21ZM73.01,230.86l-1.73-1.65-.49-.66-.41-.58-.82-.74c-.44-.55-.8-1.07-1.07-1.57-.28-.49-.58-.98-.91-1.44-.33-.47-.7-.89-1.11-1.28-.41-.38-1.36-1.26-2.85-2.64l-1.9-2.06c-.49-.66-.8-1.1-.91-1.32-.11-.22-.22-.66-.33-1.32l.74-.74c.66.11,1.14.16,1.44.16s.62.06.95.16c.33.11.66.22.99.33.33.11.74.19,1.24.25.55.06,1.18.19,1.9.41.71.22,1.37.45,1.98.7.6.25,1.21.55,1.81.91.6.36,1.26.73,1.98,1.11l1.32,1.57.33.58,1.15,2.8c.22.72.33,1.2.33,1.44s.05.49.16.74c.11.25-.08,1.14-.58,2.68-.61.6-1.18.96-1.73,1.07l-.58.08-.91.99Z"/>
  <path d="M93.31,195.22c-.99-.33-1.66-.6-2.02-.82-.36-.22-.69-.41-.99-.58-.3-.16-.62-.6-.95-1.32l.33-.99c.93-.44,1.86-.78,2.76-1.03s1.83-.49,2.76-.74c.93-.25,1.86-.49,2.76-.74s1.83-.51,2.76-.78c1.54-.33,2.98-.71,4.33-1.15,1.35-.44,2.71-.88,4.08-1.32.71-.16,1.4-.33,2.06-.49l-.58-.82-.25-.74-.58-.58c-.28-.66-.52-1.32-.74-1.98-.22-.66-.43-1.31-.62-1.94-.19-.63-.39-1.28-.58-1.94-.19-.66-.4-1.29-.62-1.9l-1.48-5.53-1.15-2.56-.91-.66-.66-1.32c.27-.6.49-1.26.66-1.98l1.4.25,1.07-.25h1.32l.58.16,1.07-.16,2.31.49c1.26-.33,2.39-.6,3.38-.82.99-.22,4.95-1.07,11.88-2.56.82-.11,2.06-.33,3.71-.66.55-.11,1.1-.25,1.65-.41.55-.16,1.1-.27,1.65-.33.44.06.78.08,1.03.08s.47.08.66.25c.19.16.41.28.66.33.25.06,1.15.74,2.72,2.06s2.45,2.05,2.64,2.19c.19.14.27.65.25,1.53-.03.88-.16,1.33-.41,1.36-.25.03-.43.21-.54.54l-.91,2.56-.33,2.06c-.06.55-.14.95-.25,1.2-.11.25-.21.49-.29.74s-.15.49-.21.74c-.06.25-.14.65-.25,1.2-.49.66-.84,1.07-1.03,1.24-.19.16-.32.37-.37.62-.06.25-.28.54-.66.87l-1.4.91-1.9,1.4h-.82l-1.4-.66c-.39-.27-.66-.45-.82-.54s-.77-.26-1.81-.54c-.55,0-.99.03-1.32.08-.33.06-3.41.55-9.24,1.48-.94.66-1.55,1.07-1.86,1.24-.3.16-.62.28-.95.33-.33.06-.74.14-1.24.25l-.66,1.81-.25.58c.22,0,.41-.03.58-.08,1.43-.22,2.83-.49,4.21-.82.88-.16,2.58-.45,5.11-.87,2.53-.41,4.18-.73,4.95-.95l1.57-.33c.44-.05.82-.12,1.15-.21s.66-.12.99-.12.67-.04,1.03-.12c.36-.08.78-.12,1.28-.12.82-.16,1.53-.29,2.1-.37s1.2-.12,1.86-.12h3.96l.82.08,2.56.08h1.07c.88.22,1.64.36,2.27.41.63.06,1.26.14,1.9.25.63.11,1.26.21,1.9.29.63.08,1.31.21,2.02.37l.66.25c.55.06.92.15,1.11.29.19.14.41.25.66.33s.48.22.7.41c.22.19.58.62,1.07,1.28l.41.99c-.16.77-.3,1.29-.41,1.57-.11.28-.33.45-.66.54s-.8.12-1.4.12c-.39.49-.74.77-1.07.82-.33.06-.74.03-1.24-.08l-4.45-1.15c-.55-.16-1.11-.36-1.69-.58-.58-.22-1.17-.37-1.77-.45-.61-.08-1.22-.21-1.86-.37-.63-.16-1.28-.3-1.94-.41l-1.65-.08-1.57-.25-2.89-.08c-11.71,1.1-17.72,1.65-18.03,1.65s-.67.07-1.11.21c-.44.14-.78.21-1.03.21s-.48.07-.7.21c-.22.14-.54.24-.95.29-.41.06-.78.14-1.11.25-.33.11-.72.19-1.15.25-.44.06-.88.12-1.32.21-.44.08-.87.21-1.28.37s-.84.25-1.28.25c-.44.28-.78.47-1.03.58-.25.11-.62.25-1.11.41l-.99.49-.66-.08-3.38,1.4-.82.41c-.72.49-1.33.84-1.86,1.03-.52.19-1.09.39-1.69.58-.61.19-1.14.43-1.61.7-.47.28-1.03.41-1.69.41ZM102.22,234.33l-1.4-.41-.91-.16-2.23-.74.41-1.81c1.7-.88,3.53-1.56,5.49-2.02,1.95-.47,3.86-.92,5.73-1.36,1.87-.44,3.75-.89,5.65-1.36,1.9-.47,3.56-.81,4.99-1.03v-4.54c0-.44.11-.66.33-.66,0-.22-.4-.23-1.2-.04-.8.19-1.44.33-1.94.41s-.98.18-1.44.29c-.47.11-1,.16-1.61.16h-3.55c-.66-.16-1.13-.26-1.4-.29-.28-.03-.55-.09-.82-.21-.28-.11-.44-.49-.49-1.15l.91-1.32c.99-.44,1.97-.77,2.93-.99.96-.22,1.92-.45,2.89-.7.96-.25,2.76-.62,5.4-1.11v-4.45h.33c0-.33-.45-.42-1.36-.29-.91.14-1.61.25-2.1.33s-.95.19-1.36.33c-.41.14-.89.26-1.44.37l-.58.16h-1.32l-.91-.33-.25.49-.08.66-.49,2.14-1.73-1.24-1.98-7.59c-.33-1.26-.69-2.52-1.07-3.75-.39-1.24-.82-2.46-1.32-3.67-.16-.55-.36-.98-.58-1.28-.22-.3-.72-.67-1.48-1.11l-1.07-1.15.66-.58.41-1.07c.6-.22,1.06-.37,1.36-.45.3-.08.81-.21,1.53-.37.44.16.81.25,1.11.25s.7.08,1.2.25l1.07-.25.99.49,1.48,3.05.16,1.81-.16.66v.66l.25.82c.88-.22,1.65-.38,2.31-.49.66-.11,1.29-.25,1.9-.41.6-.16,1.25-.34,1.94-.54.69-.19,1.55-.37,2.6-.54v-.82l-1.07-2.72-1.07-1.4-1.15.16h-1.07l-2.56-.91c.77-.88,1.69-1.48,2.76-1.81s2.13-.63,3.18-.91c1.04-.27,2.58-.56,4.62-.87,2.03-.3,3.41-.49,4.12-.58.71-.08,1.44-.18,2.19-.29.74-.11,1.5-.16,2.27-.16s1.51-.03,2.23-.08l.74.16c.49.11.98.22,1.44.33.47.11.92.25,1.36.41.44.16.91.28,1.4.33.49.06.91.39,1.24.99l1.15,1.65.74.41.66,1.4.41.74-.66,1.32c-.39.61-.61,1.02-.66,1.24-.06.22-.11.48-.16.78-.06.3-.16.55-.33.74-.16.19-.47.87-.91,2.02-.06.66-.15,1.2-.29,1.61-.14.41-.29.87-.45,1.36s-.37.95-.62,1.36-.54.87-.87,1.36l-2.06.82-1.4.91c-.44.11-.92.25-1.44.41-.52.16-1.05.29-1.57.37-.52.08-1.05.15-1.57.21-.52.06-1.03.11-1.53.16-.66.11-1.2.18-1.61.21-.41.03-.69.16-.82.41-.14.25-.22.55-.25.91-.03.36-.01.78.04,1.28l-.25.91v.66l.82.33,2.14-.58c.55-.05.95-.08,1.2-.08s.49-.04.74-.12.51-.12.78-.12,1.48-.03,3.63-.08l.99.41.99.33.08.91-.16.66.58.58-.91.91c-.82.39-1.36.66-1.61.82s-.52.28-.82.33c-.3.06-1.72.28-4.25.66l-1.07.16-2.64.41-.25.91v.74l.25,2.14-.16,1.57,1.15.49,1.48-.16h.91l1.73-.16.82.16.66-.16,1.57-.08.74.08,5.77-.16,1.32.16c.77.16,1.48.29,2.14.37s1.29.19,1.9.33c.6.14,1.2.29,1.77.45s1.17.39,1.77.66c.55.44,1.1.72,1.65.82l1.07.91.16.99.33,1.32-.33,1.15-.49,1.07-.99.91-1.24.33-.91.08-.91-.08-1.15-.33c-.66,0-1.14-.03-1.44-.08-.3-.06-.63-.14-.99-.25-.36-.11-.69-.22-.99-.33-.3-.11-.7-.19-1.2-.25-.66-.22-1.18-.36-1.57-.41l-1.48-.41-.66-.16-.74.16c-.66-.11-1.1-.18-1.32-.21-.22-.03-.45-.04-.7-.04s-.62-.03-1.11-.08l-.58.08-2.39-.33c-.55,0-.92-.06-1.11-.16-.19-.11-.43-.16-.7-.16h-2.14l-.66.25-.99.08-1.65.16-.66-.16-.66.16h-2.39l-.74.25-.99-.08-1.32.33c-1.48.05-2.87.19-4.17.41-1.29.22-2.6.47-3.92.74-1.32.27-2.61.58-3.88.91-1.27.33-2.61.52-4.04.58ZM119.95,204.71v-2.64l-1.4.25c-.66.11-1.17.19-1.53.25-.36.06-1.06.25-2.1.58-.61,0-1.03.01-1.28.04-.25.03-.49.08-.74.16s-.52.12-.82.12-.56.28-.78.82l.08,1.15-.08.74.08.66-.08.41c.6-.11,1.28-.25,2.02-.41s1.48-.32,2.23-.45c.74-.14,1.66-.29,2.76-.45,1.1-.16,1.65-.58,1.65-1.24ZM127.63,174.35l1.24-.08,2.06.08.08-2.8.25-2.47.08-3.38-.99-1.65-2.89.41-8.66,1.07-.82.08-1.65.33-.82.08-.91.16.08,1.07.08,1.15c-.11.49-.19.82-.25.99-.06.16.16.33.66.49,1.1-.11,2.01-.23,2.72-.37.71-.14,3.82-.56,9.32-1.28.71.11,1.18.25,1.4.41.22.16.45.3.7.41.25.11.59.49,1.03,1.15l-.58.66-.49.91c-.55.28-.95.43-1.2.45-.25.03-.58.1-.99.21-.41.11-1.83.33-4.25.66-2.42.33-4.04.52-4.87.58-1.43.61-2.72,1.05-3.88,1.32l-.16.82.33,1.73c.33-.11.71-.22,1.15-.33.44-.11.84-.21,1.2-.29.36-.08.73-.21,1.11-.37.38-.16,3.68-.91,9.9-2.23ZM133.9,203.31v-1.24l.82-4.95v-3.22l-.08-.99-1.07-1.07-.58-.08-.82.08h-.99l-.99.33-.99-.25-.74.25-2.89.16-.66.08c.11.22.44.49.99.82l.58.66.16.91-.49,1.57.74.49c.99-.11,1.66-.19,2.02-.25.36-.05.74-.08,1.15-.08s.87.06,1.36.16l2.31.82-.25,1.57c-.44.39-.77.77-.99,1.15-.44.39-.92.58-1.44.58s-1.06.06-1.61.16c-.55.11-1.07.16-1.57.16s-.94.11-1.32.33c-.28.33-.41.77-.41,1.32l-.16.74.25.41h2.14l3.63-.49,1.9-.16Z"/>
  <path d="M201.88,222.69c9.29-6.71,14.7-10.89,16.21-12.54,1.51-1.65,2.52-2.79,3.01-3.42.49-.63.91-1.65,1.24-3.05s.54-3.51.62-6.31-.19-4.85-.82-6.15c-.63-1.29-1.36-2.6-2.19-3.92-.55-.55-.99-1.06-1.32-1.53-.33-.47-1.53-1.2-3.59-2.19s-4.25-1.59-6.56-1.81l-1.65.33c.16,2.04-.15,4.39-.95,7.05-.8,2.67-3.05,7.58-6.76,14.73-3.71,7.15-6.12,11.29-7.22,12.42-1.1,1.13-2.26,2.05-3.46,2.76-1.21.72-2.8.39-4.78-.99-2.7-3.19-4.72-6.64-6.06-10.35-1.35-3.71-2.27-6.09-2.76-7.14,0-2.14.49-4.08,1.48-5.82s1.98-3.45,2.97-5.16c2.47-2.69,5.72-5.22,9.73-7.59,4.01-2.36,6.71-3.79,8.08-4.29,1.37-.49,3.11-1.04,5.2-1.65l.99-2.31,1.81,1.98c.55.11,2.01.19,4.37.25,2.36.06,4.67.48,6.93,1.28,2.25.8,4.41,2.04,6.48,3.71,2.06,1.68,3.4,2.96,4,3.84.6.88,1.04,1.61,1.32,2.19.27.58.7,1.36,1.28,2.35s.98,3.37,1.2,7.14c.22,3.77-.41,7.6-1.9,11.51-1.48,3.91-3.92,6.59-7.3,8.04-3.38,1.46-6.17,2.64-8.37,3.55-2.2.91-5.94,1.94-11.22,3.09ZM186.2,211.97l1.4-.66c7.42-12.37,11.66-21.01,12.7-25.9l.49-2.72c-1.54.22-4.3,1.43-8.29,3.63-3.99,2.2-7.11,4.9-9.36,8.08-1.21,1.98-1.95,3.42-2.23,4.33-.28.91.11,2.71,1.15,5.4.82,2.64,1.47,4.35,1.94,5.11.47.77,1.2,1.68,2.19,2.72Z"/>
  <path d="M245.76,187.22c-2.75-.6-4.02-1.54-3.79-2.8l1.98-1.57c7.04-2.69,15.62-5.22,25.74-7.59,1.32-.05,2.86-.16,4.62-.33.93.11,1.87.74,2.8,1.9.44,2.47-.36,3.85-2.39,4.12-2.92-.77-4.83-1.07-5.73-.91s-2.98.62-6.23,1.36c-3.25.74-6.2,1.56-8.87,2.43-2.67.88-5.38,2.01-8.13,3.38ZM257.56,226.98c-2.86-8.52-4.41-13.28-4.66-14.27s-.76-1.92-1.53-2.8c-1.65-1.15-2.2-2.36-1.65-3.63l2.72-1.65.99.58c.38.16.71.25.99.25s1.59.69,3.96,2.06c1.1,3.03,2.06,6.96,2.89,11.8l4.87-.58c.33-1.37.54-3.62.62-6.72.08-3.11.04-4.76-.12-4.95-.16-.19-.99-.23-2.47-.12-1.48.11-3.3.3-5.44.58l-1.57-.91c1.81-.93,3.24-1.74,4.29-2.43,1.04-.69,3.82-1.47,8.33-2.35l1.73.74,2.06.49c1.87,1.76,2.72,2.94,2.56,3.55-.16.61-.74,2.19-1.73,4.74s-1.76,4.77-2.31,6.64c.93-.05,1.57.4,1.9,1.36.33.96-.08,1.97-1.24,3.01-2.31.06-4.08.14-5.32.25-1.24.11-3.18.58-5.82,1.4v3.88l-1.07,2.23c-1.54-.55-2.53-1.6-2.97-3.13ZM257.31,192.09c-2.75,0-4.32-.63-4.7-1.9,2.2-1.48,4.47-2.71,6.81-3.67,2.34-.96,5.95-1.69,10.85-2.19.99.16,1.77.36,2.35.58.58.22.98.8,1.2,1.73.05,1.81-1.21,2.56-3.79,2.23-1.15-.05-2.86.12-5.11.54-2.26.41-4.78,1.31-7.59,2.68ZM252.94,198.11c1.54-1.37,3.93-2.63,7.18-3.75,3.24-1.13,6.79-1.8,10.64-2.02.71.16,1.68.88,2.89,2.14,0,2.75-1.38,3.6-4.12,2.56-4.02.44-6.82.95-8.41,1.53-1.6.58-2.78.94-3.55,1.07-.77.14-2.31-.37-4.62-1.53ZM266.8,172.95c-1.71-1.59-2.74-3.22-3.09-4.87-.36-1.65-.95-2.68-1.77-3.09s-2.06-1.11-3.71-2.1c-1.32-.93-1.68-1.95-1.07-3.05,1.15-.66,2.63-.82,4.41-.49,1.79.33,3.57.76,5.36,1.28,1.79.52,2.71,1.77,2.76,3.75.05,1.98,0,3.67-.16,5.07s-1.07,2.57-2.72,3.51ZM276.54,224.1c-.44-.05-1.24-.47-2.39-1.24.6-1.32,1.1-2.13,1.48-2.43.38-.3.89-.6,1.53-.91.63-.3,1.28-.54,1.94-.7s1.33-.34,2.02-.54c.69-.19,1.36-.42,2.02-.7v-1.4c-1.54-10.39-2.43-16.42-2.68-18.07s-.41-2.58-.49-2.8c-.08-.22-.21-.41-.37-.58s-.85-.69-2.06-1.57l-.74-.74v-.91l.33-1.32,1.98-.08.66.16c4.23.49,6.49,1.5,6.76,3.01.27,1.51.38,2.96.33,4.33.16,9.96.36,16.2.58,18.73l6.68-1.48c.11-2.31-.01-8.44-.37-18.4-.36-9.95-.74-15.44-1.15-16.46-.41-1.02-1.33-1.44-2.76-1.28-5.23,1.6-8.06,2.09-8.5,1.48-.44-.6-1.4-1.35-2.89-2.23.22-.77,1.53-1.58,3.92-2.43,2.39-.85,4.28-1.39,5.65-1.61,1.37-.22,2.68-.51,3.92-.87,1.24-.36,3.34-.87,6.31-1.53s5.4-1.14,7.3-1.44c1.9-.3,3.7-.34,5.4-.12,1.7.22,2.72.43,3.05.62.33.19.93.89,1.81,2.1.88,1.21,1.29,2.14,1.24,2.8-1.05,1.54-2.1,2.1-3.18,1.69s-2.93-.7-5.57-.87-6.52-.03-11.63.41c2.25.94,3.66,1.72,4.21,2.35.55.63.7,1.33.45,2.1-.25.77-.4,2.38-.45,4.83-.06,2.45-.07,3.84-.04,4.17.03.33,1.31.28,3.84-.16,2.53-.44,4.43-.71,5.69-.82,1.26-.11,2.47-.05,3.63.16,1.15.22,1.83.41,2.02.58.19.16.4.36.62.58.22.22.52.88.91,1.98.38,1.1.01,1.99-1.11,2.68-1.13.69-2.65.92-4.58.7-1.93-.22-4.29-.29-7.09-.21s-4.21.24-4.21.45v1.98l-.58,15.92c.93-.11,1.7-.16,2.31-.16s3.34-.14,8.21-.41c4.87-.27,8.11.24,9.73,1.53,1.62,1.29,2.61,2.59,2.97,3.88.36,1.29.47,2.05.33,2.27-.14.22-.51.74-1.11,1.57l-.91.49-.99.08c-.77-.27-1.47-.51-2.1-.7-.63-.19-1.57-.71-2.8-1.57-1.24-.85-6.7-1.17-16.38-.95-7.81.99-13.48,1.98-16.99,2.97l-.25.66c-.66.28-1.11.41-1.36.41h-4.08Z"/>
  <path d="M336.02,212.71l-1.9-1.73c-.88-2.09-.63-3.24.74-3.46,1.37.39,2.3.67,2.76.87.47.19,1.88-.21,4.25-1.2-.55-7.75-1.13-16.17-1.73-25.24-.61-1.1-1.09-1.77-1.44-2.02-.36-.25-.73-.62-1.11-1.11-.66-.88-.25-1.68,1.24-2.39,2.25.82,4.54,1.76,6.85,2.8.38.44.81,1.07,1.28,1.9.47.82.58,1.47.33,1.94-.25.47-.4.87-.45,1.2-.06.33-.16,2.06-.33,5.2,1.76-.93,3.71-1.46,5.86-1.57l1.9,1.57c.27,1.65-.58,2.7-2.56,3.13-1.98.44-3.66,1.05-5.03,1.81-.11,4.68-.11,8.41,0,11.22,1.81-.71,4.67-1.68,8.58-2.89-.16-4.07-.21-9.28-.12-15.63s-.29-9.69-1.11-10.02c-1.81.16-2.98.29-3.51.37-.52.08-1.88.54-4.08,1.36-2.47-.55-3.71-1.54-3.71-2.97l.49-.82,2.47-.25,7.18-2.23,2.06-1.48c1.04.22,1.8.4,2.27.54.47.14,1.55.88,3.26,2.23,1.7,1.35,2.56,2.68,2.56,4s-.18,2.09-.54,2.31c-.36.22-.55,1.07-.58,2.56-.03,1.48-.06,6.01-.08,13.57-.03,7.56-.26,12.83-.7,15.8l-1.48,2.56-1.98.25c-1.32-1.76-2.08-3.08-2.27-3.96-.19-.88-.26-1.81-.21-2.8-3.79.94-7.92,2.78-12.37,5.53-.55,1.05-1.28,1.53-2.19,1.44s-2.43-.87-4.58-2.35ZM394.35,230.53c-.82-.94-1.31-1.62-1.44-2.06-.14-.44-.48-1.48-1.03-3.13-.06-.44-.69-.95-1.9-1.53-1.21-.58-3.49-1.91-6.85-4l-1.81-3.22c5.72,1.76,9.01,2.63,9.86,2.6.85-.03,1.47-.48,1.86-1.36.55-12.87.52-27.97-.08-45.29-.16-2.75-.88-4.1-2.14-4.04-5.72,1.38-8.8,1.99-9.24,1.86-.44-.14-1.02.04-1.73.54,1.26,1.6,1.46,5.64.58,12.13,1.92-.93,3.64-1.5,5.16-1.69,1.51-.19,2.6-.34,3.26-.45,1.87,2.04,2.58,3.49,2.14,4.37-3.74.39-6.12.72-7.14.99-1.02.28-1.76.45-2.23.54-.47.08-1.06.43-1.77,1.03-.55,4.68-.94,7.65-1.15,8.91,2.8-1.37,5.99-2.03,9.57-1.98,1.37.44,2.32,1.46,2.85,3.05.52,1.6.15,2.35-1.11,2.27-1.27-.08-3.05-.03-5.36.16-2.31.19-4.35.62-6.1,1.28-.82,3.79-2.01,8.08-3.55,12.87-1.54,4.78-2.94,7.91-4.21,9.36-1.27,1.46-2.53,2.74-3.79,3.84.88-4.95,1.53-8.36,1.94-10.23.41-1.87.73-3.31.95-4.33.22-1.02.76-3.75,1.61-8.21.85-4.45,1.7-10.11,2.56-16.95.85-6.85,1-11.78.45-14.81l-.99-1.32c-1.32-1.92-1.36-3.51-.12-4.74s2.52-1.25,3.84-.04c.71.06,2.09-.12,4.12-.54,2.03-.41,3.89-.89,5.57-1.44,1.68-.55,2.82-.99,3.42-1.32.38-.49.89-.71,1.53-.66.63.06,1.54.19,2.72.41,1.18.22,3.01,1.15,5.49,2.8.71,2.86.78,4.54.21,5.03s-.66,5.72-.25,15.67c.41,9.96.6,17.98.58,24.09-.03,6.1-.26,10.64-.7,13.61l-2.06,3.46c-.88,1.21-2.04,2.03-3.46,2.47Z"/>
  <path d="M429.57,231.03c-2.2-.94-3.85-2.05-4.95-3.34-1.1-1.29-1.73-2.63-1.9-4-.16-1.37-.23-2.67-.21-3.88.03-1.21.49-2.53,1.4-3.96.91-1.43,1.77-2.43,2.6-3.01s1.87-1.11,3.13-1.61c1.26-.49,2.65-.67,4.17-.54,1.51.14,2.72.44,3.63.91.91.47,1.84,1.18,2.8,2.14.96.96,1.68,1.94,2.14,2.93.47.99.66,2.52.58,4.58s-.62,3.77-1.61,5.11-2.05,2.43-3.18,3.26c-1.13.82-2.31,1.4-3.55,1.73s-2.93.22-5.07-.33ZM437.33,219.06c-.49-1.15-1-1.94-1.53-2.35-.52-.41-1.32-.65-2.39-.7-1.07-.05-1.94.07-2.6.37-.66.3-1.36,1-2.1,2.1-.74,1.1-1.13,1.97-1.15,2.6-.03.63.21,1.38.7,2.23.49.85,1.13,1.39,1.9,1.61.77.22,1.86.39,3.26.49,1.4.11,2.34-.3,2.8-1.24.47-.93.84-2.64,1.11-5.11Z"/>
</svg>