<?xml version="1.0" encoding="UTF-8"?>
<svg id="_レイヤー_2" data-name="レイヤー 2" xmlns="http://www.w3.org/2000/svg" viewBox="0 0 594.22 172.47">
  <defs>
    <style>
      .cls-1 {
        fill: #fff;
      }
    </style>
  </defs>
  <g id="_レイヤー_1-2" data-name="レイヤー 1">
    <g>
      <g>
        <polygon class="cls-1" points="94.87 85.96 89.54 90.12 119.19 114.13 123.33 109.01 94.87 85.96"/>
        <polygon class="cls-1" points="76.62 100.69 71.29 104.85 101.69 129.47 105.83 124.35 76.62 100.69"/>
        <g>
          <polygon class="cls-1" points="127.87 69.62 127.87 0 85.55 29.9 43.24 0 43.24 113.7 83.58 144.87 87.53 144.87 127.87 113.7 127.87 81.97 121.55 77.03 121.55 110.59 85.55 138.4 49.56 110.59 49.56 12.21 85.04 37.27 86.07 37.27 121.55 12.21 121.55 64.68 127.87 69.62"/>
          <polygon class="cls-1" points="85.55 37.64 85.55 37.64 85.55 37.64 85.55 37.64"/>
        </g>
        <g>
          <polygon class="cls-1" points="85.44 37.86 90.93 33.88 87.58 31.29 83.63 31.29 43.29 62.46 43.29 67.68 49.61 67.68 49.61 65.57 85.46 37.87 85.44 37.86"/>
          <polygon class="cls-1" points="96.26 37.11 90.93 40.98 121.48 64.58 121.48 64.58 124.2 66.71 127.82 66.71 127.82 61.49 96.26 37.11"/>
        </g>
        <g>
          <polygon class="cls-1" points="59.83 122.09 59.83 135.24 33.08 162.15 6.32 135.24 6.32 38.27 33.08 62.88 49.56 47.71 49.56 44.42 43.8 44.42 33.08 54.28 0 23.86 0 137.85 31.07 169.11 35.08 169.11 66.15 137.85 66.15 135.87 66.15 135.65 66.15 134.97 66.15 130.72 66.34 130.72 66.34 127.12 59.83 122.09"/>
          <polygon class="cls-1" points="137.61 54.28 127.89 45.34 127.89 44.42 121.57 44.42 121.57 48.12 137.61 62.88 164.37 38.27 164.37 135.24 137.61 162.15 110.86 135.24 110.86 123.24 105.01 127.76 105.01 138.32 135.61 169.11 139.62 169.11 170.69 137.85 170.69 23.86 137.61 54.28"/>
        </g>
        <polygon class="cls-1" points="113.75 70.76 108.5 74.99 127.52 90.39 127.52 81.91 113.75 70.76"/>
        <polygon class="cls-1" points="96.22 37.11 78.33 50.11 83.35 54.6 97.68 44.19 97.98 38.48 96.22 37.11"/>
      </g>
      <g>
        <path class="cls-1" d="M219.92,65.71l-1.13-.98c-1.35-.1-2.65-.45-3.9-1.05l-.68-1.43c1-1.35,2.1-2.65,3.3-3.9l.98-.15,1.05.15.83-.08c1.15.1,2.25.35,3.3.75.65-.1,1.2-.4,1.65-.9,2.4-3.15,3.62-6.72,3.68-10.73l-.68-.23-.9.23h-1.13l-.83-.83-.3-.83.23-.6c.05-.65.08-1.17.08-1.58.45-.25.83-.57,1.13-.98.55-.2,1-.4,1.35-.6l.75-.9,1.88-.83,1.65.15c.9.2,1.7.25,2.4.15,4.95-.7,10.03-1.2,15.23-1.5h1.35c2.7-.1,5.28-.23,7.73-.38l.83.08h4.28c6.8.45,13.35,1.88,19.65,4.28.5.4.8.93.9,1.58-.3.45-.58.9-.83,1.35l-.75.6.6,3.08.38,2.7-.23.68.23,1.58c.05.75.1,1.43.15,2.03.05.9.1,1.78.15,2.63-.35,1.4-.85,2.75-1.5,4.05-.55.5-1.23.75-2.03.75-.45-.3-.98-.53-1.58-.68-.35-.95-.48-2-.38-3.15.6-4.7.35-9.35-.75-13.95-3.9-1-7.93-1.75-12.08-2.25l-5.48-.3-.75.23c-1-.25-2.13-.35-3.38-.3-2.95.3-5.93.4-8.93.3-1.3,0-2.43.13-3.38.38-1.75.1-3.28.28-4.58.53l-1.2-.08c-1.95.1-3.8.58-5.55,1.43.1,1.55.05,3.1-.15,4.65-.45,4.1-1.83,7.95-4.13,11.55-.7.45-1.3.95-1.8,1.5l-1.58.3-.68-.08c-.65.4-1.3.68-1.95.83l-.75.45-1.8.3ZM225.02,30.15l-1.13-.15-.9-.45-.45-2.55c.4-.8.83-1.62,1.28-2.48l.6-.3.3-.83c1.95-.9,3.85-1.7,5.7-2.4l.9-.15c.4.35.92.48,1.58.38,5.5-1.05,11.15-1.73,16.95-2.03l.08-.75-.6-1.05c.35-.6.75-1.17,1.2-1.73,1.05-.8,2.27-1.2,3.68-1.2l1.58.83c.4.6.6,1.3.6,2.1-.3.4-.43.83-.38,1.28,10.1.65,19.7,2.45,28.8,5.4l.3.9-.75,1.13c-.85.6-1.8.98-2.85,1.13-.7.15-1.3.2-1.8.15h-.9c-4.35-.95-8.83-1.62-13.43-2.03-1.8-.15-3.53-.3-5.18-.45l-1.95-.08c-1-.05-1.83-.12-2.48-.23l-6.38.15c-1.7.25-3.45.45-5.25.6-3.25.2-6.23.58-8.93,1.13-2.1.35-3.98.95-5.63,1.8-1.5,1-3.03,1.63-4.58,1.88ZM237.48,38.93l-1.28-.53v-.75l-.15-.6c1-1.15,1.58-2.45,1.73-3.9l-1.2-.75c-.2-.35-.28-.75-.23-1.2l.53-1.43.6-.3.38-.83.68-.23c.25-.45.38-.87.38-1.28,1.3,0,2.55-.15,3.75-.45l3.98-.3c1.15-.1,2.22-.15,3.23-.15,1.65-.2,3.25-.3,4.8-.3,1.1.2,2.22.23,3.38.08,4.65.2,9.1,1.03,13.35,2.48l1.05,1.28c-.45.4-.73.8-.83,1.2l-.53.45c-.3,1.45-.7,2.83-1.2,4.13l.3.68v.83c-.15.35-1.1.65-2.85.9l-3.38-.45c-1.15,0-2.15-.1-3-.3l-.9.08c-.95-.35-2.05-.47-3.3-.38-1.95,0-3.9-.02-5.85-.08-1.25.1-2.48.23-3.68.38-1.1.2-2.05.4-2.85.6l-1.43-.15h-.68c-1.6.4-3.2.83-4.8,1.28ZM239.28,61.43l-1.73-1.58c-.15-.55-.35-1.07-.6-1.58.35-.3.55-.65.6-1.05.65-.2,1.15-.55,1.5-1.05l1.13-.15c.4-1.15.55-2.37.45-3.68l-.83-.6-1.95.38c-.4-.35-.58-.75-.53-1.2l.15-.9,1.2-.68c.25-.65.62-1.22,1.13-1.73.55-.45,1.15-.8,1.8-1.05l.45-.38,1.43.15c3.3-.4,6.7-.72,10.2-.98l.75.08.6-.08c6.1.25,11.9,1.33,17.4,3.23.45.4.62.88.53,1.43l-.53.3-.23.6c.5,1.15.75,2.4.75,3.75l-.53,2.03c.7.6,1.02,1.43.98,2.48l-1.65,1.35c-1.1.35-2.3.53-3.6.53h-.98l-.68-.15c-1.9-.35-3.73-.53-5.48-.53l-1.5-.15-.75.15-.75-.15-1.73.23c-.8-.15-1.65-.23-2.55-.23-1.5.4-3.13.58-4.88.53l-.98-.08-4.95.45c-1.4-.05-2.63.05-3.68.3ZM266.88,34.5l.08-.6-.45-2.33c-1.9-.55-3.9-.85-6-.9-2.35-.1-4.68-.12-6.98-.08-1.6.25-3.28.43-5.03.53l-.98.08-3.45.38c-.85.05-1.58.25-2.18.6-.3.7-.45,1.43-.45,2.18l.9.3c3.2-.55,6.53-.9,9.98-1.05h5.78l8.78.9ZM268.83,56.03l-.23-2.78-.68-1.73c-2.2-.6-4.53-.98-6.98-1.13-2-.4-3.98-.6-5.93-.6h-1.28c-2.7.2-5.43.45-8.18.75l-1.2-.08-.6.38c.2,1.5.15,3.03-.15,4.58.4.15.87.2,1.43.15,1.4-.05,2.75-.2,4.05-.45,2.55-.15,5-.27,7.35-.38l1.05.23,1.58-.08c3.3.15,6.55.53,9.75,1.13Z"/>
        <path class="cls-1" d="M295.01,60.01c-.7-.85-1.3-1.77-1.8-2.78l.15-.75-.15-.83c.4-.55.53-1.2.38-1.95.5-1.05,1.05-1.97,1.65-2.78,3.3-2.2,6.93-3.5,10.88-3.9,2.1-.2,4.08-.47,5.93-.83,2.95-.4,5.9-.62,8.85-.68l.68.08,6.38-.15c8.1-.1,15.85,1.35,23.25,4.35,3.85-.25,8.08-1.22,12.68-2.93l-.45.75.15,1.05-2.18,1.58c-.05.5-.33.93-.83,1.28l-.98.6-.75.75c-1.5.7-2.95,1.53-4.35,2.48l-.38.9-.68.08-.6.3c-.8.8-1.68,1.25-2.63,1.35h-.75c-8.4-4.9-17.6-7.38-27.6-7.43-2.05,0-4,.2-5.85.6-5.9.3-11.25,1.73-16.05,4.28-.85.95-1.45,2-1.8,3.15l-.68.6-2.48.83ZM309.56,28.43c-.6-.25-1.18-.47-1.73-.68-.8-.9-1.15-2-1.05-3.3.45-.6.8-1.17,1.05-1.73,2.45-1.35,5.05-2.33,7.8-2.93.65.35,1.37.5,2.18.45,2.55-.35,5.1-.65,7.65-.9l2.63.08,1.05-.08c6.05-.25,11.9.95,17.55,3.6-.25.4-.43.88-.53,1.43l-.3.9-1.2,1.43-1.5.23c-3.9-.45-7.8-.85-11.7-1.2l-.68.23c-1.4-.35-2.78-.35-4.13,0-5.25,0-10.08.83-14.48,2.48l-.83-.3-.98.08-.83.23ZM311.14,42.16c-.9-.15-1.7-.55-2.4-1.2-.6-.45-1.1-.98-1.5-1.58v-1.28c.15-1.35.47-2.63.98-3.83,2.15-.7,4.38-1.15,6.68-1.35.85-.1,1.7-.08,2.55.08,3.55-.15,7.03-.4,10.43-.75,5.8-.05,11.6,1.1,17.4,3.45.45.7,0,1.53-1.35,2.48l-.83.08.15.9-1.35,1.05c-1.15.05-2.2-.05-3.15-.3-2-.55-4.45-.95-7.35-1.2l-.9.15-2.93-.23c-2.2.25-4.43.48-6.68.68l-.68-.15-2.85.08c-1.75.2-3.35.98-4.8,2.33-.2.3-.5.4-.9.3l-.53.3Z"/>
        <path class="cls-1" d="M387.42,66.31l-.53-.3c-.9-1.4-1.45-2.9-1.65-4.5.1-1.55.27-3.12.53-4.73.3-2.55.53-5.52.68-8.93l-.98-.38c-.8.3-1.5.78-2.1,1.43-1.35.6-2.68,1.33-3.98,2.18l-1.2,1.35-.15.6-1.35.23-.6-.15c-.45.25-.98.38-1.58.38l-.9-.38c-.6-1.3-1.05-2.65-1.35-4.05.2-.8.32-1.6.38-2.4l-.15-.6.23-.68c4.6-2.15,9.38-3.83,14.33-5.03.3-1.05.45-2.4.45-4.05-.1-1.7-.13-3.4-.08-5.1l-.3-.53-1.5-.08-1.95.08c-1.4,0-2.58-.15-3.53-.45-1,2-2.43,3.73-4.28,5.18-1.7.25-3.35.55-4.95.9-.45-.35-.78-.77-.98-1.28l-.23-1.13.83-.45c.3-.85.77-1.65,1.43-2.4.85-.45,1.62-1.05,2.33-1.8l.53-.6c1.55-2.1,2.33-4.83,2.33-8.18l.6-1.43,1.5-.9.9.08,1.58,1.13.08,1.43c.55,1.4.85,2.4.9,3,.8.25,1.7.35,2.7.3l2.63-.3c.05-2.2.17-5.3.38-9.3l1.58-1.28c.95,1.15,1.47,3.05,1.58,5.7l.08,2.03v2.55c2.35,0,4.47.68,6.38,2.03l.3.98-.23.68.08.38c5-1.5,10.2-2.52,15.6-3.08l.3-1.58c-.45-.35-1-.45-1.65-.3-2.45.25-4.9.68-7.35,1.28l-.53-.3c-.2-.6-.3-1.25-.3-1.95.1-1.35.62-2.55,1.58-3.6.55,0,1.1-.17,1.65-.53,2.15-.55,4.3-.9,6.45-1.05,0-.85.23-1.6.68-2.25.45-.5,1-.85,1.65-1.05.7.9,1.17,1.9,1.43,3,4.85.05,9.35,1.15,13.5,3.3.4.75.68,1.5.83,2.25l-.3.6c-2.1.75-4.25.88-6.45.38-1.3-.2-2.65-.4-4.05-.6l-1.05-.08-2.18.38c-.45.6-.68,1.3-.68,2.1l.68.38c4.7-.3,9.38.03,14.03.98,2.4.4,4.6,1.05,6.6,1.95.25.5.35,1.05.3,1.65-.3.4-.68.7-1.13.9l-1.13.08-.83.15c-2.1-.2-4.2-.47-6.3-.83l-.9.23c-1.1-.35-2.23-.55-3.38-.6-4.25-.25-8.5-.38-12.75-.38-5.2.05-10,1.38-14.4,3.98-.75-.05-1.33-.35-1.73-.9l-.08-.83c.25-.8.57-1.58.98-2.33-1.8.85-3.7,1.4-5.7,1.65-.35.7-.53,1.48-.53,2.33-.25,1.45-.38,2.78-.38,3.98s.05,2.1.15,2.7l1.58.08,1.2-.15c.65.4,1.15.93,1.5,1.58l.08.83c-.95,1.8-2.4,3.05-4.35,3.75-.35.45-.5,1-.45,1.65-.3,3.3-.38,6.1-.23,8.4-.25.65-.35,1.4-.3,2.25l.15.68-.23.75.23.98c-.5,1.45-.63,2.93-.38,4.43-.35.4-.6.85-.75,1.35l-1.43.23ZM407.15,64.06c-.65-.15-1.23-.45-1.73-.9l.08-1.35c6.05-2.35,11.53-5.67,16.43-9.98,1.15-1,1.7-2.25,1.65-3.75l-.3-2.85-.53-6.08c-1.1,0-2.05-.05-2.85-.15-3.25.25-6.48.28-9.68.08-1.6.2-3.18.48-4.73.83-1.5.1-2.8.38-3.9.83-.8,1-1.65,1.53-2.55,1.58-.4-.1-.68-.35-.83-.75-.3-.85-.43-1.77-.38-2.78.2-1.4.62-2.7,1.28-3.9,3.4-1.05,6.93-1.77,10.58-2.18,4.45.05,8.9.15,13.35.3l.98-1.65,1.5.15,1.13,2.1c4.05.8,8.73,2.05,14.03,3.75l-2.25,2.03c0,.6-.28,1.1-.83,1.5h-1.28c-.85.1-1.7.28-2.55.53l-1.73-.23c-1.75-.5-3.25-.92-4.5-1.28.1,5.2-.03,8.35-.38,9.45l.23.6c.2,2.3-.95,4.28-3.45,5.93-5.45,3.5-11.05,6.23-16.8,8.18ZM414.35,53.18c-.95-.15-1.83-.55-2.63-1.2-1-2-1.83-4.08-2.48-6.23.25-.95.3-1.92.15-2.93l1.05-.83c1.25.25,2.35.75,3.3,1.5,1.15,1.25,1.9,2.65,2.25,4.2-.2,2-.75,3.83-1.65,5.48Z"/>
        <path class="cls-1" d="M462.88,64.13l-1.05-.9c-.2-.7-.33-1.4-.38-2.1.1-.6.35-1.07.75-1.43,4.15-4.1,7.7-8.53,10.65-13.28.7-1,1.15-2,1.35-3-1.5-.4-3.1-.75-4.8-1.05l-.83.68c-.9,1.3-1.95,2.6-3.15,3.9-2.85,2.25-5.8,4.38-8.85,6.38-.6.45-1.23.8-1.88,1.05-.4-.45-.88-.68-1.43-.68-2.05-1.15-4.08-2.22-6.08-3.23-.4-1.15-.85-2.25-1.35-3.3l.45-1.58.3-1.65c.95-.3,1.85-.55,2.7-.75,2,1.4,4.17,2.38,6.53,2.93,3.55-1.9,6.65-4.35,9.3-7.35.3-.95.7-1.9,1.2-2.85.3-.5.7-.65,1.2-.45.55-.35,1-.77,1.35-1.28l.15-.38-.53-.15-3.3.45-2.03-.08c-1.6-.1-2.95.33-4.05,1.28l-1.05.6c-1.3-1.15-1.95-2.48-1.95-3.98.2-.9.55-1.77,1.05-2.63l.75-.3c.3-1.15.45-2.35.45-3.6-.3-.6-.55-1.32-.75-2.18l.23-.75-.15-.9c.3-1.2.72-2.35,1.28-3.45,2.6-1.05,5.45-1.52,8.55-1.43l.9.08,1.95-.15c2-.3,3.95-.45,5.85-.45l.68.15.9-.08c2.8.15,5.33.95,7.58,2.4.5.75.8,1.6.9,2.55l-.83,1.35-1.05.75v.6l.3,2.18c0,1.95-.63,3.68-1.88,5.18l.23.53-.83,1.05c-1.2.55-2.45.95-3.75,1.2h-.68c-1.5-.25-3.03-.4-4.58-.45l-.9,1.65c3.05.5,5.85,1.5,8.4,3,.3.45.42,1.03.38,1.73l-.3.38.38.9-.6.45.15,1.13-.53.6h-.68c-.6.35-1.1.78-1.5,1.28-3.1,6.55-7.25,12.6-12.45,18.15-.9.5-1.8.93-2.7,1.28ZM480.06,28.05l.3-3.83c-2.55-.85-5.23-1.3-8.03-1.35-1.25.35-2.53.6-3.83.75l-4.13-.08-1.88.45c-.25,1.1-.43,2.25-.53,3.45l.38.45,1.2.15c1.45-.2,2.95-.35,4.5-.45l.98.15c2.1-.25,4.28-.35,6.53-.3,1.55.1,3.05.3,4.5.6ZM486.06,42.38l-.75-.23-.37-.83-.6-2.7c.55-1.15.95-2.35,1.2-3.6l.97-.23.45-.75,1.2-.23.68-.83c.6.55,1.1,1.03,1.5,1.43l.6.3c1.65-1.4,3.6-2.15,5.85-2.25l.67.3c.05,1.05-.1,1.8-.45,2.25l-.75.38-.07.68-.98.38-2.17,2.1-.38,1.35c-.5,0-.9.1-1.2.3l-.6,1.05c-1.25.85-2.65,1.23-4.2,1.13h-.6ZM493.71,64.73c-.35-.25-.75-.35-1.2-.3l-1.05-.68c0-1.2.42-2.1,1.28-2.7,4.35-1.8,8.42-4.05,12.23-6.75,1.7-3.4,2.58-7.08,2.63-11.03-.35-5.45-.38-10.9-.08-16.35,0-.4-.15-.72-.45-.98-.45-.3-.82-.68-1.12-1.13l-.6-.68c.4-.8.52-1.47.37-2.03-.7-.8-1.1-1.75-1.2-2.85l.45-1.8c.9-.05,1.73-.23,2.48-.53l1.35.3.6-.08.75.38c.6,1.95,1.1,3.9,1.5,5.85.15,1.8.2,3.58.15,5.33.4,7.5.47,15.03.22,22.58-.55,1.05-.82,2.2-.82,3.45-.5,1.9-1.08,3.68-1.73,5.33-1.25.8-2.55,1.08-3.9.83l-1.8.53c-3.55.95-6.9,2.05-10.05,3.3Z"/>
        <path class="cls-1" d="M526.64,61.96l-.68-.23-.98.08-1.58-.75-.68-1.58c0-1.3.2-2.42.6-3.38h.98c.9-.6,1.88-1,2.93-1.2l.68-.6.68.08,4.13-1.43c.2-.9.3-1.85.3-2.85v-7.8l-.83-.38c-2.2.25-4.35.7-6.45,1.35-.5-.6-.98-1.25-1.43-1.95l-.53-1.8.3-2.1.6-1.43c.45.15.85-.02,1.2-.53.55.2,1.07.25,1.58.15l1.2-.83.83.08.98-.23c.65.4,1.43.53,2.33.38l.3-4.43v-1.5c-.65-.7-1-1.52-1.05-2.48-.55-.45-1.15-.62-1.8-.53-1.5.05-2.85.4-4.05,1.05-.65-.2-1.28-.5-1.88-.9-.4-1.15-.85-2.27-1.35-3.38l.08-.83.9-.98.15-1.28c2.5-1.1,5.18-1.67,8.03-1.73l2.63.6c3.7-.3,6.87.45,9.53,2.25.55.65.92,1.35,1.13,2.1.1.85-.18,1.58-.83,2.18-.4.2-.83.25-1.28.15l-.98-.23-1.88.53-.6-.15c-.6.05-1.13.25-1.58.6-.45,1-.5,2.03-.15,3.08-.35.6-.53,1.25-.53,1.95v2.48l.3,1.28c1.9.3,3.53,1.18,4.88,2.63l.38.9c0,.75-.35,1.23-1.05,1.43l-.68.38c-1.4.3-2.58.7-3.53,1.2-.25,2.6-.48,5.25-.68,7.95l.3,2.33.83.08,1.73-.15,1.43.68c.25.4.35.85.3,1.35l-1.2,1.05c-.95.35-1.88.75-2.78,1.2-.75.7-1.55,1.28-2.4,1.73l-1.28.3c-1.3.2-2.38.63-3.23,1.28l-.53,1.2c-1.15.75-2.4,1.28-3.75,1.58ZM546.97,65.78c-.45-.95-.7-1.95-.75-3,8.15-10.15,11.85-21.7,11.1-34.65l-.08-.68.3-1.88c-.35-2.95-.13-5.88.68-8.78l1.43-1.65c1.25.35,2.42.63,3.53.83.35.5.53,1.08.53,1.73-1,3.05-1.53,6.33-1.58,9.83-.1,7-.4,14-.9,21-.45.75-.8,1.53-1.05,2.33l-.53.3c-.25,1-.65,1.95-1.2,2.85-.8.65-1.55,1.4-2.25,2.25l-.6.9c-2.35,3.2-5.23,6.08-8.63,8.63ZM549.59,39.23c-.65-.15-1.25-.4-1.8-.75-.4-.8-.68-1.65-.83-2.55-.05-.95-.05-1.82,0-2.63l.38-2.48-.6-.98.15-.98-.15-.75c.35-.6.53-1.28.53-2.03.25-.95.7-1.65,1.35-2.1.85-.65,1.8-1.02,2.85-1.13l.6.15.68-.08.45,1.28c.35,1.5.6,2.9.75,4.2-.3,1.6-.63,3.2-.98,4.8l.08.75c0,1.5-.45,2.85-1.35,4.05-.6.65-1.3,1.05-2.1,1.2ZM563.77,60.31c-.65-.15-1.1-.53-1.35-1.13l-.53-1.43c.4-1,.65-2.05.75-3.15l1.05-.75.45-.53c1.5-.25,2.9-.7,4.2-1.35l.45-.6c1.75.5,3.5.73,5.25.68.25-.9.38-1.88.38-2.93-.1-1.7-.1-3.4,0-5.1-1.9-.6-3.83-.72-5.78-.38-.65-.25-1.23-.68-1.73-1.28v-1.28c.05-.9.15-1.65.3-2.25l.83-1.65,4.95-.75.75.08.75-.3.15-2.25-.6-1.73c.15-.75.25-1.5.3-2.25l-.98-.23-3.75.3c-.5-.2-1.03-.38-1.58-.53-.55-.8-.95-1.67-1.2-2.63v-1.13c.35-1.3.75-2.6,1.2-3.9,2.9-.6,5.9-.9,9-.9,4.65.25,8.85,1.65,12.6,4.2.8.7,1.17,1.58,1.13,2.63l-.53.98-1.05.68-.53,1.5-2.78.15c-2.15-.75-4.4-1.28-6.75-1.58-.4.5-.55,1.08-.45,1.73.25,1.55.32,3.1.23,4.65,3.4-.2,6.38.65,8.93,2.55.75.9,1.13,1.95,1.13,3.15l-.68.3-.6-.15-.68.98-1.28.45c-1.05-.3-2.18-.4-3.38-.3-1.2,0-2.28.18-3.23.53-.2,1.8-.43,3.58-.68,5.33.1.95.05,1.9-.15,2.85l.53.45c4.55,0,8.73,1.2,12.53,3.6l.15,1.13-.15.98c-.55.25-1.08.48-1.58.68l-.9.9-.98.53c-3.2-.85-6.6-1.28-10.2-1.28-.65.3-1.33.4-2.03.3l-3.98-.08c-2.7.45-5.35.95-7.95,1.5Z"/>
        <path class="cls-1" d="M217.3,108.27l-1.8-.68-.38-2.03c.3-.6.55-1.25.75-1.95l1.88-1.5c4.65-1.5,9.5-2.37,14.55-2.63l1.13.23.08.53c-3.95,1.45-7.83,3.23-11.63,5.33l-.98,1.13-.45.83c-.6.1-1.2.28-1.8.53l-1.35.23ZM221.12,122.38c-.8-.2-1.58-.53-2.33-.98-.45-.85-.68-1.77-.68-2.78-.05-1.4.47-2.65,1.58-3.75,3-2.8,6.38-5.22,10.13-7.28.45-.15.87-.3,1.28-.45l.75.45c-.05,1.15-.43,2-1.13,2.55l-.53.53c-1.7,1.4-3.28,2.93-4.73,4.58.3.75.4,1.45.3,2.1-.45,1.05-.9,2.08-1.35,3.08l-.45.45c-.55.2-1.05.53-1.5.98-.4.35-.85.53-1.35.53ZM229.67,96.2c-1.65-.25-3.33-.57-5.03-.98l-.68.15-1.88-.23c-1.1-.15-1.95-.45-2.55-.9.3-.5.42-.95.38-1.35l-.23-.9-.3-.53c.35-1.1.75-2.15,1.2-3.15.55-.45,1.15-.85,1.8-1.2l.98.15c.65-.2,1.35-.3,2.1-.3,3.6.9,7.1,2.15,10.5,3.75.6.4,1.02.9,1.28,1.5-.65.9-1.38,1.73-2.18,2.48-.55-.15-1.08-.2-1.58-.15-.5.55-1.1.85-1.8.9l-.3.6-1.73.15ZM243.4,135.35l-1.73-.83c-.95-.8-1.98-1.58-3.08-2.33-1.55-.35-3.18-.5-4.88-.45h-.75l-.98.08c-1.35-.3-2.7-.65-4.05-1.05-.6-.75-1.33-1.43-2.18-2.03.1-.9.3-1.6.6-2.1.8-.35,1.58-.62,2.33-.83,1.75.55,3.5,1.15,5.25,1.8,2.8-.35,5.6-.65,8.4-.9.7.25,1.47.35,2.33.3,5.9-1.8,11.13-4.88,15.68-9.23,2.7-2.05,5.18-4.3,7.43-6.75l.83-1.05c-1.5-.45-2.65-1.35-3.45-2.7l-.08-.53.3-.68c7.65,2.7,15.15,5.15,22.5,7.35l-.68,1.43c-1.2.7-2.2,1.55-3,2.55l-.23.68c-1.45.15-2.95.25-4.5.3l-.68-.45c-1.4-.35-2.53-1-3.38-1.95-1.05-1.1-2.15-2.05-3.3-2.85-.75.1-1.3.35-1.65.75-2.5,2.55-4.8,5.18-6.9,7.88-1.5,1.4-3.05,2.7-4.65,3.9-2.05,1.15-4.05,2.48-6,3.98-.8.75-1.68,1.43-2.63,2.03l-2.55,1.35h-.68l-2.4.9-1.28,1.43ZM238.9,119l-.6-.38-.75.08-.9-.15c-1.35-.35-2.53-.75-3.53-1.2-.85-.55-1.6-1.22-2.25-2.03l-.23-1.65.23-.75c.35-.6.57-1.17.68-1.73h.98c.75-.3,1.47-.55,2.18-.75l1.58.9,1.65,1.35,1.8.15c3.2-1.1,6.1-2.85,8.7-5.25l.15-.6-.15-.6h.75l.83-.3.15-1.05.98.3,1.88-.08.68.38v.9c-.15.75-.43,1.48-.83,2.18-.75.55-1.38,1.2-1.88,1.95-.15.6-.48,1.1-.98,1.5-1.8,1.8-3.85,3.4-6.15,4.8-1.5,1.05-3.15,1.73-4.95,2.03ZM258.03,117.43l-.53-.3c.35-3.25.62-6.33.83-9.23-.85-1.2-1.58-2.48-2.18-3.83l.38-.45c-.7-.15-1.45-.23-2.25-.23l-.6.08-1.43-.15h-.83c-2.75.35-5.35,1.05-7.8,2.1-.4.5-.9.93-1.5,1.28l-.83.68c-.7.3-1.3.7-1.8,1.2l-.53.45c-1.5-1-2.1-2.25-1.8-3.75l.08-.75-.23-.68c.6-.25,1-.62,1.2-1.13,3.35-1.75,6.8-3.02,10.35-3.83l1.5-.08c.2-1.3.32-2.6.38-3.9l-1.05-3.45,1.28-1.2h.68l.53.15.98-.15c.45.1.72.35.83.75l-.15.98c.9,1.35,1.35,2.85,1.35,4.5l-.45,1.88,1.28.3c.5.05.9-.1,1.2-.45l.23-1.73-.38-.68c.5-.85.72-1.65.68-2.4.15-.6.17-1.1.08-1.5l-1.05-.75-.38-.9-.6-.45.08-.68-.3-.6c.4-.1.8-.23,1.2-.38l-.6-1.65,1.28-1.13.68-.68c.75,0,1.4-.12,1.95-.38l1.2-.3,1.13.6c.9.75,1.45,1.65,1.65,2.7-.4.55-.55,1.15-.45,1.8l.3,1.35,1.5.08,2.4-.08c4.35.45,8.28,1.83,11.78,4.13l.08.75-.53.98c-.6,0-1.1.2-1.5.6l-.9.9-.75.15c-3.8-2.05-7.98-3.27-12.53-3.68l-.53.53.15.53c-.3,1-.5,1.98-.6,2.93,7.1-.1,13.68,1.45,19.73,4.65l1.2.98.15.83-.68,1.05c-.7.1-1.35.43-1.95.98-.55.5-1.15.7-1.8.6-4.8-2.15-9.9-3.35-15.3-3.6l-.3.98c.35,1.35.62,2.78.83,4.28.1,2.55-.63,4.8-2.18,6.75l-.83.3-.6.53c-.75.4-1.55.68-2.4.83Z"/>
        <path class="cls-1" d="M300.03,128.9c-1-.3-1.98-.4-2.93-.3-1.45-.4-2.85-.95-4.2-1.65-.85-1.25-1.38-2.55-1.58-3.9.25-.6.45-1.22.6-1.88l-.23-.83.98-.38.23-.75.83.3.3-.9,1.65.75.68.23c.45-.05.75.13.9.53l1.05,1.13,1.2.23c1.5-.4,2.87-1.13,4.13-2.18,2.2-2.2,4.08-4.58,5.63-7.13-1.45-.6-2.78-1.45-3.98-2.55-.65-.6-1.05-1.32-1.2-2.18-2.9,2.1-5.93,3.6-9.08,4.5l-.75-.68-.9-.6c-.25-.35-.35-.75-.3-1.2l.08-.98-.08-1.35c.9-.8,1.92-1.52,3.08-2.18,2.75-1.5,5.3-3.42,7.65-5.78,3.1-2.3,5.7-4.98,7.8-8.03l3.23-.9,1.8.9c.2.45.25.98.15,1.58l-.45,1.73-.6.53c.6.45,1.3.65,2.1.6l1.58-.23c1.15.15,2.25.58,3.3,1.28l-.3.98.3,1.2c0,.5-.18.9-.53,1.2-.7.3-1.28.8-1.73,1.5-2.7,6.9-5.9,13.55-9.6,19.95l-.6.6c.15.75-.13,1.4-.83,1.95-1,.05-1.83.55-2.48,1.5-.55.65-1.08,1.3-1.58,1.95l-.75-.15-1.95.9-.83.68h-1.8ZM311.96,108.65c1.25-2.7,2.7-5.35,4.35-7.95-1.45-.45-2.9-.85-4.35-1.2-1.5,1.9-3.25,3.7-5.25,5.4l-1.13.75c1.95.2,3.68.83,5.18,1.88l1.2,1.13ZM333.19,132.95l-1.05-.53c-.5-.9-.78-1.85-.83-2.85l.75-9.23v-1.13l-.08-1.05c.25-1.55.4-3.17.45-4.88.2-3.05.15-6.08-.15-9.08.25-1,.38-2.03.38-3.08l-.6-1.65c.5-2.35.47-4.7-.08-7.05-1.05-1.4-1.48-2.9-1.28-4.5l.6-1.28c.75-1.15,1.85-1.58,3.3-1.28,1.25,2.6,2.18,5.38,2.78,8.33l.08.75-.3.9.23.68c.1,2.2.55,4.2,1.35,6,2.9,3.65,6.28,7.03,10.13,10.13,3.7,3,7.95,4.73,12.75,5.18l2.63-.23c.4.15.62.45.68.9l-.45.98c-.9.8-1.93,1.23-3.08,1.28-.55.45-.85,1.05-.9,1.8-1,.65-2.2.98-3.6.98l-.75-.15-.68.45v1.05c-.65.4-1.35.53-2.1.38-2-1.15-3.95-2.42-5.85-3.83-3.35-3.3-6.38-6.9-9.08-10.8l-.45.83c-.1,1.2-.15,2.45-.15,3.75.25.55.38,1.15.38,1.8-.1.8-.18,1.6-.23,2.4.15,1.6.08,3.15-.23,4.65-.45,3.3-1.35,6.25-2.7,8.85-.5.45-1.13.63-1.88.53Z"/>
        <path class="cls-1" d="M388.17,133.03l-.68-.6-1.95-1.28c.35-.35.77-.6,1.28-.75,4.8-.75,9.53-2.3,14.18-4.65.6-1.2.92-3.2.98-6-.3-.3-.68-.45-1.13-.45-2.1.35-4.18.55-6.23.6-3.1.25-5.98.95-8.63,2.1l-1.05.9-.75.15c-.8-.15-1.48-.4-2.03-.75l-.75-1.58.6-1.13-.08-.68.68-.98c1.8-.8,3.7-1.35,5.7-1.65.45.35,1.05.5,1.8.45,3.9-.35,7.85-.77,11.85-1.28l.23-1.2-.3-.75-.98-.23c-2.2.05-4.76.16-7.69.34-2.93.18-6.26.59-10.01,1.24-2.8.9-5.48,1.78-8.03,2.63l-.68.68-.9.08-1.28.23-.6-.23-.75.08c-.45-.25-.75-.55-.9-.9.35-1.45.75-2.85,1.2-4.2,2.5-1.25,5.28-1.95,8.33-2.1l1.35.3c2.75-.35,5.86-.77,9.34-1.28,3.47-.5,6.51-.75,9.11-.75,1.05-.1,2.05-.25,3-.45l.08-.53v-1.65l-3,.3c-2.25.4-4.95.68-8.1.83-1.25.15-2.4.5-3.45,1.05l-.9.15c-.85.1-1.55.33-2.1.68-.75-.45-1.53-.87-2.33-1.28-.45-.4-.68-.85-.68-1.35.5-.7.8-1.52.9-2.48l.75-.68,2.1.23,1.28-.3c-.55-.7-1.15-1.02-1.8-.98l-1.58-.75-.23-.9,1.28-1.2,1.2-.75.08-.38c3.2-.1,5.65-.3,7.35-.6,2.1-.35,5.13-.62,9.08-.83l.3-1.05v-1.13l-1.43-.15c-3.5.25-6.88.58-10.13.98l-1.2.45c-2,.35-3.55.7-4.65,1.05l-1.58-.68-.3-1.2c.55-1.3,1.07-2.57,1.58-3.83,1.6-.35,3.25-.62,4.95-.83l.75.08c2.4-.3,4.8-.62,7.2-.98,1.6-.05,3.02-.15,4.28-.3l.08-1.35c-1.1-.1-2.28-.15-3.53-.15-1.1.15-2.23.2-3.38.15l-.6-.08c-3.45.35-7.08.88-10.88,1.58-1.45.4-1.98.85-1.58,1.35l-1.35,1.2c-.6.4-1.3.55-2.1.45-1.15-.25-2.23-.65-3.23-1.2l-.68-1.88,1.35-2.1.98-.9c3-1.15,5.38-1.8,7.13-1.95l.75.6c5.55-.95,11.1-1.52,16.65-1.73.15-.95.5-1.55,1.05-1.8l1.13.45c1.6.15,2.63.68,3.08,1.58h3.9c7.25.05,12.33.75,15.23,2.1l.83,1.35-.98,1.8c-4.45-.45-10.5-.8-18.15-1.05h-1.2l-.08,1.73c4.95.05,9.48,1.05,13.58,3,.2.65.4,1.25.6,1.8l-.45,1.28-.38,2.7c-.8,1.25-1.63,2.28-2.48,3.08-3.25-.55-6.65-.92-10.2-1.13l-.53,1.73h1.65c4.65.25,8.95,1.18,12.9,2.78.3.9.65,1.73,1.05,2.48l-.98.68c-2.65-.55-7.45-1.02-14.4-1.43-.25.4-.38.88-.38,1.43l.53.53c2.15.15,4.3.33,6.45.53l7.2.08c3.55.5,6.18.98,7.88,1.43,1.7.45,3.2.55,4.5.3,1.3-.25,3.23-.47,5.78-.68,2-.05,3.27-.1,3.83-.15l-.45,1.65c-2,.65-3.3,1.13-3.9,1.43-1.15.4-2.25,1.18-3.3,2.33-1.05,1.15-1.88,1.78-2.48,1.88-3.75-1.6-8.98-3-15.68-4.2-3.15-.25-6.3-.45-9.45-.6l-.23,2.03c3.1.35,6.2.55,9.3.6l5.03.45c1,.4,1.95.9,2.85,1.5.4.35.55.78.45,1.28-.3.45-.7.8-1.2,1.05-2.2-.05-3.58-.08-4.13-.08-4.05.05-8.13-.12-12.23-.53l-.68.3c-.2,4.55-1.03,8.2-2.48,10.95-.45.55-1,.98-1.65,1.28-.35-.4-.8-.42-1.35-.08-.25.3-.58.4-.98.3l-.6-.08-.75.08c-4.2,1.15-7.75,1.47-10.65.98ZM402.2,102.42l.15-1.13c-.35-.3-1.43-.32-3.23-.08-4.2.35-8.23,1.1-12.08,2.25.6.35,1.22.5,1.88.45,4.35-.7,8.78-1.2,13.28-1.5ZM415.77,98v-1.13l-.38-.98c-2.7-.45-5.43-.65-8.18-.6l-.45.45-.15,1.28c3.15.4,6.2.73,9.15.98Z"/>
        <path class="cls-1" d="M461.68,134.9c-.7.05-1.15-.23-1.35-.83.4-1.4.6-2.95.6-4.65.15-2.3.27-4.77.38-7.43-.1-1.75-.25-3.17-.45-4.28l-.6-.08c-2.55,3.7-5.53,6.55-8.93,8.55-.8.1-1.58.25-2.33.45-.3-.25-.7-.32-1.2-.23l-1.2.15-1.05-.38-.15-1.05c4.7-4.5,9-9.25,12.9-14.25.35-.6.47-1.3.38-2.1l-.45-.98c-3.6.3-6.73,1.15-9.38,2.55-.3.5-.8.7-1.5.6-.75-.1-1.45-.42-2.1-.98-.4-.7-.63-1.43-.68-2.18.4-.6.6-1.28.6-2.03.7-.85,1.55-1.43,2.55-1.73,3.3-1.3,6.65-2.18,10.05-2.63-1.95-1.85-3.83-3.62-5.63-5.33-.85,0-1.58-.12-2.18-.38l-.9-1.95v-.68c.7-1.2,1.25-2.42,1.65-3.68,4.25-.95,8.55-1.52,12.9-1.73,3.25.15,6.18,1.15,8.78,3l.6,1.65c-1.25,2-2.83,3.88-4.73,5.63l-4.5,2.7c3.4.3,6.48,1.1,9.23,2.4l.6.83.98,1.73,1.43.08,1.13-.23c1.9.8,4.05,1.18,6.45,1.13,2.05-.55,3.87-1.47,5.48-2.78-2.35-1.4-4.73-2.65-7.13-3.75l-.23-1.05c-1.15.7-2.28,1.05-3.38,1.05l-1.35.15c-.7-.05-1.25-.32-1.65-.83l-.15-.98c3.65-3.1,5.85-6.7,6.6-10.8l-.23-.83.38-1.43c.2-.75.6-1.22,1.2-1.43l.83.08,1.35-.3c1.05.35,1.73.9,2.03,1.65l.22,1.13-.22.83.22,1.13-.15,1.95c.55.15,1.17.2,1.88.15,3.85-.15,7.7-.2,11.55-.15,3.8.1,7.25,1,10.35,2.7.65.65,1.07,1.38,1.27,2.18-.5.2-.97.38-1.42.53,0,.4-.43.88-1.28,1.43-1.5-.2-3-.3-4.5-.3-1.05-.15-2.13-.25-3.22-.3-1.1.1-2.18.13-3.23.08-.45,1.9-1.08,3.75-1.87,5.55,6.3,4.15,13.3,6.55,21,7.2l.15,1.13-.75.9c-2.2.65-4.38,1.25-6.53,1.8-1.15,0-2.15.2-3,.6-.2.35-.27.78-.22,1.28l-.38,1.05.15,1.05c-.65,4.4-3.43,9.8-8.33,16.2-.7.3-1.43.57-2.18.83l-1.95-.23-.37-1.13c5.15-6.05,8.05-11.18,8.7-15.38-2.45-.25-4.78-.57-6.98-.98-.75,0-1.4.2-1.95.6-3.15,2.95-6.05,5.98-8.7,9.08-1.2,1.35-2.55,2.5-4.05,3.45-1.05.75-2.2,1.2-3.45,1.35-1.45.5-2.88.73-4.28.68l-2.7-1.43c-.35-.55-.55-1.15-.6-1.8l.68-1.05c1-.2,1.9-.47,2.7-.83l.68.15c1.85-.8,3.53-1.92,5.03-3.38,2.65-1.8,5.13-3.78,7.43-5.93l-.98-.3c-1.95.2-3.73.4-5.33.6l-.75-.15-1.13.45-1.88-.53c-.55-.65-.78-1.4-.68-2.25.65-.6,1-1.35,1.05-2.25.65-.4,1.3-.7,1.95-.9.45.2.95.28,1.5.23,2.85-.45,5.73-.85,8.63-1.2.8.05,1.45-.05,1.95-.3.4-.6.52-1.35.37-2.25l1.13-.38c.35-.35.77-.53,1.27-.53l1.05-.23c-.55-.7-1.23-1.15-2.02-1.35-.55.45-1.15.78-1.8.98-.3.35-.75.48-1.35.38-2.5,1.45-5.13,2.58-7.88,3.38-.9-.2-1.85-.3-2.85-.3-2.4-.15-4.4-.77-6-1.88l-.3-.75c-1.2,1.05-2.25,1.73-3.15,2.03-1.75,1.05-3.28,2.25-4.58,3.6.35,1.1.62,2.13.83,3.08.45,1.85.65,3.68.6,5.48-.4,2.15-.58,4.28-.53,6.38,0,2-.73,3.98-2.18,5.93l-1.05.45h-1.28ZM461.16,97.7c1.5-.9,2.9-1.88,4.2-2.93-.65-.4-1.4-.6-2.25-.6l-2.4.15-.9-.15c-.85,0-1.68.18-2.48.53l3,3.23.83-.23ZM464.76,110c.8-.6,1.45-1.28,1.95-2.03-.95,0-1.88-.08-2.78-.23h-1.13l.98,2.48.98-.23ZM492.29,100.25c.8-1.1,1.3-2.27,1.5-3.53l-.68-.23-4.95.45-2.02-.23v.83c.6.75,1.27,1.28,2.02,1.58,1.25.5,2.63.88,4.13,1.13ZM501.14,111.5c-1.7-1.45-3.5-2.72-5.4-3.83v3c1.7.4,3.5.68,5.4.83Z"/>
        <path class="cls-1" d="M583.8,133.25c-.75-.2-1.33-.6-1.73-1.2l-.3-1.73c2.55-6.2,4.13-12.65,4.73-19.35-5.5-1.9-11.23-3.23-17.18-3.98l-3.23-.08c-1.15-.15-2.23-.25-3.23-.3-3.75.1-7.43.1-11.03,0l-.9.23-1.73-.3c-1.35.3-2.7.63-4.05.98l-.45.53-2.25-.53-.9.23c-1.8,5.45-4.3,10.68-7.5,15.68l-.83.23c-.6.55-1.08,1.13-1.43,1.73-.7.6-1.5.98-2.4,1.13-.7.2-1.38.28-2.03.23l-1.58-.53-.83.08-2.1-.38c-2.4-2.3-3.68-5-3.83-8.1l.83-.68.15-.53.83.15c.35-.4.75-.57,1.2-.53l1.2-.23c.85.3,1.73.48,2.63.53l3.08,1.43c4.05-5.85,7.25-12,9.6-18.45l-.98-.68-.08-.75c.3-1.25.77-2.4,1.43-3.45l.68-.38c-.4-.6-.65-1.17-.75-1.73-.55,0-1.03-.15-1.43-.45-1.2-.85-1.75-1.85-1.65-3,.25-1.7.75-3.25,1.5-4.65,1.8-.7,3.8-1.13,6-1.28h1.13l.98.15,14.33-.75c8.15-.15,15.83,1.35,23.03,4.5.7.75,1.05,1.63,1.05,2.63l-.3,1.13-.68.3-.3.53c-.3.3-.7.4-1.2.3-.9.65-1.33,1.4-1.28,2.25-.15,1.55-.7,2.85-1.65,3.9l-.68.08-1.13-.38c-.6-.1-1.15-.1-1.65,0-.65.1-1.3.15-1.95.15-1.5-.25-3.05-.47-4.65-.68l-.75.08-1.73-.08c-.9.2-1.85.3-2.85.3-1.85-.3-3.68-.27-5.48.08-1.8.4-3.5.63-5.1.68l-1.05-.08c-2.65.05-5.18.43-7.58,1.13-.3.45-.48.93-.53,1.43l.38.45c3.6-.2,7.17-.3,10.73-.3,1.9-.2,3.83-.27,5.78-.23,11.7.15,22.88,2.13,33.53,5.93l.53,1.2c-.85.55-1.25,1.13-1.2,1.73-.85,1.4-1.38,2.78-1.58,4.13l.23.83-.3,1.5c-.15,3.75-.93,7.18-2.33,10.28-.3.85-.48,1.68-.53,2.48-.65,1.35-1.33,2.58-2.03,3.68-.85.4-1.75.68-2.7.83ZM543.82,127.55c-.6,0-1.08-.25-1.43-.75-.65-1.3-1.13-2.67-1.43-4.13l.45-.53c.85-.15,1.6-.47,2.25-.98.95-1.45,1.4-3.12,1.35-5.03-.5-.8-.8-1.7-.9-2.7.65-.8,1.2-1.7,1.65-2.7,1.1-.05,2.15-.2,3.15-.45,5.55-.35,11.15-.38,16.8-.08,2.65.1,5,.7,7.05,1.8l1.13,1.13.9,1.8-.3.68-.75.38-.15.6c.6,1.1.9,2.3.9,3.6-.1.95-.4,1.78-.9,2.48.2.75.32,1.53.38,2.33l-.68.38-.6.45-.75.15-1.13-.08c-4.75-.75-9.45-1.25-14.1-1.5l-3.53.38c-1,.15-1.88.25-2.63.3-1.5.15-2.75.53-3.75,1.13l-.38.68c-.45.3-.98.48-1.58.53l-1.05.15ZM573.52,93.5l.23-.53-.15-.6-.15-.83c-2.3-.65-4.7-1.1-7.2-1.35h-5.33c-4.25,0-8.35.2-12.3.6h-1.43l-2.18.15c-.8.3-1.13.75-.98,1.35l.45,1.28c.6.2,1.25.28,1.95.23l3.9-.53.68.08c3.15-.45,6.42-.65,9.83-.6h.83c3.95.2,7.9.45,11.85.75ZM569.47,121.48l.08-1.13-.15-1.05c.05-1.35-.18-2.52-.68-3.53-.9-.25-1.83-.47-2.78-.68l-2.03-.15-.68.15-.98-.15c-.95.1-1.88.23-2.78.38-1.1-.1-2.15-.25-3.15-.45-1.3.35-2.55.73-3.75,1.13l-.68-.08-2.33.98-.15.98c0,.65.12,1.25.38,1.8l-.23.9c.6.2,1.25.28,1.95.23,1.6-.2,3.25-.3,4.95-.3h4.43l1.73.23c2.3.2,4.58.45,6.83.75Z"/>
      </g>
      <g>
        <path class="cls-1" d="M214.22,155.35h10.92c2.5,0,4.12.47,5,1.44.81.91,1.12,2.38,1.12,5.28s-.37,4.37-1.38,5.3c-.83.77-2.23,1.12-4.43,1.12h-11.23v-13.14ZM224.78,166.09c1.06,0,1.79-.14,2.33-.43.77-.41,1.08-1.42,1.08-3.45,0-3.65-.57-4.37-3.41-4.37h-7.53v8.26h7.53Z"/>
        <path class="cls-1" d="M236.5,164.37c.02,1.06.2,1.73.55,2.07.39.35,1.48.51,3.41.51,2.17,0,2.84-.3,2.98-1.34h2.56c-.04,1-.32,1.67-.89,2.15-.81.65-2.11.89-4.85.89-2.11,0-3.76-.18-4.47-.49-1.42-.65-1.95-1.77-1.95-4.24,0-1.99.34-3.11,1.12-3.84.83-.77,2.03-.98,5.24-.98,2.98,0,4.14.28,4.93,1.14.65.75.89,1.66.89,3.53v.61h-9.52ZM243.44,162.83c0-.53-.06-.83-.24-1.16-.14-.26-.34-.45-.53-.55-.45-.2-1.32-.34-2.29-.34-1.99,0-2.56.06-3.11.36-.47.26-.77.87-.77,1.58v.12h6.94Z"/>
        <path class="cls-1" d="M251.24,159.25v1.71c.45-1.5,1.36-1.89,4.26-1.89s4.28.34,5.06,1.18c.57.63.83,1.71.83,3.6,0,3.9-1.06,4.81-5.62,4.81-2.98,0-4.14-.45-4.53-1.75v5.56h-2.6v-13.22h2.6ZM254.59,161.04c-2.88,0-3.35.41-3.35,2.94,0,1.28.26,2.01.81,2.28.36.2.81.32,1.3.32l2.17.08c2.7,0,3.19-.43,3.19-2.88,0-1.16-.18-1.79-.61-2.21-.24-.22-.71-.39-1.22-.45l-2.29-.08Z"/>
        <path class="cls-1" d="M264.04,161.93c.04-1.02.26-1.56.83-2.01.81-.65,1.91-.85,4.59-.85,3.57,0,4.73.22,5.48,1.04.55.61.69,1.16.69,2.66v5.71h-2.6v-1.48c-.33,1.28-1.26,1.66-4.12,1.66-2.48,0-3.55-.12-4.2-.49-.75-.41-1.08-1.16-1.08-2.38,0-2.54.94-3.05,5.6-3.05,2.62,0,3.37.24,3.76,1.2v-1c0-1.87-.37-2.11-3.21-2.11-2.66,0-3.01.12-3.11,1.1h-2.62ZM266.72,164.65c-.32.14-.51.53-.51,1,0,.73.35,1.08,1.24,1.22.32.04.95.06,2.23.06,2.7,0,3.33-.26,3.33-1.36,0-.45-.18-.81-.49-.93-.49-.22-1.42-.32-3-.32-1.46,0-2.32.1-2.8.32Z"/>
        <path class="cls-1" d="M278.62,159.25h2.5v1.95c.41-.99.65-1.32,1.12-1.6.61-.34,1.58-.53,2.78-.53,1.85,0,3.01.43,3.51,1.3.32.55.43,1.2.43,2.3,0,.1,0,.34-.02.59h-2.46c0-.81-.04-1.08-.2-1.42-.24-.45-.97-.71-2.05-.71-2.19,0-3.01.73-3.01,2.6v4.75h-2.6v-9.24Z"/>
        <path class="cls-1" d="M300.96,165.1c0,1.69-.16,2.28-.73,2.8-.63.55-1.6.77-3.47.77-2.11,0-3.11-.26-3.8-.96-.45-.45-.71-1.44-.65-2.33l.02-.16.02-4.12h-1.93v-1.85h1.95v-2.15h2.64l-.02,2.15h5.89v1.85h-5.89l-.04,3.69c-.02,1.64.33,1.95,2.15,1.95.77,0,1.24-.14,1.52-.39.24-.26.28-.53.28-1.48v-.35h2.07v.59Z"/>
        <path class="cls-1" d="M303.4,159.25h2.54v1.85c.51-1.54,1.54-2.03,4.16-2.03,2.44,0,3.72.61,4.26,2.05.47-1.5,1.68-2.05,4.37-2.05,3.57,0,4.85,1.06,4.85,4.02v5.4h-2.6v-5.22c0-1.66-.63-2.13-2.86-2.13-2.48,0-3.33.65-3.33,2.52v4.83h-2.6v-5.12c0-1.81-.57-2.25-2.88-2.25s-3.31.65-3.31,2.38v4.99h-2.6v-9.24Z"/>
        <path class="cls-1" d="M328.89,164.37c.02,1.06.2,1.73.55,2.07.39.35,1.48.51,3.41.51,2.17,0,2.84-.3,2.97-1.34h2.56c-.04,1-.32,1.67-.89,2.15-.81.65-2.11.89-4.85.89-2.11,0-3.76-.18-4.47-.49-1.42-.65-1.95-1.77-1.95-4.24,0-1.99.33-3.11,1.12-3.84.83-.77,2.03-.98,5.24-.98,2.97,0,4.14.28,4.93,1.14.65.75.89,1.66.89,3.53v.61h-9.52ZM335.83,162.83c0-.53-.06-.83-.24-1.16-.14-.26-.34-.45-.53-.55-.45-.2-1.32-.34-2.29-.34-1.99,0-2.56.06-3.11.36-.47.26-.77.87-.77,1.58v.12h6.94Z"/>
        <path class="cls-1" d="M341.03,159.25h2.54v2.01c.59-1.77,1.56-2.25,4.49-2.25,2.19,0,3.37.34,4.14,1.18.59.67.81,1.48.81,3.01v5.28h-2.6v-5.16c0-1.75-.65-2.21-3.13-2.21-2.72,0-3.65.69-3.65,2.7v4.67h-2.6v-9.24Z"/>
        <path class="cls-1" d="M365.46,165.1c0,1.69-.16,2.28-.73,2.8-.63.55-1.6.77-3.47.77-2.11,0-3.11-.26-3.8-.96-.45-.45-.71-1.44-.65-2.33l.02-.16.02-4.12h-1.93v-1.85h1.95v-2.15h2.64l-.02,2.15h5.89v1.85h-5.89l-.04,3.69c-.02,1.64.33,1.95,2.15,1.95.77,0,1.24-.14,1.52-.39.24-.26.28-.53.28-1.48v-.35h2.07v.59Z"/>
        <path class="cls-1" d="M384.27,160.15c.69.65.91,1.56.91,3.88,0,1.64-.32,2.96-.83,3.47-.34.33-.91.65-1.38.79-.73.22-2.56.37-4.34.37-5.24,0-6.19-.73-6.19-4.83,0-2.09.28-3.11.98-3.74.34-.3.87-.55,1.4-.69.69-.18,2.58-.34,3.9-.34,3.25,0,4.67.28,5.54,1.08ZM375.6,161.71c-.38.41-.51,1.02-.51,2.19,0,2.38.51,2.8,3.43,2.8,1.87,0,2.74-.1,3.19-.35.61-.35.83-.98.83-2.38,0-2.48-.49-2.92-3.35-2.92-2.31,0-3.15.16-3.59.67Z"/>
        <path class="cls-1" d="M388.78,161.1h-1.91v-1.85h1.91v-.47c0-2.84,1.02-3.67,4.59-3.67.61,0,1.08.02,1.77.06v1.81c-.53-.02-.83-.02-1.2-.02-1.99,0-2.56.39-2.56,1.81v.47h3.88v1.85h-3.88v7.39h-2.6v-7.39Z"/>
        <path class="cls-1" d="M402.13,155.35h13.97v2.31h-10.98v3.11h10.44v2.07h-10.44v3.35h11.09v2.3h-14.09v-13.14Z"/>
        <path class="cls-1" d="M422.23,163.64l-4.08-4.39h3.41l2.62,3.01,2.68-3.01h3.35l-4.02,4.29,4.53,4.95h-3.35l-3.19-3.63-3.17,3.63h-3.29l4.51-4.85Z"/>
        <path class="cls-1" d="M441.97,165.1c0,1.69-.16,2.28-.73,2.8-.63.55-1.6.77-3.47.77-2.11,0-3.11-.26-3.8-.96-.45-.45-.71-1.44-.65-2.33l.02-.16.02-4.12h-1.93v-1.85h1.95v-2.15h2.64l-.02,2.15h5.89v1.85h-5.89l-.04,3.69c-.02,1.64.33,1.95,2.15,1.95.77,0,1.24-.14,1.52-.39.24-.26.28-.53.28-1.48v-.35h2.07v.59Z"/>
        <path class="cls-1" d="M446.77,164.37c.02,1.06.2,1.73.55,2.07.39.35,1.48.51,3.41.51,2.17,0,2.84-.3,2.97-1.34h2.56c-.04,1-.32,1.67-.89,2.15-.81.65-2.11.89-4.85.89-2.11,0-3.76-.18-4.47-.49-1.42-.65-1.95-1.77-1.95-4.24,0-1.99.33-3.11,1.12-3.84.83-.77,2.03-.98,5.24-.98,2.97,0,4.14.28,4.93,1.14.65.75.89,1.66.89,3.53v.61h-9.52ZM453.71,162.83c0-.53-.06-.83-.24-1.16-.14-.26-.34-.45-.53-.55-.45-.2-1.32-.34-2.29-.34-1.99,0-2.56.06-3.11.36-.47.26-.77.87-.77,1.58v.12h6.94Z"/>
        <path class="cls-1" d="M458.91,159.25h2.5v1.95c.41-.99.65-1.32,1.12-1.6.61-.34,1.58-.53,2.78-.53,1.85,0,3.01.43,3.51,1.3.32.55.43,1.2.43,2.3,0,.1,0,.34-.02.59h-2.46c0-.81-.04-1.08-.2-1.42-.24-.45-.97-.71-2.05-.71-2.19,0-3.01.73-3.01,2.6v4.75h-2.6v-9.24Z"/>
        <path class="cls-1" d="M471.32,159.25h2.54v2.01c.59-1.77,1.56-2.25,4.49-2.25,2.19,0,3.37.34,4.14,1.18.59.67.81,1.48.81,3.01v5.28h-2.6v-5.16c0-1.75-.65-2.21-3.13-2.21-2.72,0-3.65.69-3.65,2.7v4.67h-2.6v-9.24Z"/>
        <path class="cls-1" d="M486.31,161.93c.04-1.02.26-1.56.83-2.01.81-.65,1.91-.85,4.59-.85,3.57,0,4.73.22,5.48,1.04.55.61.69,1.16.69,2.66v5.71h-2.6v-1.48c-.33,1.28-1.26,1.66-4.12,1.66-2.48,0-3.55-.12-4.2-.49-.75-.41-1.08-1.16-1.08-2.38,0-2.54.94-3.05,5.6-3.05,2.62,0,3.37.24,3.76,1.2v-1c0-1.87-.37-2.11-3.21-2.11-2.66,0-3.01.12-3.11,1.1h-2.62ZM488.99,164.65c-.32.14-.51.53-.51,1,0,.73.35,1.08,1.24,1.22.32.04.95.06,2.23.06,2.7,0,3.33-.26,3.33-1.36,0-.45-.18-.81-.49-.93-.49-.22-1.42-.32-3-.32-1.46,0-2.32.1-2.8.32Z"/>
        <path class="cls-1" d="M500.89,155.31h2.6v13.18h-2.6v-13.18Z"/>
        <path class="cls-1" d="M514.7,165.89l-1.46,2.6h-3.41l7.53-13.14h4.12l7.41,13.14h-3.31l-1.5-2.6h-9.38ZM519.39,157.48l-3.53,6.29h7.09l-3.57-6.29Z"/>
        <path class="cls-1" d="M531.26,161.1h-1.91v-1.85h1.91v-.47c0-2.84,1.02-3.67,4.59-3.67.61,0,1.08.02,1.77.06v1.81c-.53-.02-.83-.02-1.2-.02-1.99,0-2.56.39-2.56,1.81v.47h3.88v1.85h-3.88v7.39h-2.6v-7.39Z"/>
        <path class="cls-1" d="M541.15,161.1h-1.91v-1.85h1.91v-.47c0-2.84,1.02-3.67,4.59-3.67.61,0,1.08.02,1.77.06v1.81c-.53-.02-.83-.02-1.2-.02-1.99,0-2.56.39-2.56,1.81v.47h3.88v1.85h-3.88v7.39h-2.6v-7.39Z"/>
        <path class="cls-1" d="M549.56,161.93c.04-1.02.26-1.56.83-2.01.81-.65,1.91-.85,4.59-.85,3.57,0,4.73.22,5.48,1.04.55.61.69,1.16.69,2.66v5.71h-2.6v-1.48c-.33,1.28-1.26,1.66-4.12,1.66-2.48,0-3.55-.12-4.2-.49-.75-.41-1.08-1.16-1.08-2.38,0-2.54.94-3.05,5.6-3.05,2.62,0,3.37.24,3.76,1.2v-1c0-1.87-.37-2.11-3.21-2.11-2.66,0-3.01.12-3.11,1.1h-2.62ZM552.24,164.65c-.32.14-.51.53-.51,1,0,.73.35,1.08,1.24,1.22.32.04.95.06,2.23.06,2.7,0,3.33-.26,3.33-1.36,0-.45-.18-.81-.49-.93-.49-.22-1.42-.32-3-.32-1.46,0-2.32.1-2.8.32Z"/>
        <path class="cls-1" d="M564.14,155.31h2.6v2.17h-2.6v-2.17ZM564.14,159.25h2.6v9.24h-2.6v-9.24Z"/>
        <path class="cls-1" d="M569.73,159.25h2.5v1.95c.41-.99.65-1.32,1.12-1.6.61-.34,1.58-.53,2.78-.53,1.85,0,3.01.43,3.51,1.3.32.55.43,1.2.43,2.3,0,.1,0,.34-.02.59h-2.46c0-.81-.04-1.08-.2-1.42-.24-.45-.97-.71-2.05-.71-2.19,0-3.01.73-3.01,2.6v4.75h-2.6v-9.24Z"/>
        <path class="cls-1" d="M591.11,161.75c0-.77-.61-.95-3.27-.95-2.46,0-3.17.26-3.17,1.1,0,.79.43.93,3.03.93h1.44c2.4,0,3.33.12,4.1.55.67.37.98,1.08.98,2.21,0,1.69-.57,2.46-2.13,2.82-.79.18-2.23.26-4.65.26-3.17,0-4.28-.22-4.97-1-.45-.49-.61-1.04-.61-2.03v-.1h2.72v.1c.06,1.16.41,1.28,3.76,1.3q2.25-.04,2.76-.28c.28-.14.45-.47.45-.85,0-.91-.53-1.12-2.86-1.08-.91.02-3.11-.02-3.63-.04-2.29-.16-3.09-.85-3.09-2.64,0-1.6.57-2.36,2.05-2.7.83-.18,2.13-.28,4-.28,2.86,0,3.96.14,4.79.59.65.35.99,1.06.99,2.11v.06h-2.7v-.08Z"/>
      </g>
    </g>
  </g>
</svg>