<?xml version="1.0" encoding="UTF-8"?>
<svg id="_レイヤー_1" data-name="レイヤー 1" xmlns="http://www.w3.org/2000/svg" viewBox="0 0 368.5 368.5">
  <defs>
    <style>
      .cls-1 {
        fill: #181000;
      }
    </style>
  </defs>
  <polygon class="cls-1" points="204.16 187.18 193.02 195.88 254.99 246.07 263.66 235.36 204.16 187.18"/>
  <polygon class="cls-1" points="166.01 217.97 154.87 226.68 218.41 278.13 227.08 267.43 166.01 217.97"/>
  <g>
    <polygon class="cls-1" points="273.15 153.04 273.15 7.5 184.69 69.99 96.23 7.5 96.23 245.17 180.56 310.33 188.82 310.33 273.15 245.17 273.15 178.85 259.93 168.53 259.93 238.68 184.69 296.82 109.45 238.68 109.45 33.02 183.61 85.42 185.77 85.42 259.93 33.02 259.93 142.71 273.15 153.04"/>
    <polygon class="cls-1" points="184.69 86.18 184.69 86.18 184.69 86.18 184.69 86.18"/>
  </g>
  <g>
    <polygon class="cls-1" points="184.46 86.64 195.92 78.32 188.93 72.91 180.66 72.91 96.34 138.07 96.34 148.97 109.55 148.97 109.55 144.56 184.48 86.67 184.46 86.64"/>
    <polygon class="cls-1" points="207.06 85.06 195.92 93.16 259.78 142.5 259.78 142.5 265.47 146.95 273.04 146.95 273.04 136.05 207.06 85.06"/>
  </g>
  <g>
    <polygon class="cls-1" points="130.91 262.71 130.91 290.2 74.99 346.46 19.07 290.2 19.07 87.5 74.99 138.94 109.45 107.24 109.45 100.36 97.4 100.36 74.99 120.97 5.85 57.37 5.85 295.65 70.8 361 79.17 361 144.13 295.65 144.13 291.53 144.13 291.07 144.13 289.63 144.13 280.76 144.53 280.76 144.53 273.23 130.91 262.71"/>
    <polygon class="cls-1" points="293.52 120.97 273.2 102.28 273.2 100.36 259.98 100.36 259.98 108.08 293.52 138.94 349.44 87.5 349.44 290.2 293.52 346.46 237.6 290.2 237.6 265.11 225.36 274.56 225.36 296.65 289.33 361 297.7 361 362.66 295.65 362.66 57.37 293.52 120.97"/>
  </g>
  <polygon class="cls-1" points="243.63 155.42 232.65 164.25 272.41 196.45 272.41 178.72 243.63 155.42"/>
  <polygon class="cls-1" points="207 85.06 169.58 112.24 180.09 121.64 210.04 99.88 210.67 87.93 207 85.06"/>
</svg>