<?xml version="1.0" encoding="UTF-8"?>
<svg id="_レイヤー_2" data-name="レイヤー 2" xmlns="http://www.w3.org/2000/svg" viewBox="0 0 58.98 58.98">
  <defs>
    <style>
      .cls-1 {
        fill: #fff;
      }
    </style>
  </defs>
  <g id="_レイヤー_1-2" data-name="レイヤー 1">
    <g>
      <path class="cls-1" d="M16.6,57.16c-1.48,1.06-3.17,1.62-5.07,1.69-1.48.21-2.92.18-4.33-.11l-1.8-1.8c-1.69-2.11-3.03-4.37-4.01-6.76,2.04-4.01,4.54-7.78,7.5-11.3,1.06-1.34,2.29-2.5,3.7-3.49,4.79-5.21,9.33-10.46,13.63-15.74C34.32,11.41,44.11,4.86,55.59,0c1.62.35,2.15,2.15,1.58,5.39l-1.06,1.27,1.48,1.06-.42,3.38c-1.55,1.69-3.17,3.03-4.86,4.01-3.59,2.04-7.61,4.93-12.04,8.66l-1.06,1.48-4.44,3.8c-2.75,3.45-5.56,6.9-8.45,10.35l-1.16.74-3.91,4.12c-2.18,2.75-3.35,6.09-3.49,10.04.14.71-.14,1.27-.85,1.69l-.32,1.16Z"/>
      <path class="cls-1" d="M1.83,16.6C.77,15.12.21,13.43.14,11.53c-.21-1.48-.18-2.92.11-4.33l1.8-1.8c2.11-1.69,4.37-3.03,6.76-4.01,4.01,2.04,7.78,4.54,11.3,7.5,1.34,1.06,2.5,2.29,3.49,3.7,5.21,4.79,10.46,9.33,15.74,13.63,8.24,8.1,14.79,17.89,19.65,29.37-.35,1.62-2.15,2.15-5.39,1.58l-1.27-1.06-1.06,1.48-3.38-.42c-1.69-1.55-3.03-3.17-4.01-4.86-2.04-3.59-4.93-7.61-8.66-12.04l-1.48-1.06-3.8-4.44c-3.45-2.75-6.9-5.56-10.35-8.45l-.74-1.16-4.12-3.91c-2.75-2.18-6.09-3.35-10.04-3.49-.71.14-1.27-.14-1.69-.85l-1.16-.32Z"/>
    </g>
  </g>
</svg>