<?xml version="1.0" encoding="UTF-8"?>
<svg id="_レイヤー_2" data-name="レイヤー 2" xmlns="http://www.w3.org/2000/svg" viewBox="0 0 300 87.21">
  <defs>
    <style>
      .cls-1 {
        fill: #fff;
      }
    </style>
  </defs>
  <g id="_レイヤー_1-2" data-name="レイヤー 1">
    <g>
      <path class="cls-1" d="M5.41,19.51c-1.41-.27-2.66-.72-3.76-1.35l-.65-.53-.82-.41-.18-1.18.29-.71.24-2.35.53-.12.24-.59c1.37.27,2.59.61,3.64,1,1.06-.63,2.19-1.1,3.41-1.41,1.45-1.45,2.78-2.94,4-4.47.27-.86.68-1.7,1.23-2.53l1.47-.59.65.29c.82.82,1.27,1.8,1.35,2.94l.12.24c1.14-.27,2.41-.37,3.82-.29,2.47-.08,4.66.51,6.58,1.76.43.71.74,1.47.94,2.29l-1.29.94-1.41.12-.47-.18-1.18.18-1.12-.18c-.94.16-1.8.27-2.59.35.12,1.25-.04,2.41-.47,3.47l.12.71c-.35.63-.67,1.29-.94,2-.35.43-.88.59-1.59.47l-.71-.76c-.2-2-.39-3.84-.59-5.52h-.53c-.59.2-1.1.35-1.53.47l-1,1.82c-.94.78-1.82,1.63-2.64,2.53-1.72.47-3.45,1-5.17,1.59ZM6.23,38.79l-1.23-.59c-.24-1.06-.29-2.12-.18-3.17.24-1.02.67-1.94,1.29-2.76,3.06-1.45,6.19-2.27,9.4-2.47.35-1.29.47-2.7.35-4.23l-1.06-.18c-2,.2-4.02.59-6.05,1.18-.47-.16-.92-.37-1.35-.65l-.53-1.47c.27-.31.37-.65.29-1l.53-.94c.04-.35.18-.76.41-1.23l.71.12.53-.59c1.41-.08,2.68-.39,3.82-.94.27.27.71.38,1.32.32.61-.06,1.46-.15,2.56-.26h1.12c2.82,0,5.43.61,7.82,1.82l.29.88c-.2.78-.57,1.53-1.12,2.23-.86.51-1.88.73-3.06.65-.74-.04-1.43-.14-2.06-.29h-1.29c-.2.39-.24.94-.12,1.65l.06,1.53.12.53.47.12c1.96,0,3.76.31,5.41.94l.06,1.53c-.82,1.14-1.84,2.02-3.06,2.64-5.37.98-10.52,2.53-15.46,4.64ZM53.18,42.43c-5.84-1.06-11.36-3-16.57-5.82l-1.23-.82c-.47-.74-.71-1.57-.71-2.47.35-.71.61-1.31.76-1.82-.63-.04-1.27-.41-1.94-1.12l-.71-1.12c-1.06,2.66-2.43,5.25-4.11,7.76-.51.82-1.08,1.63-1.7,2.41-1.1.31-2.17.67-3.23,1.06l-.76-.06c-.47.35-1.04.53-1.7.53l-1.65-.59c-.43-1.06-.61-2.15-.53-3.29-.04-.55.16-.96.59-1.23l.35-.24.47-.94.65-.06c.31.2.63.29.94.29.35-.16.78-.24,1.29-.24l.53.06c.63-.16,1.23-.43,1.82-.82,1.92-2.55,3.21-5.37,3.88-8.46-.43-.63-.65-1.35-.65-2.17,0-1.18.41-2.27,1.23-3.29,1.29-.27,2.61-.45,3.94-.53h.76c2.51-.2,4.74.27,6.7,1.41l.18.65-.12.59c-1.14,3.41-2.12,6.82-2.94,10.23,4.15,1.37,8.52,2.39,13.1,3.06h1l4.41-.94.65.41.18.71-.71,1.65c-.67.24-1.2.59-1.59,1.06l-.06.65-.88,1.06.24.82c-.63.67-1.25,1.21-1.88,1.65ZM40.43,18.69c-.47-.47-.71-.96-.71-1.47l.18-1.47c-.08-.78-.24-1.53-.47-2.23l-3.11-.35c-.86.16-1.67.35-2.41.59-.43.43-.78.96-1.06,1.59-.82.9-1.82,1.41-3,1.53l-1.65-1c-.35-.63-.57-1.27-.65-1.94l.53-1.53c.9-.74,1.7-1.43,2.41-2.06l.53-1.06c1.02-.55,1.76-1.33,2.23-2.35.47-.67.71-1.39.71-2.17-.24-.27-.33-.65-.29-1.12.59-.98,1.47-1.65,2.64-2,.9.04,1.67.33,2.29.88.27.9.39,1.88.35,2.94-.43.59-.67,1.21-.71,1.88.35.12.78.18,1.29.18,4.9-.24,9.34.69,13.34,2.76.55.51.82,1.18.82,2l-.18.59-.06,1.12c-.74.47-1.51.73-2.29.76-1.76-.43-3.62-.76-5.58-1-.86-.08-1.65-.14-2.35-.18l-.29.59.18.94-.18,1.29c0,.74-.26,1.33-.76,1.76-.51.35-1.1.53-1.76.53ZM36.61,27.8c.27-.67.45-1.35.53-2.06l-.24-.12c-1.37.16-2.64.39-3.82.71-.12.31-.18.59-.18.82.43-.16.94-.24,1.53-.24.86.27,1.59.57,2.17.88Z"/>
      <path class="cls-1" d="M63.41,40.08l-.71-.24c-.2-.31-.43-.59-.71-.82l-.18-1.23c1.14-2.12,1.92-4.33,2.35-6.64-.24-.51-.61-1.1-1.12-1.76.35-.27.51-.55.47-.82l.41-.59.47-.59.59-.24,1-.53c.59.31,1.25.59,2,.82l.41.88.35,1.7-.35,1.29.12.65c-.12,2.19-.92,4.13-2.41,5.82l-.47.41c-.24.43-.57.8-1,1.12l-.53.29-.71.47ZM84.68,38.08l-.82-.29-.06-1c.9-2.86,1.53-5.72,1.88-8.58-.04-.08-.18-.1-.41-.06-2.55-.35-4.98-.78-7.29-1.29-1.76-.08-3.51.02-5.23.29-.59.12-1.21.2-1.88.24l-.65.06c-.86-.55-1.25-1.18-1.18-1.88.47-4.86.35-9.64-.35-14.34l-.94-.65c-.16-.59-.33-1.1-.53-1.53l-.41-1.47c.39-.35.65-.74.76-1.18,4.11-.86,8.27-1.31,12.46-1.35l1.59.29.71-.12c3.06.27,5.92.94,8.58,2,.39.43.71.92.94,1.47l-.53.59c0,.63-.27,1.18-.82,1.65l-.53.24-1.18.47c-.59-.16-1.12-.29-1.59-.41l-.65.12c-.82-.24-1.65-.39-2.47-.47l-1-.18-.76.06-.47-.18-.18.18-.12.41.18.53c2,.2,3.88.71,5.64,1.53.31.27.47.67.47,1.18-.24.24-.37.55-.41.94l-.65.29c-.08.31-.35.49-.82.53-.27.39-.69.61-1.23.65h-1.88l-.41-.12-.47.24-.12.94c2.23.31,4.41.94,6.52,1.88l.71.88c-.12.74-.51,1.37-1.18,1.88l-.88.24h-.82c-1.41-.55-2.84-.92-4.29-1.12-.2.51-.37.98-.53,1.41,2.47.39,4.94,1.08,7.4,2.06l.18.59-.06.35c.16.35.21.8.18,1.35l-.06.12c.74-.24,1.21-.61,1.41-1.12l.41-.59c.35-2.7,1.06-5.33,2.12-7.87.47-.51,1.08-.84,1.82-1,.55.2,1.16.24,1.82.12l1.59-.06h1.35c3.09.04,6.01.55,8.76,1.53l1.18,1.76v.82l-.65,1.23-.41.18-.06.53c.35.74.53,1.63.53,2.64,0,.71-.31,1.31-.94,1.82-.43.2-.76.31-1,.35l-.12.35-.53.12-.12.41c-1.33.55-2.76.86-4.29.94h-.47c-.47.12-.94.14-1.41.06h-.76c-.82-.04-1.61-.1-2.35-.18-1.72-.16-3.19.16-4.41.94l-.82.18h-.76l-.76-.29c-.24-.98-.61-1.94-1.12-2.88l-.41,1.12c-.2,1.37-.41,2.7-.65,4-.27,1.72-.9,3.37-1.88,4.94l-1.41.53ZM71.4,37.38c-.47,0-.86-.12-1.18-.35-.74-.78-1.02-1.7-.82-2.76.47-1.21.72-2.47.76-3.76l-.35-.76v-.94c.55-.39.94-.55,1.18-.47.27-.27.68-.41,1.23-.41l1.23.53.35,1.12.12.65c-.16.27-.22.55-.18.82.04,2.23-.29,4.23-1,5.99l-1.35.35ZM77.92,22.8c.12-.35.16-.74.12-1.18l-.35-.12c-1.33.24-2.62.49-3.88.76-.27.27-.63.43-1.06.47-.2.12-.29.22-.29.29.24.16.57.22,1,.18l.59-.12c1.49-.08,2.78-.18,3.88-.29ZM77.92,11.52c.12-.16.14-.33.06-.53l-.18-.29-.53-.12c-1.41.27-2.76.57-4.05.88l-.12.65.12.06c1.49-.27,3.06-.49,4.7-.65ZM77.81,18.22l.12-.24-.18-1-.47-.06c-1.37.35-2.7.78-4,1.29v.35l.59.06c1.37-.16,2.68-.29,3.94-.41ZM77.34,35.79l-.82-.59c-.98-1.37-1.45-2.82-1.41-4.35l.12-.24c-.43-.55-.76-1.25-1-2.12.63-.43,1.29-.84,2-1.23h.71c1.02,1.06,1.57,2.25,1.65,3.58l-.06.47.18,3.47-1.35,1ZM81.86,34.14l-1.59-1.35c-.31-.51-.43-1.12-.35-1.82.16-.63.47-1.25.94-1.88l.88-.06,1.23.71c.47.43.71.96.71,1.59l-.06.71-.35,1.41-1.41.71ZM100.61,39.37c-1.06,0-2.12-.08-3.17-.24-1.14-.16-2.27-.41-3.41-.76l.35-1.41c5.09-.55,9.89-1.65,14.4-3.29,2.31-5.13,3.7-10.38,4.17-15.75-2.55-1.02-5.29-1.76-8.23-2.23l-1.94.12c-1.33-.27-2.68-.49-4.05-.65l-.53.06c-.43-.16-.82-.25-1.18-.29l-.94.47c-.67.51-1.39,1.04-2.17,1.59-.74.2-1.55.33-2.41.41-.35-.31-.73-.55-1.12-.71l-.24-1c2.12-2.51,3.6-5.19,4.47-8.05-.47-.63-.82-1.37-1.06-2.23l.29-1.41c1.18-.59,2.47-.88,3.88-.88l1,.47c.74,1.68,1.14,3.49,1.18,5.41l-.06.47c.35.16.84.22,1.47.18l.76-.18c5.72.39,11.09,1.68,16.1,3.88.35.35.49.78.41,1.29l-.06.29.29.59-.24.24c.31.31.53.73.65,1.23-.74.51-1.39,1.08-1.94,1.7l-.53.06-.24.59.12.59-.24.76.06.94c-.78,5.72-2.57,11.22-5.35,16.51-.51,0-.92.1-1.23.29-.63-.16-1.2-.25-1.7-.29-.9.27-1.86.45-2.88.53-1.72.16-3.29.39-4.7.71ZM104.43,25.74l.06-.53-.53-2.88c-1.1-.2-2.21-.41-3.35-.65h-2.41c-.82.16-1.65.24-2.47.24-.35.35-.55.8-.59,1.35l.06.41c-.08.59-.18,1.12-.29,1.59l.47.12c1.61-.04,3.23-.06,4.88-.06,1.57.08,2.96.22,4.17.41Z"/>
      <path class="cls-1" d="M166.31,39.08c-6.93-3.68-12.44-7.37-16.51-11.05-1.06.98-2.43,2.14-4.11,3.47-.27.31-.82.67-1.65,1.06l-.41.35c-3.29,2-6.29,3.58-8.99,4.76h-.71c-.59.16-1.04.39-1.35.71l-1.41-.24-.53.06c-1.33-1.25-2.8-2.21-4.41-2.88-.63-.94-1.06-1.41-1.29-1.41l-.71-1.18-.65-1.7c.63-.12,1.02-.47,1.18-1.06.47-.31.88-.25,1.23.18,2.66,1.57,5.6,2.02,8.81,1.35,3.96-1.1,7.7-3.25,11.22-6.46-2.98-2.35-5.09-3.76-6.35-4.23-1.96-.51-2.72-1.74-2.29-3.7l.94-.12c4.11.86,7.82,2.45,11.11,4.76,2.31-1.96,3.82-4.7,4.52-8.23.63.04,1.23.08,1.82.12l1.12.53.29,2.7c-.51,2.19-1.82,4.51-3.94,6.93,3.92,3.25,8.23,5.86,12.93,7.82.94.16,2.08.2,3.41.12l8.17-1,3-.41-.94,1.7c-.35.9-1.55,2-3.58,3.29-1.33.86-2.77,1.67-4.32,2.41-1.55.74-3.42,1.2-5.61,1.35ZM133.52,15.22l-.29-.24-.47.06c-.47,0-.76-.24-.88-.71s-.18-.96-.18-1.47c.2-1.68.71-3,1.53-3.94,1.49-.9,2.7-1.76,3.64-2.59l1.12.65.41-.12c3.88-.63,6.33-.96,7.35-1l-.12-1.12.47-1.47c0-.35.18-.74.53-1.18l1.53-.88c.98.2,1.86.59,2.64,1.18.82,1.45,1.19,2.66,1.12,3.64l.59.29c.94-.16,2.57-.08,4.88.24,1.49-.31,4.13.45,7.93,2.29.27.39.41.84.41,1.35l-.47.65c-.59.55-1.33,1.12-2.23,1.7-.9,1.06-2,.98-3.29-.24-1.37-.31-3.94-.55-7.7-.71-2.7-.31-5.25-.29-7.64.06-3.41.31-6.35.84-8.81,1.59l-.47,1.35c-.63.08-1.16.27-1.59.59Z"/>
      <path class="cls-1" d="M193.46,40.78l-.71-.41c-.51-1.18-.73-2.41-.65-3.7l.24-2.12-.12-1.53.35-5.88c-.16-.82-.22-1.7-.18-2.64l.24-6.23-.12-.35-.24-.06c-.74.35-1.59.57-2.53.65l-2.23.12c-.74.2-1.45.24-2.12.12l-.65-.29-.59-.88-1.18-1v-.82c.24-1.18.57-2.31,1-3.41l1-.76.47.35.41-.82.71.41c.35.08.71.24,1.06.47l.35.41,1.23.06c2.7-.47,5.01-1.92,6.93-4.35l1-1.12,1.12-.94c1.18-1.06,1.92-2.41,2.23-4.05l2.12-.18c.55.47,1.1.98,1.65,1.53l.06.65-.12.94-.53.24-.59,1.41-.41,1.23-.53.24c-.08.51-.35,1.04-.82,1.59-.59.43-1.04.96-1.35,1.59-.9,1.21-1.84,2.41-2.82,3.58-.43.27-.78.63-1.06,1.06l-.29.12c.71.86,1.14,1.76,1.29,2.7-.27.67-.39,1.33-.35,2-.04,2.55-.04,4.86,0,6.93.16,1.06.24,2.15.24,3.29-.04,1.02-.04,2.06,0,3.11-.24.63-.35,1.27-.35,1.94.16.35.2.78.12,1.29,0,1.25-.57,2.33-1.7,3.23l-1.59.29ZM220.78,38.2c-4.7-.86-9.38-1.78-14.05-2.76-.98-1.84-1.49-3.84-1.53-5.99l.18-.47c.24-2.31.35-4.62.35-6.93.04-2.08-.08-3.68-.35-4.82.16-.35.2-.68.12-1,.08-2.51.12-5.03.12-7.58-.27-.39-.69-.82-1.23-1.29l.71-1,.41-.29c.12-.31.27-.72.47-1.23.39-.24.82-.37,1.29-.41,1.06.35,2.14.78,3.23,1.29.2.47.29.98.29,1.53-.2,2.12-.39,4.17-.59,6.17l.29.29c3.56-1.18,6.9-2.84,9.99-5,.08-.43.33-.84.76-1.23.9-.39,1.82-.65,2.76-.76.47.16.9.33,1.29.53.94.59,1.74,1.37,2.41,2.35v1.23l-.82,1.47c-1.33.47-2.68.92-4.05,1.35-4.11,1.8-8.19,3.49-12.22,5.05-.2,2.94-.22,5.7-.06,8.29-.24.59-.39,1.16-.47,1.7,2.35,1.02,5.01,1.65,7.99,1.88,3.8.55,7.6.37,11.4-.53l1-.35c.82-.12,1.67-.41,2.53-.88,1.33-1.49,2.43-3,3.29-4.52l1.23-1.18.47.76c-.27,2.08-.71,4.05-1.29,5.94.12.59.21,1.25.29,2l-1.18.88-.29.65c-.43.67-.67,1.57-.71,2.7-.74.39-1.53.61-2.35.65l-.24.59c-3.1.78-6.29,1.1-9.58.94h-1.88Z"/>
      <path class="cls-1" d="M246.64,30.56c-.43-.31-.92-.51-1.47-.59-1.1-1.45-1.5-2.81-1.2-4.08.29-1.27,1.11-1.95,2.44-2.03.78-.55,1.57-.43,2.35.35.2.39.43.65.71.76l.82-.59c2.12-1.88,3.94-3.82,5.47-5.82-1.18-.39-2.31-1.12-3.41-2.17-.55-.43-.82-1-.82-1.7l.71-.71,1.7-.12c1.57.39,2.98.98,4.23,1.76.67-.55,1.12-1.18,1.35-1.88-.98-.43-1.92-1.08-2.82-1.94l-.41-.47c-2,1.41-4.21,2.35-6.64,2.82-.71-.35-1.47-.71-2.29-1.06l-.12-1c1.02-.98,2.14-1.84,3.35-2.59.47.08.9-.04,1.29-.35l.88-.88c1.21-.94,2.45-1.78,3.7-2.53.82-.9,1.72-1.72,2.7-2.47.51-.55,1.14-1.41,1.88-2.59.71-.39,1.47-.63,2.29-.71l1.12.59.29,2.12c2.47.08,4.86.57,7.17,1.47.43.39.65.86.65,1.41l-.65,1.12c-.67.2-1.21.47-1.65.82l-.06.12,1.76-.29.24.06v-.41l.88-.18.41.29c.71-.08,1.39.08,2.06.47l.47.65c1.21.59,2.45,1.14,3.7,1.65,1.29-.82,2.35-1.76,3.17-2.82l-.12-.18h-.82c-1.02,0-1.92.2-2.7.59-.78-.04-1.49-.33-2.12-.88l-.18-1.29c0-.94.27-1.72.82-2.35,1.33-.27,2.66-.35,4-.24.39.04.84.08,1.35.12,1.92.16,3.7.61,5.35,1.35.2.71.31,1.43.35,2.17l-.71.65c-.59-.04-1.02.08-1.29.35-.82,1.29-1.82,2.45-3,3.47l-.41.41-.82.59c4.62,4.51,10.42,7.13,17.39,7.87-.39.47-.61,1.04-.65,1.7l-1.29,1.06c-2.08.51-4.21,1.14-6.41,1.88l-.59.12c-.39-.24-.84-.35-1.35-.35-2.55-2.35-5.11-4.56-7.7-6.64-.31.43-.49.96-.53,1.59-1.14.67-2.39.98-3.76.94-2.66-.12-5.31-.1-7.93.06-2.23.27-4.37.61-6.41,1l-1.18-.94-.12-.82.24-1v-.06c-2.86,4.82-6.84,8.87-11.93,12.16l-1.7-.29-2.06.47ZM255.46,38.2c-.04-.39.1-.71.41-.94.86-.39,1.67-.88,2.41-1.47,1.25-1.37,2.27-2.78,3.06-4.23l-.29-.53c.31-.55.71-1.08,1.18-1.59l1.06-.94,1.65-.06h.76l.65.29c.43.43.67.96.71,1.59.16,1.25-.29,2.29-1.35,3.11-.39.24-.71.55-.94.94l-.53.71c-1.18,1.45-2.59,2.78-4.23,4-.74.59-1.53,1-2.35,1.23-1.53.08-2.25-.63-2.17-2.12ZM271.26,41.55c-.31-.27-.73-.43-1.23-.47-.04-3.37-.06-6.72-.06-10.05.16-1.61-.16-2.92-.94-3.94h-.41c-2.9.27-5.66.92-8.29,1.94l-1.06-.41c-.43-.43-.65-.96-.65-1.59l.41-.76c0-.78.24-1.49.71-2.12l.29-.35.41-.65c4.35-1.06,8.85-1.61,13.52-1.65h.59c4.19.08,8.19.86,11.99,2.35.43.67.63,1.49.59,2.47l-.65.24-1.47,1.18-.94.06c-2.19-.47-4.37-.84-6.52-1.12l-1.06.12-2.47-.18-.12.29.41,1.82c0,1.02.06,1.9.18,2.64-.04,1.53-.04,3.04,0,4.52,0,1.49-.29,2.94-.88,4.35l-.71.35c-.27.31-.82.63-1.65.94ZM262.1,10.58c1.06-1.29,2.08-2.59,3.06-3.88-.74-.12-1.61-.21-2.59-.29-1.14.78-2.1,1.67-2.88,2.64.59.43,1.29.9,2.12,1.41l.29.12ZM263.98,15.63c-.2.27-.29.43-.29.47.16-.12.29-.31.41-.59l-.12.12ZM268.38,9.34l-.12.41c-1.45,1.76-2.78,3.58-4,5.47l.59-.18.76.06c.39-.08.86-.16,1.41-.24,2.94.2,5.92.26,8.93.18,1.21.04,2.19.12,2.94.24-1.21-1.61-2.8-2.94-4.76-4-1.57-.59-3.08-1.45-4.52-2.59l.06-.53c-.55.35-.98.74-1.29,1.18ZM276.49,29.68l-.35-.71c.43-.31.82-.53,1.18-.65.55.2,1.12.24,1.7.12,1.45.71,2.74,1.51,3.88,2.41l1.65,1.41.24.35c1.21.82,2,1.77,2.35,2.85.35,1.08.21,1.81-.41,2.2l-.65-.12h-.53c-.82.08-1.95-.55-3.38-1.88-1.43-1.33-3.32-3.33-5.67-5.99Z"/>
      <path class="cls-1" d="M5.94,86.74l-.94-.76c-1.02-.08-2.06-.37-3.11-.88l-.65-1.29c.82-1.14,1.74-2.21,2.76-3.23l.88-.12.82.12.65-.06c.9.08,1.76.27,2.59.59.35-.08.68-.29,1-.65,1.8-2.39,2.72-5.05,2.76-7.99l-.24-.12-.59.18h-1.06l-.76-.76-.29-.76.18-.53c.04-.47.06-.9.06-1.29.43-.24.76-.51,1-.82.47-.16.82-.29,1.06-.41l.53-.71,1.59-.71,1.41.12c.67.16,1.23.2,1.7.12,3.88-.55,7.84-.94,11.87-1.18h1.06c2.08-.08,4.07-.18,5.99-.29l.65.06h3.29c5.29.35,10.42,1.45,15.4,3.29.47.39.74.9.82,1.53-.27.39-.51.78-.71,1.18l-.53.41.47,2.23.29,2.12-.18.53.18,1.23c.04.59.08,1.12.12,1.59.04.71.08,1.39.12,2.06-.27,1.14-.69,2.21-1.23,3.23-.51.47-1.16.71-1.94.71-.35-.24-.78-.43-1.29-.59-.31-.82-.43-1.68-.35-2.59.47-3.68.29-7.25-.53-10.7-2.9-.74-5.94-1.31-9.11-1.7l-4.23-.24-.59.18c-.82-.2-1.7-.27-2.64-.24-2.27.24-4.58.31-6.93.24-.94,0-1.78.1-2.53.29-1.37.08-2.57.22-3.58.41l-.94-.06c-1.49.08-2.82.41-4,1,.08,1.14.04,2.31-.12,3.53-.35,3.21-1.45,6.25-3.29,9.11-.55.35-1.02.76-1.41,1.23l-1.41.24-.47-.06c-.47.31-.96.53-1.47.65l-.59.35-1.53.24ZM9.93,59.12l-.94-.12-.88-.41-.41-2.23c.35-.67.71-1.35,1.06-2.06l.47-.24.24-.65c1.61-.71,3.13-1.33,4.58-1.88l.88-.12c.31.27.67.37,1.06.29,4.23-.82,8.52-1.35,12.87-1.59l.06-.29-.53-.88c.35-.55.72-1.06,1.12-1.53.86-.67,1.88-1,3.06-1l1.35.71c.39.55.59,1.18.59,1.88-.24.31-.33.55-.29.71,7.68.51,15.1,1.92,22.27,4.23l.35.94-.71,1c-.74.51-1.55.82-2.41.94-.59.12-1.06.16-1.41.12h-.76c-3.37-.74-6.82-1.27-10.34-1.59-1.41-.12-2.74-.24-4-.35l-1.53-.06c-.82-.04-1.47-.1-1.94-.18l-4.94.12c-1.25.2-2.61.35-4.05.47-2.47.16-4.76.45-6.88.88-1.57.27-2.98.73-4.23,1.35-1.18.82-2.41,1.33-3.7,1.53ZM19.57,65.94l-1.29-.47v-.76l-.12-.53c.78-.94,1.23-1.9,1.35-2.88l-.88-.53c-.2-.31-.27-.68-.24-1.12l.47-1.23.47-.24.29-.65.59-.18c.12-.27.18-.63.18-1.06,1.18,0,2.21-.12,3.11-.35l3.17-.24c.86-.08,1.68-.12,2.47-.12,1.29-.16,2.53-.24,3.7-.24.86.16,1.74.18,2.64.06,3.64.16,7.15.82,10.52,2l1.06,1.18c-.47.39-.74.74-.82,1.06l-.35.35c-.24,1.06-.55,2.08-.94,3.06l.24.47v.76c-.2.39-1.04.69-2.53.88l-2.59-.35c-.94,0-1.72-.08-2.35-.24l-.71.06c-.74-.27-1.59-.37-2.53-.29-1.49,0-3-.02-4.52-.06-.94.08-1.86.18-2.76.29-.86.16-1.63.31-2.29.47l-1.12-.12h-.47c-1.21.31-2.47.65-3.76,1ZM20.92,83.39l-1.53-1.29c-.16-.47-.35-.94-.59-1.41.31-.27.49-.59.53-.94.59-.16,1.02-.45,1.29-.88l.82-.12c.27-.78.37-1.63.29-2.53l-.41-.35-1.53.29c-.47-.31-.69-.71-.65-1.18l.12-.82,1-.53c.2-.47.51-.92.94-1.35.43-.39.88-.67,1.35-.82l.41-.35,1.23.12c2.55-.31,5.19-.57,7.93-.76l.53.06.47-.06c4.78.2,9.34,1.04,13.69,2.53.39.43.57.94.53,1.53l-.47.24-.12.29c.39.82.59,1.8.59,2.94l-.35,1.47c.47.43.68,1.14.65,2.12l-1.41,1.18c-.9.27-1.88.41-2.94.41h-.82l-.47-.12c-1.45-.27-2.86-.41-4.23-.41l-1.12-.12-.59.12-.59-.12-1.35.18c-.63-.12-1.25-.18-1.88-.18-1.18.31-2.47.45-3.88.41l-.76-.06-3.82.35c-1.06-.04-2.02.02-2.88.18ZM42.14,62v-.24l-.29-1.59c-1.37-.39-2.86-.61-4.47-.65-1.8-.08-3.58-.1-5.35-.06-1.21.2-2.53.33-3.94.41l-.76.06-2.64.29c-.63.04-1.12.18-1.47.41-.2.43-.29.86-.29,1.29l.41.18c2.47-.43,5.05-.71,7.76-.82h4.47l6.58.71ZM43.49,78.69l-.12-1.82-.47-1.18c-1.57-.43-3.31-.71-5.23-.82-1.49-.31-3-.47-4.52-.47h-.94c-2.12.16-4.23.35-6.35.59l-.88-.06-.24.18c.16,1.06.14,2.14-.06,3.23.12.08.37.1.76.06,1.06-.04,2.08-.16,3.06-.35,2.04-.12,3.96-.21,5.76-.29l.82.18,1.23-.06c2.59.12,4.97.39,7.17.82Z"/>
      <path class="cls-1" d="M64.82,82.33c-.63-.74-1.14-1.53-1.53-2.35l.12-.65-.12-.71c.27-.43.35-.94.24-1.53.43-.86.9-1.63,1.41-2.29,2.59-1.72,5.45-2.74,8.58-3.06,1.57-.16,3.06-.37,4.47-.65,2.31-.31,4.6-.49,6.88-.53l.53.06,4.94-.12c6.27-.08,12.26,1.06,17.98,3.41,2.9-.2,6.37-1.04,10.4-2.53l-.76,1.12.12.88-1.65,1.18c-.04.39-.29.74-.76,1.06l-.76.47-.59.59c-1.18.55-2.27,1.2-3.29,1.94l-.35.76-.65.06-.35.18c-.63.67-1.35,1.04-2.17,1.12h-.65c-6.46-3.84-13.54-5.78-21.21-5.82-1.53,0-3.02.16-4.47.47-4.55.24-8.62,1.33-12.22,3.29-.63.71-1.08,1.51-1.35,2.41l-.59.53-2.17.71ZM76.16,57.77c-.55-.2-1.06-.39-1.53-.59-.67-.78-.96-1.7-.88-2.76.35-.51.63-1,.82-1.47,2-1.1,4.11-1.88,6.35-2.35.47.27,1,.39,1.59.35,1.92-.27,3.88-.51,5.88-.71l2.06.06.82-.06c4.7-.2,9.34.78,13.93,2.94-.27.43-.45.86-.53,1.29l-.29.71-1,1.23-1.29.18c-3.06-.35-6.05-.67-8.99-.94l-.59.18c-1.06-.27-2.1-.27-3.11,0-4.04,0-7.78.65-11.22,1.94l-.65-.24-.65.06-.71.18ZM77.45,68.4c-.82-.12-1.53-.43-2.12-.94-.51-.35-.94-.8-1.29-1.35v-1.06c.12-1.1.39-2.15.82-3.17,1.8-.55,3.58-.9,5.35-1.06.67-.08,1.33-.06,2,.06,2.74-.12,5.43-.31,8.05-.59,4.5-.04,9.03.86,13.57,2.7.51.71.14,1.49-1.12,2.35l-.35.06v.59l-1.18.94c-1.02.04-1.88-.04-2.59-.24-1.57-.43-3.45-.74-5.64-.94l-.71.12-2.23-.18c-1.65.2-3.37.37-5.17.53l-.47-.12-2.23.06c-1.25.16-2.41.73-3.47,1.7-.24.31-.53.41-.88.29l-.35.24Z"/>
      <path class="cls-1" d="M137.04,87.21l-.53-.29c-.74-1.18-1.2-2.41-1.35-3.7.08-1.21.21-2.45.41-3.7.24-1.96.41-4.19.53-6.7l-.47-.24c-.51.2-1,.55-1.47,1.06-1.06.51-2.08,1.06-3.06,1.65l-.82,1-.18.59-1.23.18-.41-.12c-.35.2-.8.29-1.35.29l-.88-.35c-.47-1.1-.82-2.19-1.06-3.29.16-.67.25-1.29.29-1.88l-.12-.47.24-.71c3.6-1.72,7.29-3.02,11.05-3.88.2-.74.29-1.74.29-3-.08-1.33-.1-2.62-.06-3.88l-.12-.24-1-.06-1.53.06c-1.1,0-1.94-.1-2.53-.29-.74,1.45-1.86,2.76-3.35,3.94-1.37.2-2.7.43-4,.71-.47-.35-.8-.74-1-1.18l-.24-1.06.76-.41c.24-.59.63-1.19,1.18-1.82.63-.35,1.19-.82,1.7-1.41l.41-.47c1.18-1.57,1.76-3.64,1.76-6.23l.53-1.23,1.29-.76.88.06,1.41,1,.06,1.18c.39,1.1.61,1.84.65,2.23.47.16,1.08.22,1.82.18l1.7-.24c.04-1.57.14-3.94.29-7.11l1.59-1.23c.9,1.06,1.39,2.64,1.47,4.76l.06,1.59v1.76c1.68,0,3.29.55,4.82,1.65l.29.88-.18.53c3.68-1.14,7.54-1.9,11.58-2.29l.18-.88c-.2-.2-.51-.24-.94-.12-1.88.2-3.8.53-5.76,1l-.59-.29c-.2-.55-.29-1.12-.29-1.7.08-1.14.55-2.15,1.41-3.06.47,0,.88-.14,1.23-.41,1.72-.43,3.33-.71,4.82-.82,0-.51.2-1.04.59-1.59.39-.43.94-.76,1.65-1,.63.82,1.02,1.63,1.18,2.41,3.64.04,7.11.9,10.4,2.59.35.67.59,1.33.71,2l-.29.59c-1.76.63-3.51.74-5.23.35-1.02-.16-2.06-.31-3.11-.47l-.76-.06-1.53.29c-.27.35-.41.78-.41,1.29l.29.12c3.6-.2,7.21.06,10.81.76,1.88.31,3.64.84,5.29,1.59.24.47.33.98.29,1.53-.31.39-.69.69-1.12.88l-.88.06-.65.12c-1.68-.16-3.31-.37-4.88-.65l-.71.18c-.9-.27-1.76-.43-2.59-.47-3.29-.2-6.58-.29-9.87-.29-3.96.04-7.64,1.06-11.05,3.06-.71-.04-1.25-.31-1.65-.82l-.06-.71c.2-.71.33-1.16.41-1.35-.94.51-2.14.86-3.58,1.06-.2.43-.29.96-.29,1.59-.2,1.1-.29,2.12-.29,3.06s.02,1.57.06,1.88l.94.06,1-.12c.63.35,1.1.82,1.41,1.41l.06.71c-.78,1.49-1.94,2.51-3.47,3.06-.2.27-.27.65-.24,1.12-.24,2.55-.29,4.74-.18,6.58-.2.51-.27,1.06-.24,1.65l.12.59-.18.53.18.76c-.39,1.14-.49,2.31-.29,3.53-.31.35-.53.76-.65,1.23l-1.41.18ZM152.32,85.45c-.55-.12-1.08-.39-1.59-.82l.06-1.35c4.74-1.8,8.99-4.39,12.75-7.76.82-.71,1.21-1.61,1.18-2.7l-.24-2.23-.41-4.47c-.63,0-1.25-.04-1.88-.12-2.51.2-5,.22-7.46.06-1.21.16-2.41.37-3.58.65-1.18.08-2.14.27-2.88.59-.63.78-1.35,1.2-2.17,1.23-.47-.12-.78-.35-.94-.71-.24-.67-.33-1.41-.29-2.23.16-1.14.53-2.21,1.12-3.23,2.7-.82,5.48-1.39,8.34-1.7,3.45.04,6.82.12,10.11.24l.76-1.29,1.53.12.82,1.59c3.06.63,6.8,1.65,11.22,3.06l-2,1.82c0,.47-.27.9-.82,1.29h-1.12c-.59.08-1.23.22-1.94.41l-1.41-.18c-1.33-.39-2.37-.71-3.11-.94.08,3.88-.02,6.23-.29,7.05l.18.41c.16,1.88-.76,3.49-2.76,4.82-4.23,2.74-8.62,4.88-13.16,6.41ZM158.08,76.98c-.94-.12-1.74-.45-2.41-1-.82-1.61-1.49-3.27-2-5,.2-.74.24-1.55.12-2.41l1.06-.71c1.06.16,1.98.55,2.76,1.18.98,1.02,1.61,2.17,1.88,3.47-.16,1.57-.63,3.06-1.41,4.47Z"/>
      <path class="cls-1" d="M196.1,85.56l-.94-.88c-.2-.59-.31-1.18-.35-1.76.08-.55.29-.98.65-1.29,3.21-3.17,5.95-6.58,8.23-10.23.51-.78.82-1.47.94-2.06-.98-.27-2.1-.53-3.35-.76l-.41.47c-.71,1.02-1.55,2.04-2.53,3.06-2.19,1.72-4.49,3.37-6.88,4.94-.51.39-1.08.71-1.7.94-.31-.39-.67-.59-1.06-.59-1.65-.9-3.29-1.76-4.94-2.59l-1.06-2.7.35-1.29.24-1.41c.86-.27,1.67-.49,2.41-.65,1.61,1.1,3.25,1.86,4.94,2.29,2.7-1.45,5.05-3.31,7.05-5.58.2-.74.51-1.49.94-2.23.31-.51.68-.67,1.12-.47.31-.24.61-.53.88-.88h-.06v-.06l-2.59.35-1.59-.06c-1.14-.08-2.12.24-2.94.94l-1.06.59c-1.18-1.02-1.76-2.14-1.76-3.35.16-.74.47-1.49.94-2.23l.53-.24c.2-.82.29-1.68.29-2.59-.24-.47-.43-1.04-.59-1.7l.18-.59-.12-.71c.24-.98.59-1.94,1.06-2.88,2.12-.86,4.41-1.25,6.88-1.18l.71.06,1.41-.12c1.61-.2,3.17-.29,4.7-.29l.47.06.65-.06c2.27.12,4.31.76,6.11,1.94.43.67.68,1.41.76,2.23l-.71,1.18-.71.53v.35l.18,1.65c0,1.57-.45,2.94-1.35,4.11l.18.41-.82.94c-.98.43-2.02.74-3.11.94h-.53c-1.14-.2-2.25-.31-3.35-.35l-.41.88c2.15.35,4.25,1.14,6.29,2.35.27.43.39.98.35,1.65l-.18.24.29.71-.53.35.12.82-.59.65h-.59c-.39.24-.73.53-1,.88-2.39,5.09-5.62,9.81-9.7,14.16-.74.43-1.53.8-2.35,1.12ZM209.21,56.94l.24-2.47c-1.8-.63-3.76-.96-5.88-1-.98.27-1.98.47-3,.59l-3.17-.06-1.29.29c-.16.74-.27,1.55-.35,2.41l.18.18.76.12c1.1-.16,2.27-.27,3.53-.35l.76.12c1.61-.2,3.29-.27,5.05-.24,1.21.08,2.27.22,3.17.41ZM214.08,68.58l-.76-.24-.29-.71-.47-2.17c.43-.94.74-1.94.94-3l.82-.24.35-.59.94-.18.65-.71c.63.51,1.1.92,1.41,1.23l.24.12c1.21-1.02,2.76-1.57,4.64-1.65l.76.29c.04.94-.12,1.63-.47,2.06l-.47.29-.06.53-.88.29-1.65,1.59-.29,1.18c-.43,0-.73.06-.88.18l-.47.82c-1.1.67-2.27.96-3.53.88h-.53ZM220.02,86.03c-.27-.24-.57-.33-.88-.29l-1.06-.65c0-1.1.39-1.92,1.18-2.47,3.37-1.37,6.48-3.09,9.34-5.17,1.29-2.55,1.96-5.35,2-8.4-.27-4.23-.29-8.46-.06-12.69,0-.24-.08-.43-.24-.59-.39-.24-.71-.55-.94-.94l-.59-.53c.35-.67.47-1.18.35-1.53-.55-.63-.86-1.41-.94-2.35l.41-1.65c.82-.04,1.55-.18,2.17-.41l1,.24.53-.06.76.35c.51,1.61.92,3.17,1.23,4.7.12,1.41.16,2.8.12,4.17.31,5.84.37,11.69.18,17.57-.43.82-.65,1.72-.65,2.7-.39,1.49-.86,2.9-1.41,4.23-1.06.67-2.14.9-3.23.71l-1.35.41c-2.7.74-5.35,1.63-7.93,2.64Z"/>
      <path class="cls-1" d="M246.23,83.74l-.59-.12-.76.06-1.41-.65-.53-1.35c0-1.1.18-2.08.53-2.94h.82c.71-.43,1.47-.72,2.29-.88l.53-.47.59.06,3-1.06c.12-.59.18-1.27.18-2.06v-5.88l-.41-.24c-1.61.2-3.29.57-5.05,1.12-.47-.59-.9-1.16-1.29-1.7l-.41-1.47.24-1.7.59-1.35c.39.12.72-.02,1-.41.51.2.92.26,1.23.18l1-.65.71.06.82-.18c.47.31.94.43,1.41.35l.24-3.23v-1.06c-.51-.55-.78-1.18-.82-1.88-.27-.27-.63-.37-1.06-.29-1.14.04-2.17.29-3.11.76-.63-.16-1.21-.39-1.76-.71-.35-.98-.71-1.9-1.06-2.76l.06-.82.65-.76.12-1c2.12-.9,4.31-1.37,6.58-1.41l2,.47c2.9-.24,5.43.35,7.58,1.76.51.55.84,1.14,1,1.76.08.78-.18,1.43-.76,1.94-.39.2-.8.26-1.23.18l-.71-.18-1.47.41-.47-.12c-.39.04-.73.18-1,.41-.27.63-.27,1.35,0,2.17-.27.51-.41,1.02-.41,1.53v1.94l.18.71c1.37.24,2.62.96,3.76,2.17l.35.76c0,.74-.33,1.21-1,1.41l-.53.29c-1.1.24-1.94.51-2.53.82-.2,1.92-.37,3.92-.53,5.99l.18,1.59.41.06,1.35-.12,1.23.59c.27.39.39.84.35,1.35l-1.06.88c-.78.27-1.49.57-2.12.88-.59.55-1.23,1.02-1.94,1.41l-1.06.24c-.98.16-1.76.47-2.35.94l-.35.94c-.98.63-2.04,1.04-3.17,1.23ZM261.86,86.86c-.43-.94-.67-1.86-.71-2.76,6.31-7.84,9.17-16.77,8.58-26.8l-.06-.53.24-1.41c-.27-2.31-.1-4.62.53-6.93l1.29-1.47c1.1.31,2.1.55,3,.71.35.51.53,1.06.53,1.65-.78,2.35-1.2,4.86-1.23,7.52-.08,5.45-.29,10.89-.65,16.34-.35.63-.65,1.27-.88,1.94l-.41.24c-.16.74-.47,1.49-.94,2.23-.63.47-1.21,1.02-1.76,1.65l-.47.71c-1.8,2.51-4.15,4.82-7.05,6.93ZM264.04,66.17c-.59-.12-1.14-.33-1.65-.65-.35-.71-.59-1.43-.71-2.17-.04-.74-.04-1.41,0-2l.29-1.88-.47-.76.12-.82-.12-.65c.27-.47.41-.98.41-1.53.24-.78.63-1.37,1.18-1.76.71-.55,1.51-.86,2.41-.94l.47.12.71-.06.47,1.18c.24,1.18.41,2.27.53,3.29-.2,1.29-.43,2.55-.71,3.76l.06.53c0,1.21-.37,2.33-1.12,3.35-.51.55-1.14.88-1.88,1ZM275.02,82.51c-.67-.16-1.12-.51-1.35-1.06l-.35-1.18c.27-.82.45-1.67.53-2.53l.94-.65.35-.47c1.21-.2,2.31-.53,3.29-1l.41-.59c1.45.43,2.76.63,3.94.59.16-.59.24-1.27.24-2.06-.08-1.29-.08-2.55,0-3.76-1.29-.43-2.68-.51-4.17-.24-.63-.24-1.18-.63-1.65-1.18v-1.06c.04-.71.12-1.29.24-1.76l.76-1.47,4-.59.53.06.35-.18.12-1.53-.47-1.35c.12-.63.2-1.16.24-1.59l-.47-.12-2.94.24c-.43-.16-.88-.31-1.35-.47-.51-.67-.86-1.39-1.06-2.17v-.94c.27-1.02.61-2.08,1-3.17,2.35-.51,4.76-.76,7.23-.76,3.68.2,6.99,1.31,9.93,3.35.71.59,1.04,1.33,1,2.23l-.47.88-.82.53-.41,1.23-2.47.12c-1.65-.59-3.33-1-5.05-1.23-.2.27-.26.63-.18,1.06.2,1.25.25,2.39.18,3.41,2.55-.16,4.82.53,6.82,2.06.67.78,1,1.7,1,2.76l-.82.29-.35-.06-.47.65-1.18.41c-.78-.24-1.65-.31-2.59-.24-.9,0-1.65.12-2.23.35-.16,1.33-.33,2.64-.53,3.94.08.74.06,1.47-.06,2.17l.18.18c3.49,0,6.8.96,9.93,2.88l.12,1-.12.94c-.55.24-1,.41-1.35.53l-.71.71-.88.47c-2.55-.67-5.19-1-7.93-1-.47.24-1,.31-1.59.24l-3.11-.06c-2.04.35-4.09.74-6.17,1.18Z"/>
    </g>
  </g>
</svg>