<?xml version="1.0" encoding="UTF-8"?>
<svg id="_レイヤー_2" data-name="レイヤー 2" xmlns="http://www.w3.org/2000/svg" viewBox="0 0 283.46 321.24">
  <g id="_レイヤー_1-2" data-name="レイヤー 1">
    <g>
      <g>
        <polygon class="cls-1" points="154.87 130.44 146.78 136.76 191.77 173.19 198.06 165.42 154.87 130.44"/>
        <polygon class="cls-1" points="127.17 152.8 119.08 159.11 165.21 196.47 171.51 188.7 127.17 152.8"/>
        <g>
          <polygon class="cls-1" points="204.95 105.66 204.95 0 140.73 45.37 76.51 0 76.51 172.54 137.73 219.84 143.73 219.84 204.95 172.54 204.95 124.4 195.35 116.9 195.35 167.83 140.73 210.04 86.11 167.83 86.11 18.53 139.95 56.57 141.51 56.57 195.35 18.53 195.35 98.16 204.95 105.66"/>
          <polygon class="cls-1" points="140.73 57.12 140.73 57.12 140.73 57.12 140.73 57.12"/>
        </g>
        <g>
          <polygon class="cls-1" points="140.56 57.46 148.88 51.41 143.81 47.49 137.81 47.49 76.59 94.79 76.59 102.7 86.19 102.7 86.19 99.5 140.58 57.47 140.56 57.46"/>
          <polygon class="cls-1" points="156.97 56.31 148.88 62.19 195.25 98.01 195.25 98.01 199.38 101.23 204.87 101.23 204.87 93.32 156.97 56.31"/>
        </g>
        <g>
          <polygon class="cls-1" points="101.69 185.27 101.69 205.23 61.09 246.07 20.5 205.23 20.5 58.07 61.09 95.42 86.11 72.4 86.11 67.41 77.37 67.41 61.09 82.38 10.9 36.21 10.9 209.19 58.06 256.63 64.13 256.63 111.28 209.19 111.28 206.19 111.28 205.86 111.28 204.82 111.28 198.37 111.58 198.37 111.58 192.91 101.69 185.27"/>
          <polygon class="cls-1" points="219.74 82.38 204.98 68.81 204.98 67.41 195.39 67.41 195.39 73.02 219.74 95.42 260.33 58.07 260.33 205.23 219.74 246.07 179.14 205.23 179.14 187.01 170.26 193.88 170.26 209.91 216.7 256.63 222.77 256.63 269.93 209.19 269.93 36.21 219.74 82.38"/>
        </g>
        <polygon class="cls-1" points="183.52 107.39 175.55 113.8 204.41 137.17 204.41 124.3 183.52 107.39"/>
        <polygon class="cls-1" points="156.93 56.31 129.77 76.04 137.39 82.86 159.14 67.06 159.59 58.39 156.93 56.31"/>
      </g>
      <g>
        <path d="M0,293.89h20.92v3.6H4.71v5.29h15.38v3.57H4.71v8.06H0v-20.52Z"/>
        <path d="M42.58,301.4c1.08,1.01,1.42,2.43,1.42,6.06,0,2.55-.49,4.61-1.29,5.41-.52.52-1.42,1.01-2.15,1.23-1.14.34-4,.59-6.77.59-8.18,0-9.66-1.14-9.66-7.54,0-3.26.43-4.86,1.54-5.85.52-.46,1.35-.86,2.18-1.08,1.08-.28,4.03-.52,6.09-.52,5.08,0,7.29.43,8.65,1.69ZM29.05,303.83c-.58.65-.8,1.6-.8,3.41,0,3.72.8,4.37,5.35,4.37,2.92,0,4.28-.15,4.98-.56.95-.55,1.29-1.54,1.29-3.72,0-3.88-.77-4.55-5.23-4.55-3.6,0-4.92.25-5.6,1.05Z"/>
        <path d="M48.13,299.98h3.91v3.05c.65-1.54,1.02-2.06,1.75-2.49.95-.52,2.46-.83,4.34-.83,2.89,0,4.71.68,5.48,2.03.49.86.68,1.88.68,3.6,0,.15,0,.52-.03.92h-3.85c0-1.26-.06-1.69-.31-2.22-.37-.71-1.51-1.11-3.2-1.11-3.42,0-4.71,1.14-4.71,4.06v7.42h-4.06v-14.43Z"/>
        <path d="M71.39,307.98c.03,1.66.31,2.71.86,3.23.62.55,2.31.8,5.32.8,3.38,0,4.43-.46,4.65-2.09h4c-.06,1.57-.49,2.61-1.38,3.35-1.26,1.02-3.29,1.39-7.57,1.39-3.29,0-5.88-.28-6.98-.77-2.22-1.01-3.05-2.77-3.05-6.61,0-3.11.52-4.86,1.75-6,1.29-1.2,3.17-1.54,8.18-1.54,4.65,0,6.46.43,7.69,1.79,1.02,1.17,1.38,2.58,1.38,5.51v.95h-14.86ZM82.22,305.58c0-.83-.09-1.29-.37-1.82-.22-.4-.52-.71-.83-.86-.71-.31-2.06-.52-3.57-.52-3.11,0-4,.09-4.86.55-.74.4-1.2,1.35-1.2,2.46v.19h10.83Z"/>
        <path d="M90.35,293.83h4.06v3.39h-4.06v-3.39ZM90.35,299.98h4.06v14.43h-4.06v-14.43Z"/>
        <path d="M118.35,313c0,4.43-.56,6-2.58,7.14-1.45.8-3.72,1.11-8.15,1.11-3.17,0-5.11-.28-6.34-.95-1.45-.8-2.31-2.31-2.31-4.18v-.12h4.12v.12c.03.8.43,1.42,1.23,1.75.71.31,1.85.43,4.03.43,5.38,0,6.03-.55,6.03-5.29v-1.29c-.37.8-.65,1.17-1.11,1.57-.98.86-2.71,1.23-5.6,1.23-7.48,0-9.17-1.38-9.17-7.41s1.6-7.38,9.26-7.38c3.2,0,4.86.37,5.69,1.29.4.46.62.92.92,1.91v-2.92h3.97v13.01ZM103.33,303.83c-.55.62-.77,1.51-.77,3.17,0,2,.25,2.99.89,3.57.4.34,1.14.62,1.91.71.18.03,3.05.12,3.54.12,4.49,0,5.32-.68,5.32-4.28,0-1.69-.12-2.37-.58-3.08-.62-.98-1.63-1.23-4.83-1.23-3.57,0-4.83.22-5.48,1.02Z"/>
        <path d="M123.03,299.98h3.97v3.14c.92-2.77,2.43-3.51,7.01-3.51,3.42,0,5.26.52,6.46,1.85.92,1.05,1.26,2.31,1.26,4.71v8.25h-4.06v-8.06c0-2.74-1.01-3.45-4.89-3.45-4.24,0-5.69,1.08-5.69,4.21v7.29h-4.06v-14.43Z"/>
        <path d="M159.24,310.35l-2.28,4.06h-5.32l11.75-20.52h6.43l11.57,20.52h-5.17l-2.34-4.06h-14.64ZM166.57,297.22l-5.51,9.81h11.08l-5.57-9.81Z"/>
        <path d="M185.12,302.88h-2.99v-2.89h2.99v-.74c0-4.43,1.6-5.72,7.17-5.72.95,0,1.69.03,2.77.09v2.83c-.83-.03-1.29-.03-1.88-.03-3.11,0-4,.62-4,2.83v.74h6.06v2.89h-6.06v11.54h-4.06v-11.54Z"/>
        <path d="M200.57,302.88h-2.98v-2.89h2.98v-.74c0-4.43,1.6-5.72,7.17-5.72.95,0,1.69.03,2.77.09v2.83c-.83-.03-1.29-.03-1.88-.03-3.11,0-4,.62-4,2.83v.74h6.06v2.89h-6.06v11.54h-4.06v-11.54Z"/>
        <path d="M213.71,304.17c.06-1.6.4-2.43,1.29-3.14,1.26-1.02,2.98-1.32,7.17-1.32,5.57,0,7.38.34,8.55,1.63.86.95,1.08,1.82,1.08,4.15v8.92h-4.06v-2.31c-.52,2-1.97,2.58-6.43,2.58-3.88,0-5.54-.19-6.55-.77-1.17-.65-1.69-1.81-1.69-3.72,0-3.97,1.48-4.77,8.74-4.77,4.09,0,5.26.37,5.88,1.88v-1.57c0-2.92-.59-3.29-5.02-3.29-4.15,0-4.71.19-4.86,1.72h-4.09ZM217.89,308.41c-.49.21-.8.83-.8,1.57,0,1.14.55,1.69,1.94,1.91.49.06,1.48.09,3.48.09,4.21,0,5.2-.4,5.2-2.12,0-.71-.28-1.26-.77-1.45-.77-.34-2.22-.49-4.68-.49-2.28,0-3.63.15-4.37.49Z"/>
        <path d="M236.48,293.83h4.06v3.39h-4.06v-3.39ZM236.48,299.98h4.06v14.43h-4.06v-14.43Z"/>
        <path d="M245.22,299.98h3.91v3.05c.65-1.54,1.02-2.06,1.75-2.49.95-.52,2.46-.83,4.34-.83,2.89,0,4.71.68,5.47,2.03.49.86.68,1.88.68,3.6,0,.15,0,.52-.03.92h-3.85c0-1.26-.06-1.69-.31-2.22-.37-.71-1.51-1.11-3.2-1.11-3.42,0-4.71,1.14-4.71,4.06v7.42h-4.06v-14.43Z"/>
        <path d="M278.6,303.89c0-1.2-.95-1.48-5.11-1.48-3.85,0-4.95.4-4.95,1.72,0,1.23.68,1.45,4.74,1.45h2.25c3.75,0,5.2.18,6.4.86,1.04.58,1.54,1.69,1.54,3.45,0,2.64-.89,3.85-3.32,4.4-1.23.28-3.48.4-7.26.4-4.95,0-6.68-.34-7.75-1.57-.71-.77-.95-1.63-.95-3.17v-.15h4.25v.15c.09,1.82.65,2,5.88,2.03q3.51-.06,4.31-.43c.43-.21.71-.74.71-1.32,0-1.42-.83-1.75-4.46-1.69-1.41.03-4.86-.03-5.66-.06-3.57-.25-4.83-1.32-4.83-4.12,0-2.49.89-3.69,3.2-4.22,1.29-.28,3.32-.43,6.25-.43,4.46,0,6.18.22,7.48.92,1.02.55,1.54,1.66,1.54,3.29v.09h-4.21v-.12Z"/>
      </g>
    </g>
  </g>
</svg>