<?xml version="1.0" encoding="UTF-8"?>
<svg id="_レイヤー_2" data-name="レイヤー 2" xmlns="http://www.w3.org/2000/svg" viewBox="0 0 351.03 313.09">
  <g id="_レイヤー_1-2" data-name="レイヤー 1">
    <g>
      <g>
        <polygon points="189.97 130.44 181.88 136.76 226.87 173.19 233.16 165.42 189.97 130.44"/>
        <polygon points="162.27 152.8 154.18 159.11 200.31 196.47 206.61 188.7 162.27 152.8"/>
        <g>
          <polygon points="240.05 105.66 240.05 0 175.83 45.37 111.61 0 111.61 172.54 172.83 219.84 178.83 219.84 240.05 172.54 240.05 124.4 230.45 116.9 230.45 167.83 175.83 210.04 121.21 167.83 121.21 18.53 175.05 56.57 176.61 56.57 230.45 18.53 230.45 98.16 240.05 105.66"/>
          <polygon points="175.83 57.12 175.83 57.12 175.83 57.12 175.83 57.12"/>
        </g>
        <g>
          <polygon points="175.66 57.46 183.98 51.41 178.91 47.49 172.91 47.49 111.69 94.79 111.69 102.7 121.29 102.7 121.29 99.5 175.68 57.47 175.66 57.46"/>
          <polygon points="192.07 56.31 183.98 62.19 230.34 98.01 230.35 98.01 234.48 101.23 239.97 101.23 239.97 93.32 192.07 56.31"/>
        </g>
        <g>
          <polygon points="136.79 185.27 136.79 205.23 96.19 246.07 55.6 205.23 55.6 58.07 96.19 95.42 121.21 72.4 121.21 67.41 112.47 67.41 96.19 82.38 46 36.21 46 209.19 93.15 256.63 99.23 256.63 146.38 209.19 146.38 206.19 146.38 205.86 146.38 204.82 146.38 198.37 146.68 198.37 146.68 192.91 136.79 185.27"/>
          <polygon points="254.84 82.38 240.08 68.81 240.08 67.41 230.49 67.41 230.49 73.02 254.84 95.42 295.43 58.07 295.43 205.23 254.84 246.07 214.24 205.23 214.24 187.01 205.36 193.88 205.36 209.91 251.8 256.63 257.87 256.63 305.03 209.19 305.03 36.21 254.84 82.38"/>
        </g>
        <polygon points="218.62 107.39 210.65 113.8 239.51 137.17 239.51 124.3 218.62 107.39"/>
        <polygon points="192.02 56.31 164.87 76.04 172.49 82.86 194.24 67.06 194.69 58.39 192.02 56.31"/>
      </g>
      <g>
        <path d="M0,288.75h25.52v4.21H5.47v5.69h19.08v3.78H5.47v6.12h20.27v4.21H0v-24.01Z"/>
        <path d="M36.72,303.91l-7.45-8.03h6.23l4.79,5.51,4.9-5.51h6.12l-7.34,7.85,8.28,9.04h-6.12l-5.83-6.62-5.8,6.62h-6.01l8.24-8.85Z"/>
        <path d="M72.79,306.57c0,3.1-.29,4.18-1.33,5.11-1.15,1.01-2.92,1.4-6.33,1.4-3.85,0-5.69-.47-6.95-1.76-.83-.83-1.3-2.63-1.19-4.25l.04-.29.04-7.52h-3.53v-3.38h3.56v-3.92h4.82l-.04,3.92h10.76v3.38h-10.76l-.07,6.73c-.04,2.99.61,3.56,3.92,3.56,1.4,0,2.27-.25,2.77-.72.43-.47.5-.97.5-2.7v-.65h3.78v1.08Z"/>
        <path d="M81.57,305.24c.04,1.94.36,3.17,1.01,3.78.72.65,2.7.94,6.23.94,3.96,0,5.18-.54,5.44-2.45h4.68c-.07,1.83-.58,3.06-1.62,3.92-1.48,1.19-3.85,1.62-8.85,1.62-3.85,0-6.88-.32-8.17-.9-2.59-1.19-3.56-3.24-3.56-7.74,0-3.64.61-5.69,2.05-7.02,1.51-1.4,3.71-1.8,9.58-1.8,5.44,0,7.56.5,9,2.09,1.19,1.37,1.62,3.02,1.62,6.44v1.12h-17.39ZM94.24,302.43c0-.97-.11-1.51-.43-2.12-.25-.47-.61-.83-.97-1.01-.83-.36-2.41-.61-4.18-.61-3.64,0-4.68.11-5.69.65-.86.47-1.4,1.58-1.4,2.88v.22h12.67Z"/>
        <path d="M103.75,295.88h4.57v3.56c.76-1.8,1.19-2.41,2.05-2.92,1.12-.61,2.88-.97,5.08-.97,3.38,0,5.51.79,6.41,2.38.58,1.01.79,2.2.79,4.21,0,.18,0,.61-.04,1.08h-4.5c0-1.48-.07-1.98-.36-2.59-.43-.83-1.76-1.3-3.74-1.3-4,0-5.51,1.33-5.51,4.75v8.67h-4.75v-16.88Z"/>
        <path d="M126.43,295.88h4.64v3.67c1.08-3.24,2.84-4.1,8.21-4.1,4,0,6.16.61,7.56,2.16,1.08,1.22,1.48,2.7,1.48,5.51v9.65h-4.75v-9.43c0-3.2-1.19-4.03-5.72-4.03-4.97,0-6.66,1.26-6.66,4.93v8.53h-4.75v-16.88Z"/>
        <path d="M153.83,300.78c.07-1.87.47-2.84,1.51-3.67,1.48-1.19,3.49-1.55,8.39-1.55,6.52,0,8.64.4,10.01,1.91,1.01,1.12,1.26,2.12,1.26,4.86v10.44h-4.75v-2.7c-.61,2.34-2.3,3.02-7.52,3.02-4.54,0-6.48-.22-7.67-.9-1.37-.76-1.98-2.12-1.98-4.36,0-4.64,1.73-5.58,10.22-5.58,4.79,0,6.16.43,6.88,2.2v-1.83c0-3.42-.68-3.85-5.87-3.85-4.86,0-5.51.22-5.69,2.02h-4.79ZM158.72,305.74c-.58.25-.94.97-.94,1.84,0,1.33.65,1.98,2.27,2.23.58.07,1.73.11,4.07.11,4.93,0,6.08-.47,6.08-2.48,0-.83-.32-1.48-.9-1.69-.9-.4-2.59-.58-5.47-.58-2.66,0-4.25.18-5.11.58Z"/>
        <path d="M180.47,288.68h4.75v24.08h-4.75v-24.08Z"/>
        <path d="M205.7,308.01l-2.66,4.75h-6.23l13.75-24.01h7.52l13.53,24.01h-6.05l-2.74-4.75h-17.13ZM214.27,292.64l-6.44,11.48h12.96l-6.52-11.48Z"/>
        <path d="M235.98,299.27h-3.49v-3.38h3.49v-.86c0-5.18,1.87-6.7,8.39-6.7,1.12,0,1.98.04,3.24.11v3.31c-.97-.04-1.51-.04-2.2-.04-3.64,0-4.68.72-4.68,3.31v.86h7.09v3.38h-7.09v13.5h-4.75v-13.5Z"/>
        <path d="M254.05,299.27h-3.49v-3.38h3.49v-.86c0-5.18,1.87-6.7,8.39-6.7,1.12,0,1.98.04,3.24.11v3.31c-.97-.04-1.51-.04-2.2-.04-3.64,0-4.68.72-4.68,3.31v.86h7.09v3.38h-7.09v13.5h-4.75v-13.5Z"/>
        <path d="M269.42,300.78c.07-1.87.47-2.84,1.51-3.67,1.48-1.19,3.49-1.55,8.39-1.55,6.52,0,8.64.4,10.01,1.91,1.01,1.12,1.26,2.12,1.26,4.86v10.44h-4.75v-2.7c-.61,2.34-2.3,3.02-7.52,3.02-4.54,0-6.48-.22-7.67-.9-1.37-.76-1.98-2.12-1.98-4.36,0-4.64,1.73-5.58,10.22-5.58,4.79,0,6.16.43,6.88,2.2v-1.83c0-3.42-.68-3.85-5.87-3.85-4.86,0-5.51.22-5.69,2.02h-4.79ZM274.32,305.74c-.58.25-.94.97-.94,1.84,0,1.33.65,1.98,2.27,2.23.58.07,1.73.11,4.07.11,4.93,0,6.08-.47,6.08-2.48,0-.83-.32-1.48-.9-1.69-.9-.4-2.59-.58-5.47-.58-2.66,0-4.25.18-5.11.58Z"/>
        <path d="M296.06,288.68h4.75v3.96h-4.75v-3.96ZM296.06,295.88h4.75v16.88h-4.75v-16.88Z"/>
        <path d="M306.28,295.88h4.57v3.56c.76-1.8,1.19-2.41,2.05-2.92,1.12-.61,2.88-.97,5.08-.97,3.38,0,5.51.79,6.41,2.38.58,1.01.79,2.2.79,4.21,0,.18,0,.61-.04,1.08h-4.5c0-1.48-.07-1.98-.36-2.59-.43-.83-1.76-1.3-3.74-1.3-4,0-5.51,1.33-5.51,4.75v8.67h-4.75v-16.88Z"/>
        <path d="M345.34,300.45c0-1.4-1.12-1.73-5.98-1.73-4.5,0-5.8.47-5.8,2.02,0,1.44.79,1.69,5.54,1.69h2.63c4.39,0,6.08.22,7.49,1.01,1.22.68,1.8,1.98,1.8,4.03,0,3.1-1.04,4.5-3.89,5.15-1.44.32-4.07.47-8.5.47-5.8,0-7.81-.4-9.07-1.84-.83-.9-1.12-1.91-1.12-3.71v-.18h4.97v.18c.11,2.12.76,2.34,6.88,2.38q4.1-.07,5.04-.5c.5-.25.83-.86.83-1.55,0-1.66-.97-2.05-5.22-1.98-1.66.04-5.69-.04-6.62-.07-4.18-.29-5.65-1.55-5.65-4.82,0-2.92,1.04-4.32,3.74-4.93,1.51-.32,3.89-.5,7.31-.5,5.22,0,7.23.25,8.75,1.08,1.19.65,1.8,1.94,1.8,3.85v.11h-4.93v-.14Z"/>
      </g>
    </g>
  </g>
</svg>