<?xml version="1.0" encoding="UTF-8"?>
<svg id="_レイヤー_1" data-name="レイヤー 1" xmlns="http://www.w3.org/2000/svg" viewBox="0 0 1280 1024">
  <path d="M173.33,451.06h39.45l82.7,90.13-.5-90.13h24.27v108.32h-39.62l-82.2-89.65.5,89.65h-24.6v-108.32Z"/>
  <path d="M442.4,490.68c5.78,5.36,7.59,12.83,7.59,31.99,0,13.48-2.64,24.36-6.93,28.58-2.81,2.76-7.59,5.36-11.56,6.5-6.11,1.79-21.46,3.09-36.32,3.09-43.91,0-51.83-6.01-51.83-39.79,0-17.21,2.31-25.66,8.25-30.86,2.81-2.44,7.26-4.55,11.72-5.68,5.78-1.46,21.62-2.76,32.68-2.76,27.24,0,39.12,2.27,46.38,8.93ZM369.77,503.51c-3.14,3.41-4.29,8.44-4.29,18.03,0,19.65,4.29,23.06,28.72,23.06,15.68,0,22.94-.81,26.74-2.92,5.12-2.92,6.93-8.12,6.93-19.65,0-20.46-4.13-24.03-28.06-24.03-19.31,0-26.41,1.3-30.04,5.52Z"/>
  <path d="M515.53,451.06h25.42v108.32h-25.42v-108.32Z"/>
  <path d="M568.35,483.21h21.29v15.27c4.29-12.67,12.88-16.73,34.83-16.73,20.47,0,31.2,5.03,35.65,16.89,3.96-12.34,14.03-16.89,36.65-16.89,29.88,0,40.61,8.77,40.61,33.13v44.5h-21.79v-43.04c0-13.64-5.28-17.54-23.93-17.54-20.8,0-27.9,5.36-27.9,20.79v39.79h-21.79v-42.22c0-14.94-4.79-18.51-24.1-18.51s-27.73,5.36-27.73,19.65v41.09h-21.79v-76.17Z"/>
  <path d="M762.65,505.3c.33-8.44,2.15-12.83,6.93-16.56,6.77-5.36,16.01-6.98,38.46-6.98,29.88,0,39.62,1.79,45.89,8.61,4.62,5.03,5.78,9.58,5.78,21.92v47.1h-21.79v-12.18c-2.81,10.56-10.56,13.64-34.5,13.64-20.8,0-29.71-.97-35.16-4.06-6.27-3.41-9.08-9.58-9.08-19.65,0-20.95,7.92-25.17,46.88-25.17,21.95,0,28.23,1.95,31.53,9.91v-8.28c0-15.43-3.14-17.38-26.91-17.38-22.29,0-25.26.97-26.08,9.09h-21.96ZM785.1,527.71c-2.64,1.14-4.29,4.38-4.29,8.28,0,6.01,2.97,8.93,10.4,10.07,2.64.33,7.92.49,18.65.49,22.62,0,27.9-2.11,27.9-11.21,0-3.74-1.49-6.66-4.13-7.63-4.13-1.79-11.88-2.6-25.09-2.6-12.21,0-19.48.81-23.44,2.6Z"/>
  <path d="M987.81,551.91c0,23.38-2.97,31.67-13.87,37.68-7.76,4.22-19.97,5.85-43.74,5.85-17,0-27.4-1.46-34-5.04-7.76-4.22-12.38-12.18-12.38-22.09v-.65h22.12v.65c.17,4.22,2.31,7.47,6.6,9.26,3.79,1.62,9.9,2.27,21.62,2.27,28.89,0,32.35-2.92,32.35-27.93v-6.82c-1.98,4.22-3.47,6.17-5.94,8.28-5.28,4.55-14.53,6.5-30.04,6.5-40.11,0-49.19-7.31-49.19-39.14s8.58-38.98,49.69-38.98c17.17,0,26.08,1.95,30.54,6.82,2.14,2.44,3.3,4.87,4.95,10.07v-15.43h21.29v68.69ZM907.25,503.51c-2.97,3.25-4.13,7.96-4.13,16.73,0,10.56,1.32,15.75,4.79,18.84,2.15,1.79,6.11,3.25,10.23,3.74.99.16,16.34.65,18.98.65,24.1,0,28.56-3.57,28.56-22.57,0-8.93-.66-12.5-3.14-16.24-3.3-5.2-8.75-6.5-25.92-6.5-19.15,0-25.92,1.14-29.38,5.36Z"/>
  <path d="M1032.22,525.44c.17,8.77,1.65,14.29,4.62,17.05,3.3,2.92,12.38,4.22,28.56,4.22,18.16,0,23.77-2.44,24.93-11.04h21.46c-.33,8.28-2.64,13.8-7.43,17.7-6.77,5.36-17.66,7.31-40.61,7.31-17.66,0-31.53-1.46-37.47-4.06-11.88-5.36-16.34-14.62-16.34-34.92,0-16.4,2.8-25.66,9.41-31.67,6.93-6.33,17-8.12,43.91-8.12,24.93,0,34.66,2.27,41.27,9.42,5.45,6.17,7.43,13.64,7.43,29.07v5.04h-79.73ZM1090.32,512.77c0-4.38-.5-6.82-1.98-9.58-1.16-2.11-2.81-3.74-4.46-4.55-3.8-1.62-11.06-2.76-19.15-2.76-16.67,0-21.46.49-26.08,2.92-3.96,2.11-6.44,7.15-6.44,12.99v.97h58.11Z"/>
</svg>