<?xml version="1.0" encoding="UTF-8"?>
<svg id="_レイヤー_2" data-name="レイヤー 2" xmlns="http://www.w3.org/2000/svg" viewBox="0 0 79.52 71.25">
  <defs>
    <style>
      .cls-1 {
        fill: #fff;
      }
    </style>
  </defs>
  <g id="_レイヤー_1-2" data-name="レイヤー 1">
    <g>
      <path class="cls-1" d="M5.56,18.14c-1.2-.5-2.34-.95-3.44-1.34C.53,15.01-.17,12.82.03,10.22c.9-1.2,1.59-2.34,2.09-3.44C7,4.1,12.19,2.16,17.66.96c1.29.7,2.74,1,4.33.9,5.08-.7,10.16-1.29,15.24-1.79l5.23.15,2.09-.15c12.05-.5,23.71,1.89,34.96,7.17-.5.8-.85,1.74-1.05,2.84l-.6,1.79-2.39,2.84-2.99.45c-7.77-.9-15.54-1.69-23.31-2.39l-1.34.45c-2.79-.7-5.53-.7-8.22,0-10.46,0-20.07,1.64-28.84,4.93l-1.64-.6-1.94.15-1.64.45Z"/>
      <path class="cls-1" d="M9.49,45.49c-1.79-.3-3.39-1.09-4.78-2.39-1.2-.9-2.19-1.94-2.99-3.14v-2.54c.3-2.69.95-5.23,1.94-7.62,4.28-1.39,8.71-2.29,13.3-2.69,1.69-.2,3.38-.15,5.08.15,7.07-.3,13.99-.8,20.77-1.49,11.55-.1,23.11,2.19,34.66,6.87.9,1.4,0,3.04-2.69,4.93l-1.64.15.3,1.79-2.69,2.09c-2.29.1-4.38-.1-6.28-.6-3.99-1.09-8.87-1.89-14.64-2.39l-1.79.3-5.83-.45c-4.38.5-8.82.95-13.3,1.34l-1.34-.3-5.68.15c-3.49.4-6.67,1.94-9.56,4.63-.4.6-1,.8-1.79.6l-1.05.6Z"/>
      <path class="cls-1" d="M5.56,71.25c-1.2-.5-2.34-.95-3.44-1.34-1.59-1.79-2.29-3.98-2.09-6.57.9-1.2,1.59-2.34,2.09-3.44,4.88-2.69,10.06-4.63,15.54-5.83,1.29.7,2.74,1,4.33.9,5.08-.7,10.16-1.29,15.24-1.79l5.23.15,2.09-.15c12.05-.5,23.71,1.89,34.96,7.17-.5.8-.85,1.74-1.05,2.84l-.6,1.79-2.39,2.84-2.99.45c-7.77-.9-15.54-1.69-23.31-2.39l-1.34.45c-2.79-.7-5.53-.7-8.22,0-10.46,0-20.07,1.64-28.84,4.93l-1.64-.6-1.94.15-1.64.45Z"/>
    </g>
  </g>
</svg>